<?xml version="1.0" encoding="utf-8"?>
<!-- Generator: Adobe Illustrator 18.0.0, SVG Export Plug-In . SVG Version: 6.00 Build 0)  -->
<!DOCTYPE svg PUBLIC "-//W3C//DTD SVG 1.1//EN" "http://www.w3.org/Graphics/SVG/1.1/DTD/svg11.dtd">
<svg version="1.1" id="Layer_1" xmlns="http://www.w3.org/2000/svg" xmlns:xlink="http://www.w3.org/1999/xlink" x="0px" y="0px"
	 viewBox="0 0 283 230" style="enable-background:new 0 0 283 230;" xml:space="preserve">
<g>
	<g>
		<path d="M147.7,111.4c21.7-4.5,39.7-24.1,39.7-52.8C187.4,27.9,165,0,121.2,0H0v230h125c44.2,0,67-27.6,67-62.4
			C191.9,139,172.6,115.2,147.7,111.4z M49,43.1h61.4c16.6,0,26.9,10,26.9,24.1c0,14.8-10.4,24.1-26.9,24.1H49V43.1z M112.5,186.9
			H49v-52.4h63.5c19,0,29.3,11.7,29.3,26.2C141.9,177.2,130.8,186.9,112.5,186.9z M252.3,0.4c-14.8,0-27.3,12.4-27.3,27.2
			c0,14.8,10.4,24.8,23.5,24.8c2.8,0,5.5-0.3,6.6-1c-2.8,12.4-15.5,26.9-26.6,32.8l19,15.5C268.8,84.6,283,61.5,283,35.6
			C283,13.2,268.5,0.4,252.3,0.4z"/>
	</g>
</g>
</svg>
