<?xml version="1.0" standalone="no"?>
<!DOCTYPE svg PUBLIC "-//W3C//DTD SVG 1.1//EN" "http://www.w3.org/Graphics/SVG/1.1/DTD/svg11.dtd" >
<svg>
<metadata>
Created by FontForge 20120731 at Fri Apr 22 13:03:44 2016
 By www
Copyright (c) 2011 by Mans Greba:ck. All rights reserved.
</metadata>
<defs>
<font id="Denigan" horiz-adv-x="530" >
  <font-face 
    font-family="Denigan"
    font-weight="400"
    font-stretch="normal"
    units-per-em="1000"
    panose-1="2 0 0 0 0 0 0 0 0 0"
    ascent="750"
    descent="-250"
    x-height="504"
    cap-height="711"
    bbox="-134.571 -343.2 909 923"
    underline-thickness="50"
    underline-position="-50"
    unicode-range="U+0020-FB02"
  />
<missing-glyph horiz-adv-x="500" 
 />
    <glyph glyph-name=".notdef" horiz-adv-x="500" 
 />
    <glyph glyph-name=".null" horiz-adv-x="0" 
 />
    <glyph glyph-name="nonmarkingreturn" horiz-adv-x="500" 
 />
    <glyph glyph-name="space" unicode=" " horiz-adv-x="304" 
 />
    <glyph glyph-name="space" unicode="&#xa0;" horiz-adv-x="304" 
 />
    <glyph glyph-name="e" unicode="e" horiz-adv-x="482" 
d="M386 56l-2 -2l-2 -2l-3 -3l-4 -4l-4 -4q-4 -3 -8 -6.5t-9 -6.5q-15 -12 -36 -22q-37 -19 -82 -21q-43 -3 -83 14q-20 8 -38 19.5t-33 25.5q-16 14 -28.5 31t-22.5 35q-20 37 -27 78q-9 43 -5 83q2 20 5.5 40.5t11.5 39.5q8 20 17.5 38t22.5 35q27 33 62 55q35 23 78 29
q41 6 82 -5q39 -10 74 -37q17 -13 30.5 -28.5t24.5 -32.5q22 -35 33 -75q6 -20 8.5 -40t2.5 -40v-1q0 -7 -7 -7l-337 3q-4 0 -4 5q0 4 4 4l337 3l-7 -8v1q0 37 -11 76q-11 38 -32 70q-21 33 -52 56q-30 23 -68 34q-19 5 -38 6t-37 -3q-38 -6 -71 -27q-31 -19 -55 -51
q-12 -15 -21 -32t-16 -35q-13 -36 -15.5 -74.5t5.5 -76.5q9 -38 27 -71q19 -35 46 -59q30 -27 63 -40q36 -14 73 -11q36 1 71 19q8 4 15.5 9t15.5 11q8 5 14 12q3 2 7 6l3 3l2 2l2 2q9 10 20 1q10 -10 1 -21z" />
    <glyph glyph-name="f" unicode="f" horiz-adv-x="141" 
d="M8 2l5 362l1 90l1 45v12t1 11q0 6 0.5 12t1.5 11q2 11 3.5 23t3.5 23t5.5 22t7.5 22q5 11 10 21t13 20q4 5 8 9t9 8q9 8 21 11q5 2 7 -3t-3 -7q-9 -2 -18 -10q-9 -6 -15 -15q-7 -9 -11.5 -18.5t-8.5 -20.5q-4 -10 -6.5 -20.5t-4.5 -21.5q-4 -22 -6 -44q-1 -6 -1 -11.5
v-11.5q-1 -5 -1 -10.5v-11.5l1 -45l1 -90l4 -362q1 -6 -3.5 -10.5t-10.5 -4.5t-10 4.5t-5 10.5zM111 481h-78q-10 0 -10 10t10 10h78q10 0 10 -10t-10 -10z" />
    <glyph glyph-name="g" unicode="g" horiz-adv-x="476" 
d="M340 454q-28 19 -56 28q-29 10 -62 10q-17 0 -32.5 -2.5t-30.5 -7.5q-32 -11 -55 -30q-13 -10 -24 -21t-19 -25q-9 -13 -15 -27.5t-10 -29.5q-8 -30 -3 -62q3 -32 18 -60q16 -28 38 -49q23 -21 52 -35q27 -11 60 -16q16 -2 31.5 -0.5t31.5 4.5q31 6 57 23q28 17 48 40
q21 26 31 53q10 29 10 61v-1v6v7q-1 4 -1 12v25q0 13 0.5 25.5t1.5 25.5q3 23 9 50q2 7 4 13t5 13q3 6 7 12.5t10 11.5q4 5 10 5t10 -5q11 -9 0 -20q-6 -6 -11 -16q-2 -5 -3.5 -10.5t-3.5 -10.5q-6 -23 -9 -46q-1 -12 -1.5 -24t-0.5 -24v-24v-12v-6q0 -2 0.5 -3t0.5 -3v-1
q0 -18 -3.5 -35.5t-9.5 -34.5t-15.5 -32t-20.5 -29q-24 -27 -54 -45q-33 -19 -66 -26q-35 -8 -70 -3q-18 2 -35 6.5t-33 11.5q-34 16 -58 40q-27 25 -43 56q-16 33 -20 67q-2 18 -1 35.5t5 34.5q9 35 29 64q19 30 48 51q29 22 62 32q35 11 69 11q33 0 68 -11q33 -10 62 -32
q7 -5 2 -14q-7 -7 -14 -1zM335 72q-8 1 -16 1t-16 1h-33h-32.5t-31.5 -1q-17 -1 -33 -2t-33 -3q-8 -1 -16.5 -2t-16.5 -3q-4 -1 -8 -1.5t-7 -2.5q-10 -2 -17 -6q-10 -3 -17 -9q-5 -3 -9 -9t-5 -12v-4v-1v-1v-1v-1q0 -4 2 -8l5 -5q1 -2 5 -4q2 -2 4.5 -3t4.5 -3l9 -3
q7 -2 17 -4q4 -1 7.5 -1.5t8.5 -1.5l16 -2l16 -2q17 -2 32.5 -2.5t32.5 -2.5q16 -2 31 -3.5t31 -4.5q33 -5 62 -12q8 -2 15 -4.5t15 -5.5q7 -3 13 -6t13 -8q6 -4 11.5 -8.5t10.5 -10.5q10 -12 13 -24q2 -7 3 -14t1 -13q-2 -16 -7 -28q-6 -12 -17 -23t-24 -18q-12 -8 -27 -12
q-14 -6 -30 -9q-15 -4 -30.5 -6.5t-31.5 -4.5q-8 -1 -15.5 -1t-15.5 -1h-16h-8h-8h-1h-5h-5h-10h-21q-20 1 -41 6q-10 2 -19 4.5t-18 7.5t-17 11t-13 14q-2 4 -3.5 8t-3.5 9q-1 5 -1 9.5v9.5q1 19 11 38q4 9 9 18l10 18q12 19 25 34q4 6 -1 9q-6 4 -9 -1q-14 -18 -26 -35
q-6 -9 -11 -18t-10 -20t-8 -20q-2 -8 -4 -22q-1 -5 -0.5 -11t1.5 -12q3 -11 9 -22q5 -9 16 -18q10 -8 19 -12q10 -5 20 -8.5t21 -6.5q20 -4 43 -6q5 0 10.5 -0.5t11.5 -0.5h11h5q2 1 6 1h-1q2 0 4 -0.5t4 -0.5h8h17q8 1 15.5 1t15.5 1q17 2 33 4t33 6q16 3 32 9q8 3 15 6
t15 8q13 6 28 20q14 14 21 29q7 16 9 34v5v3v9q-1 5 -1.5 9t-2.5 9q-2 9 -7 17t-10 15q-13 15 -27 23q-8 5 -15 9t-14 7l-16 6t-16 5q-34 10 -64 14q-17 2 -32.5 4t-31.5 4q-17 2 -32.5 3.5t-31.5 3.5q-8 1 -16 1t-16 2q-5 0 -15 2q-3 1 -6.5 2t-6.5 2q-6 2 -7 2q-2 1 -4 3
l-2 1v1q1 1 1 2q1 0 3 3q6 4 12 5q5 3 12 4.5t15 3.5t15.5 3t15.5 2q16 2 31.5 2.5t32.5 1.5h63q8 0 16 -0.5t16 -0.5t16 -0.5t16 -0.5q6 -1 10 3t5 10q0 6 -4 10.5t-10 4.5z" />
    <glyph glyph-name="h" unicode="h" horiz-adv-x="433" 
d="M1 0l4 351l2 176l1 44v22v5v2v1v1v3q1 3 1 11l4 22l4 22q2 5 3.5 11t3.5 11q2 2 2.5 5t2.5 6q4 6 8 10q5 5 10 0t0 -10q-3 -3 -5 -7q-2 -3 -4 -9q-2 -5 -3 -10.5t-3 -10.5q-2 -10 -3.5 -20.5t-3.5 -21.5q0 -7 -1 -11v-2v-1v-1v1v-2v-5v-22l1 -44l2 -176l3 -351
q1 -6 -3.5 -10.5t-10.5 -4.5t-10 4.5t-5 10.5zM69 507l92 1h23h12q3 -1 6 -1t6 -1q26 -3 46 -10q11 -4 22 -9l22 -10q20 -11 39 -29q16 -15 31 -36q13 -20 22 -43q7 -21 12 -46q2 -12 3.5 -24t1.5 -24v-11v-12l1 -23v-46l2 -184q1 -6 -3.5 -10.5t-10.5 -4.5t-10 4.5t-5 10.5
l3 184v46l1 23v12v11q-1 23 -4 44.5t-10 42.5q-4 11 -9 20.5t-10 18.5q-12 19 -28 34q-16 16 -35 27t-40 19q-11 4 -21.5 6.5t-21.5 4.5q-3 0 -5.5 0.5t-5.5 0.5t-6 0.5t-5 0.5h-23l-92 1q-6 0 -6 6t6 6z" />
    <glyph glyph-name="i" unicode="i" horiz-adv-x="119" 
d="M50 0l4 261v65l1 33v16v9v7q-1 8 -1.5 15.5t-2.5 15.5t-3.5 15t-4.5 15q-6 14 -16 24q-11 11 -24 14q-8 2 -6 10t10 6q10 -2 17 -6q8 -4 15 -11q13 -14 21 -30q3 -8 5.5 -16.5t4.5 -16.5t3 -16.5t2 -17.5v-8v-9v-16l1 -33v-65l3 -261q1 -6 -3.5 -10.5t-10.5 -4.5t-10 4.5
t-5 10.5zM65 692v-48q0 -10 -10 -10t-10 10v48q0 10 10 10t10 -10z" />
    <glyph glyph-name="j" unicode="j" horiz-adv-x="135" 
d="M56 -250l3 386l2 193v49v5v6q0 8 -1 12q0 11 -3 23q-2 10 -6 21q-2 5 -4.5 10t-4.5 10q-7 10 -14 16q-9 6 -19 9q-8 2 -6 10t10 6q14 -3 25 -11q5 -5 10 -9.5t9 -10.5q4 -5 6.5 -11t4.5 -12q3 -6 4.5 -12t3.5 -13q2 -6 2.5 -12t1.5 -12q0 -4 0.5 -7t0.5 -6v-6v-4v-2v-49
l2 -193l2 -386q1 -6 -3.5 -10.5t-10.5 -4.5t-10 4.5t-5 10.5zM75 692v-48q0 -10 -10 -10t-10 10v48q0 10 10 10t10 -10z" />
    <glyph glyph-name="k" unicode="k" horiz-adv-x="368" 
d="M4 0l4 351l2 176l1 44v22v5v2v1v1v3q1 3 1 11l4 22l4 22q2 5 3.5 11t3.5 11q2 2 2.5 5t2.5 6q4 6 8 10q5 5 10 0t0 -10q-3 -3 -5 -7q-2 -3 -4 -9q-2 -5 -3 -10.5t-3 -10.5q-2 -10 -3.5 -20.5t-3.5 -21.5q0 -7 -1 -11v-2v-1v-1v1v-2v-5v-22l1 -44l2 -176l3 -351
q1 -6 -3.5 -10.5t-10.5 -4.5t-10 4.5t-5 10.5zM330 489l-252 -334q-4 -6 -10 -2q-5 5 -2 10l240 344q4 5 9.5 6t10.5 -3t6.5 -9.5t-2.5 -10.5v-1zM178 288q-1 -1 -1 -2l-2 -2q-1 -1 -3 -5q-2 -2 -2.5 -4.5t-2.5 -5.5q-2 -5 -3.5 -10t-3.5 -10q-2 -11 0 -21q1 -5 2.5 -9.5
t4.5 -8.5q4 -6 6 -8q1 -1 1.5 -2t2.5 -2l4 -4l17 -17l35 -34l136 -135q5 -4 5 -10t-5 -10q-9 -11 -20 0l-133 139l-33 34l-17 18l-4 4l-5 5q-2 2 -4 5l-4 6q-7 12 -9 26q-1 13 2 28q1 6 3.5 12.5t4.5 11.5l6 12q3 3 4 5q1 1 1 1.5t1 1.5t1 1.5t1 1.5q6 6 13 1q2 -2 2.5 -6
t-1.5 -6v-1z" />
    <glyph glyph-name="l" unicode="l" horiz-adv-x="94" 
d="M26 0l4 351l2 176l1 44v22v5v2v-1v1v1v2q-1 4 -1 11q-2 11 -3.5 21.5t-3.5 20.5q-2 5 -3 10.5t-3 10.5q-2 6 -4 9q-2 4 -5 7q-5 5 0 10t10 0q4 -4 8 -10q2 -3 2.5 -6t2.5 -5q2 -5 3.5 -11t3.5 -11l4 -22l4 -22q0 -8 1 -11v-3v-1v-1v-2v-5v-22l1 -44l2 -176l3 -351
q1 -6 -3.5 -10.5t-10.5 -4.5t-10 4.5t-5 10.5z" />
    <glyph glyph-name="m" unicode="m" horiz-adv-x="770" 
d="M424 425q0 2 1 3q0 1 0.5 1.5t0.5 1.5l3 6q2 2 3.5 5t3.5 5q7 12 15 20q17 17 41 28q11 5 23.5 8t24.5 5h13h12h12t12 -1q23 -1 49 -11q25 -10 42 -27q10 -9 17.5 -19t13.5 -21t10 -23l8 -24q3 -12 5.5 -24t4.5 -24t2.5 -24t1.5 -24v-12v-13l1 -23v-48l2 -191
q1 -6 -3.5 -10.5t-10.5 -4.5t-10 4.5t-5 10.5l3 191v48l1 23v12v12q-1 12 -1 23.5t-2 23.5q-2 11 -3.5 22.5t-4.5 22.5t-7 22t-9 21t-11.5 19t-14.5 17t-17 14t-19 11q-11 5 -22 7l-22 4q-6 1 -12 1t-12 1h-11h-12q-22 -1 -44 -11q-21 -9 -37 -25q-8 -8 -15 -18l-6 -9
q-1 -2 -1 -2.5t-1 -2.5q-1 -1 -1 -1.5t-1 -1.5q0 -1 -1 -2q-2 -6 -7 -3q-6 2 -3 7zM94 425q0 2 1 3q0 1 0.5 1.5t0.5 1.5l3 6q2 2 3.5 5t3.5 5q7 12 15 20q17 17 41 28q11 5 23.5 8t24.5 5h13h12h12t12 -1q23 -1 49 -11q25 -10 42 -27q10 -9 17.5 -19t13.5 -21t10 -23l8 -24
q3 -12 5.5 -24t4.5 -24t2.5 -24t1.5 -24v-12v-13l1 -23v-48l2 -191q1 -6 -3.5 -10.5t-10.5 -4.5t-10 4.5t-5 10.5l3 191v48l1 23v12v12q-1 12 -1 23.5t-2 23.5q-2 11 -3.5 22.5t-4.5 22.5t-7 22t-9 21t-11.5 19t-14.5 17t-17 14t-19 11q-11 5 -22 7l-22 4q-6 1 -12 1t-12 1
h-11h-12q-22 -1 -44 -11q-21 -9 -37 -25q-8 -8 -15 -18l-6 -9q-1 -2 -1 -2.5t-1 -2.5q-1 -1 -1 -1.5t-1 -1.5q0 -1 -1 -2q-2 -6 -7 -3q-6 2 -3 7zM40 0l3 255l1 64l1 32v16v8v4v1v1v2q1 8 0.5 15.5t-0.5 15.5q-1 8 -2 15t-3 15t-4.5 14.5t-5.5 12.5q-7 12 -19 20q-8 4 -3 11
q4 8 11 3q9 -4 15 -11t11 -14q8 -13 13 -32q4 -15 6 -32q1 -8 1 -16.5v-16.5v-3v-1v-4v-8v-16l1 -32l1 -64l2 -255q1 -6 -3.5 -10.5t-10.5 -4.5t-10 4.5t-5 10.5z" />
    <glyph glyph-name="n" unicode="n" horiz-adv-x="489" 
d="M86 427q2 1 2.5 2t2.5 3q1 1 1.5 2t2.5 3l9 9q5 5 9.5 9t9.5 8q20 16 44 27q22 11 50 16q7 1 13.5 1.5t12.5 0.5h26q13 -1 26 -2.5t26 -4.5q26 -6 49 -19q11 -6 21.5 -14.5t19.5 -18.5q17 -20 28 -45q6 -12 10 -24.5t7 -25.5t4.5 -25.5t3.5 -25.5q0 -7 0.5 -13t0.5 -13
v-13v-13l1 -50l2 -202q1 -6 -3.5 -10.5t-10.5 -4.5t-10 4.5t-5 10.5l3 202l1 50v13v13q0 6 -0.5 12t-0.5 12q-1 25 -6 49q-3 12 -6 23.5t-8 22.5t-11 21.5t-14 19.5q-14 17 -36 31q-21 12 -44 18q-22 5 -49 7q-6 1 -12 1h-12q-7 0 -13 -0.5t-12 -1.5q-22 -3 -46 -14
q-11 -5 -21.5 -11t-20.5 -14q-11 -8 -19 -16l-4 -4l-4 -4l-5 -5q-1 -1 -3 -5q-4 -4 -9 -1q-4 4 -1 9zM32 0l3 255l1 64l1 32v16v8v4v1v1v2q1 8 0.5 15.5t-0.5 15.5q-1 8 -2 15t-3 15t-4.5 14.5t-5.5 12.5q-7 12 -19 20q-8 4 -3 11q4 8 11 3q9 -4 15 -11t11 -14q8 -13 13 -32
q4 -15 6 -32q1 -8 1 -16.5v-16.5v-3v-1v-4v-8v-16l1 -32l1 -64l2 -255q1 -6 -3.5 -10.5t-10.5 -4.5t-10 4.5t-5 10.5z" />
    <glyph glyph-name="o" unicode="o" horiz-adv-x="489" 
d="M232 -10q-47 0 -89.5 19.5t-74.5 57.5q-33 37 -50.5 84t-17.5 99q0 53 17.5 100t50.5 84q32 38 74.5 57.5t89.5 19.5t89.5 -19.5t74.5 -57.5q33 -37 50.5 -84t17.5 -100q0 -52 -17.5 -99t-50.5 -84q-32 -38 -74.5 -57.5t-89.5 -19.5zM232 491q-44 0 -82.5 -19
t-67.5 -51.5t-45.5 -76.5t-16.5 -94t16.5 -93.5t45.5 -76t67.5 -51.5t82.5 -19t82.5 19t67.5 51.5t45.5 76t16.5 93.5t-16.5 94t-45.5 76.5t-67.5 51.5t-82.5 19z" />
    <glyph glyph-name="p" unicode="p" horiz-adv-x="426" 
d="M33 501l-3 -378l-2 -190l-1 -47v-24v-11v-3v-1v-1v-2l-1 -6q-1 -12 -3 -24t-5 -24q-1 -5 -3 -11l-4 -12q-1 -4 -5 -12q-3 -6 -8 -11t-10 0t0 10q3 3 5 8q2 2 2.5 4.5t2.5 5.5q2 5 3 10.5t3 11.5q5 23 6 46l1 5v2v1v3v11v24l-1 47l-2 190l-4 378q0 6 4.5 10.5t10.5 4.5
t10 -4.5t4 -10.5zM100 9l50 1h26h12h6h2h1h3q6 1 12 1.5t12 2.5t12 3.5t11 3.5q12 4 22.5 9.5t20.5 12.5q11 7 19.5 15t16.5 17q16 19 26 41q9 19 16 45q6 24 9 48q2 13 2 25v25q0 23 -3 49q-2 12 -4.5 24t-6.5 23q-3 11 -8 22l-10 22q-11 19 -29 37t-38 28q-11 5 -22 9.5
t-22 6.5q-6 2 -12 2.5t-11 1.5q-4 1 -12 1h-6h-3h-1h-1h-2h-3l-2 1h-5h-11h-10.5t-10.5 -1q-22 -2 -41 -6q-21 -5 -39 -12q-19 -7 -35 -20q-13 -7 -21 3q-8 12 3 21q18 12 42 22q11 5 22 8t22 5q23 5 46 6h22h12q2 0 2.5 -0.5t2.5 -0.5h3h2h1h-2h2h2h3h7q4 -1 7 -1t7 -1
q6 -1 12.5 -1.5t13.5 -2.5q13 -4 25.5 -8.5t24.5 -11.5q11 -7 22 -14.5t20 -17.5q19 -19 32 -43q7 -12 11.5 -24t8.5 -25q7 -23 10 -51q3 -26 3 -51q0 -27 -3 -52q-3 -28 -10 -51q-4 -12 -8.5 -24.5t-10.5 -23.5q-5 -12 -12.5 -22.5t-16.5 -21.5q-8 -10 -18 -18.5t-21 -15.5
q-22 -16 -47 -23q-6 -2 -12 -3.5t-13 -3.5q-6 -2 -12.5 -2.5t-13.5 -1.5h-3h-2h-2h-6h-12h-26l-50 1q-6 0 -6 6t6 6z" />
    <glyph glyph-name="q" unicode="q" horiz-adv-x="426" 
d="M397 501l-3 -378l-2 -190l-1 -47v-24v-11v-3v-1v-2l1 -5q1 -23 6 -46q2 -6 3 -11.5t3 -10.5q2 -3 2.5 -5.5t2.5 -4.5q1 -5 5 -8q5 -5 0 -10t-10 0t-8 11q-4 8 -5 12l-4 12t-3 11q-3 12 -5 24t-3 24l-1 6v2v1v1v3v11v24l-1 47l-2 190l-4 378q0 6 4.5 10.5t10.5 4.5
t10 -4.5t4 -10.5zM302 -3l-50 -1h-26h-12h-6h-2h-2h-3q-7 1 -13.5 1.5t-12.5 2.5q-7 2 -13 3.5t-12 3.5q-25 7 -47 23q-11 7 -21 15.5t-18 18.5q-9 11 -16.5 21.5t-12.5 22.5q-6 11 -10.5 23.5t-8.5 24.5q-7 23 -10 51q-3 25 -3 52q0 25 3 51q3 28 10 51q4 13 8.5 25
t11.5 24q13 24 32 43q9 10 20 17.5t22 14.5q12 7 24.5 11.5t25.5 8.5q7 2 13.5 2.5t12.5 1.5q4 1 7 1t7 1h7h3h2h2h-2h1h2h3q2 0 2.5 0.5t2.5 0.5h12h22q23 -1 46 -6q11 -2 22 -5t22 -8q24 -10 42 -22q11 -9 3 -21q-4 -5 -9.5 -6t-10.5 3h-1q-16 13 -35 20q-18 7 -39 12
q-19 4 -41 6q-5 1 -10.5 1h-10.5h-11h-5l-2 -1h-3h-2h-1h-1h-3h-6q-8 0 -12 -1q-5 -1 -11 -1.5t-12 -2.5q-11 -2 -22 -6.5t-22 -9.5q-20 -10 -38 -28t-29 -37l-10 -22t-8 -22q-4 -11 -6.5 -23t-4.5 -24q-3 -26 -3 -49v-25t2 -25q3 -24 9 -48q6 -26 16 -45q10 -22 26 -41
q8 -9 16.5 -17t19.5 -15q10 -7 20.5 -12.5t22.5 -9.5q5 -2 11 -3.5t12 -3.5t12 -2.5t12 -1.5h3h1h2h6h12h26l50 -1q6 0 6 -6t-6 -6z" />
    <glyph glyph-name="r" unicode="r" horiz-adv-x="257" 
d="M49 376q0 3 1 5v4q1 2 1 4t1 4q1 5 2 8.5t3 7.5q6 15 17 30q10 15 23 25q6 6 12.5 10.5t14.5 9.5q29 16 64 24q16 3 32.5 5t33.5 2v1q6 0 10.5 -4.5t4.5 -10.5q0 -13 -14 -15h-1q-32 2 -62 -3q-15 -2 -29.5 -6t-28.5 -11t-26 -16t-22 -21t-16 -25q-2 -4 -3 -7t-3 -7
q0 -2 -2 -8q0 -2 -1 -3v-4q-2 -5 -7 -5q-5 2 -5 6zM38 0l3 255l1 64l1 32v16v8v4v1v1v2q1 8 0.5 15.5t-0.5 15.5q-1 8 -2 15t-3 15t-4.5 14.5t-5.5 12.5q-7 12 -19 20q-8 4 -3 11q4 8 11 3q9 -4 15 -11t11 -14q8 -13 13 -32q4 -15 6 -32q1 -8 1 -16.5v-16.5v-3v-1v-4v-8v-16
l1 -32l1 -64l2 -255q1 -6 -3.5 -10.5t-10.5 -4.5t-10 4.5t-5 10.5z" />
    <glyph glyph-name="s" unicode="s" horiz-adv-x="432" 
d="M382 375v2v1v2q0 4 -1 6q0 4 -2 10q-3 12 -8 20q-5 9 -12.5 17t-15.5 16q-17 14 -38 23q-21 10 -42 14q-43 10 -89 4l-22 -4t-22 -6q-23 -7 -40 -18q-21 -11 -34 -27q-15 -17 -21 -36q-2 -5 -3 -10t-1 -10v-11t1 -11q1 -9 5 -20q5 -12 10 -18q11 -15 33 -25
q9 -5 19.5 -8.5t21.5 -5.5t22.5 -3.5t22.5 -3.5t23 -3t23 -2q12 -2 23.5 -3t23.5 -3t23.5 -4.5t23.5 -6.5q24 -6 45 -20q10 -8 20 -17q5 -5 8.5 -10.5t6.5 -10.5q3 -6 5.5 -12t4.5 -12t3 -12.5t2 -12.5q1 -4 1 -12v-6v-2v-2v-1v-2q0 -7 -1 -13.5t-3 -12.5q-9 -25 -26 -44
q-9 -10 -18.5 -17.5t-20.5 -14.5q-25 -13 -45 -20q-12 -4 -24 -6.5t-24 -4.5q-6 -1 -12 -1t-12 -1h-12h-13q-12 1 -24 2.5t-24 4.5t-24 7t-23 9q-21 9 -42 26q-10 8 -18.5 18t-15.5 21q-5 10 -10 25q-2 6 -2.5 12.5t-1.5 13.5q0 6 4.5 10.5t10.5 4.5q14 0 14 -14v-1
q0 -17 10 -37q10 -17 27 -31q8 -8 17 -13t19 -10q21 -10 41 -14q45 -11 88 -5q22 2 43 9q11 3 20.5 7.5t19.5 9.5q9 6 17.5 12.5t15.5 14.5q15 15 21 35q2 5 2.5 9.5t1.5 9.5v1v1v1v1v1v6q-1 3 -1 10q-2 11 -4.5 21t-7.5 19q-5 10 -12 17q-5 6 -15 13q-18 12 -39 18
q-11 4 -22 6l-22 4t-22.5 3.5t-22.5 3.5q-12 1 -23.5 2t-23.5 3q-11 2 -23 4t-23 4q-12 3 -24 6.5t-23 9.5q-5 2 -10.5 5.5t-10.5 7.5t-9.5 9t-8.5 10t-7.5 11t-5.5 12q-5 12 -6 24q0 4 -0.5 7t-0.5 6v3v3v2v1v3q1 7 2 13.5t3 12.5q7 24 25 43q17 17 39 31q11 6 22 10.5
t22 8.5q12 4 24 6l24 4q11 2 23 2t24 -1q12 0 24 -2l24 -4q26 -7 45 -16q11 -5 21.5 -11.5t20.5 -14.5q19 -16 31 -38q3 -5 5.5 -11t4.5 -12q1 -3 1 -6t1 -6q0 -4 1 -7v-3v-1v-2q0 -8 -8 -8t-8 8z" />
    <glyph glyph-name="t" unicode="t" horiz-adv-x="138" 
d="M40 702l3 -380l1 -95v-48l1 -24v-12v-2v-2v-1v-1v-5q0 -11 1 -22.5t4 -22.5q2 -11 5.5 -21t8.5 -20q12 -20 28 -28q16 -10 38 -10q6 1 10.5 -3.5t4.5 -10.5t-4.5 -10t-10.5 -5q-7 1 -13.5 1.5t-13.5 2.5t-13.5 4.5t-12.5 5.5q-12 7 -21 18q-8 10 -16 22q-11 23 -16 49
q-2 6 -2.5 12t-1.5 13q-1 6 -1 12v13v6v1v-1v1v2v2v12l1 24v48l1 95l3 380q0 8 8 8t8 -8zM119 484h-78q-10 0 -10 10t10 10h78q10 0 10 -10t-10 -10z" />
    <glyph glyph-name="u" unicode="u" horiz-adv-x="470" 
d="M390 64l-3 -3q0 -1 -2 -3q-1 -2 -2 -2.5t-2 -2.5q-2 -2 -5 -4.5t-5 -4.5q-5 -5 -10 -9t-10 -9q-20 -16 -46 -27q-12 -6 -25 -10t-27 -6q-7 -1 -13.5 -1.5t-13.5 -0.5h-6h-7q-3 0 -6 0.5t-7 0.5q-13 1 -26 2.5t-26 4.5q-14 4 -26 8.5t-24 12.5q-12 7 -22.5 15.5
t-19.5 18.5q-18 23 -28 46q-5 12 -9 24.5t-7 25.5t-4.5 26t-2.5 26q-1 6 -1 12.5v13.5v12v13v51l2 202q0 8 8 8t8 -8l2 -202v-51v-13v-12q1 -6 1 -12t1 -13q1 -12 2.5 -24t4.5 -24q6 -23 15 -46q5 -11 11.5 -21t14.5 -18q15 -18 36 -30q10 -6 21 -10t23 -7q22 -4 47 -6h13h6
h6q6 0 12 0.5t11 1.5q23 3 45 14q21 9 40 25q5 3 9.5 7t8.5 8l9 9q1 1 1.5 2t1.5 2l2 2l2 2q3 5 8.5 6t10.5 -3q10 -8 3 -19zM432 495l3 -255v-64l1 -32v-16v-8v-4v-1v-2v-1v-15t1 -15q1 -15 6 -30q4 -16 10 -25q2 -4 8 -10q2 -4 9 -7q12 -7 6 -20q-2 -5 -8 -7t-12 1
q-11 5 -16 12q-8 8 -12 16q-8 15 -13 33q-2 9 -3 17.5t-2 16.5t-1 16.5v17.5l1 2v1v-1v1v4v8v16v32l1 64l3 255q0 9 9 9t9 -9z" />
    <glyph glyph-name="v" unicode="v" horiz-adv-x="388" 
d="M-6 501l225 -497l-27 -1l198 498q1 4 4.5 5.5t6.5 -0.5q9 -4 5 -11l-186 -502q-2 -6 -8 -8.5t-11 -0.5q-6 3 -8 8l-215 503q-4 7 5 11q7 4 11 -5z" />
    <glyph glyph-name="w" unicode="w" horiz-adv-x="495" 
d="M157 501l195 -498h-27l171 498q1 3 4 5t7 0q3 -1 5 -4t0 -7l-159 -502q-5 -12 -19 -9q-5 1 -9 9l-183 502q-4 7 5 11q8 2 10 -5zM-6 501l195 -498l-27 -1l56 155q1 3 4 5t7 0q8 -4 5 -11l-45 -157q-2 -6 -7 -9t-11 -1q-7 2 -9 8v1l-184 502q-3 7 5 11q8 2 11 -5z" />
    <glyph glyph-name="x" unicode="x" horiz-adv-x="344" 
d="M328 498l-310 -508q-7 -12 -20 -5q-5 4 -6.5 9.5t2.5 10.5v1l322 500q4 6 10 2t2 -10zM12 506l322 -500q4 -5 2.5 -11t-6.5 -9q-5 -4 -11 -2.5t-9 6.5l-310 508q-3 6 2 10q6 3 10 -2z" />
    <glyph glyph-name="y" unicode="y" horiz-adv-x="407" 
d="M103 -244l18 47l18 46l37 94q9 23 18.5 46.5t18.5 46.5l37 93l38 93l19 47l9 23l10 23l37 93l20 47l9 23l10 23q3 9 11 5q9 -4 5 -11l-8 -24l-9 -23l-17 -47l-36 -94l-8 -24l-9 -23l-18 -47l-35 -94l-36 -94q-9 -23 -18 -47t-18 -47l-36 -93l-18 -47l-19 -47
q-2 -6 -8.5 -9t-12.5 0q-6 2 -9 8.5t0 12.5zM-2 506l29 -61l29 -62l57 -124l58 -124l28 -62l29 -62q3 -8 0.5 -15t-10.5 -11q-7 -3 -14.5 -0.5t-11.5 10.5l-26 63l-27 63l-52 126l-53 126l-26 63l-26 64q-3 7 5 11q8 2 11 -5z" />
    <glyph glyph-name="z" unicode="z" horiz-adv-x="393" 
d="M20 509l334 2q9 0 9 -9q0 -4 -1 -5h-1l-343 -506l-10 20l370 1q6 1 10.5 -3.5t4.5 -10.5t-4.5 -10t-10.5 -5l-370 2q-13 2 -13 13q0 4 3 7l348 502l8 -14l-334 2q-7 0 -7 7t7 7z" />
    <glyph glyph-name="a" unicode="a" horiz-adv-x="379" 
d="M270 320q-25 -1 -49.5 -1.5t-48.5 -4.5q-22 -3 -47 -11q-24 -8 -42 -19q-5 -4 -9.5 -7t-9.5 -7q-2 -2 -4.5 -4t-4.5 -4l-2 -2l-2 -2q-1 -2 -2 -2.5t-2 -2.5q-8 -8 -13.5 -18t-10.5 -21q-17 -44 -6 -91q5 -25 16 -43q3 -5 6 -9.5t7 -8.5q2 -2 4 -4.5t4 -4.5l1 -1q1 0 1 -1
h1l1 -1q1 -2 2 -2.5t2 -1.5q17 -13 40 -21q20 -7 46 -10q22 -3 47 -3q25 2 47 6q26 5 45 13q10 4 20 10q10 7 16 14q10 9 21 0q10 -11 0 -21q-9 -9 -22 -17q-12 -8 -24 -12q-13 -5 -25.5 -8.5t-25.5 -5.5q-28 -5 -51 -5q-13 -1 -26 0t-26 3t-25.5 4.5t-24.5 7.5
q-25 9 -47 26q-3 2 -5 5l-2 1l-1 1l-1 1l-1 1q-3 3 -5 5.5t-4 4.5q-8 10 -15 23q-7 11 -11.5 23.5t-7.5 25.5q-9 55 10 104q10 23 28 44q2 2 2.5 3t2.5 2q1 1 1 1.5t1 1.5l3 2q6 6 9 8q11 10 22 15q22 13 47 21q23 7 50 10q26 3 50.5 3.5t49.5 0.5q7 0 7 -7t-7 -7zM24 461
q1 1 1.5 1t1.5 1l2 2q2 1 5 4q2 2 5 3.5t5 3.5q5 3 10.5 6t11.5 6q11 5 22.5 9t23.5 7q11 3 23.5 4.5t24.5 2.5t24 1t24 -2q25 -3 48 -12t43 -27t30 -40q6 -11 10 -23t7 -24q2 -12 3 -24.5t1 -24.5l1 -47l1 -95l1 -188q1 -6 -3.5 -10.5t-10.5 -4.5t-10 4.5t-5 10.5l2 188
l1 95l1 47q0 25 -4 45q-2 11 -5 21t-8 21q-5 10 -11.5 18.5t-14.5 16.5q-15 13 -36 23q-21 9 -43 12q-25 3 -45 2q-23 -1 -46 -6q-21 -4 -43 -14q-5 -2 -10 -5l-10 -6l-9 -6q-2 -1 -4 -3q-1 -1 -1.5 -1t-1.5 -1q0 -1 -0.5 -1t-0.5 -1h-1q-2 -2 -5 -1.5t-5 2.5q-4 4 0 10z
" />
    <glyph glyph-name="b" unicode="b" horiz-adv-x="422" 
d="M-2 0l4 351l2 176l1 44v22v5v2v1v1v3q1 3 1 11l4 22l4 22q2 5 3.5 11t3.5 11q2 2 2.5 5t2.5 6q4 6 8 10q5 5 10 0t0 -10q-3 -3 -5 -7q-2 -3 -4 -9q-2 -5 -3 -10.5t-3 -10.5q-2 -10 -3.5 -20.5t-3.5 -21.5q0 -7 -1 -11v-2v-1v-1v1v-2v-5v-22l1 -44l2 -176l3 -351
q1 -6 -3.5 -10.5t-10.5 -4.5t-10 4.5t-5 10.5zM95 504l50 1h26h12h6h2h2h3q7 -1 13.5 -1.5t12.5 -2.5q7 -2 13 -3.5t12 -3.5q25 -7 47 -23q11 -7 21 -15.5t18 -18.5q9 -11 16.5 -21.5t12.5 -22.5q6 -11 10.5 -23.5t8.5 -24.5q7 -23 10 -51q3 -26 3 -52t-3 -51
q-3 -28 -10 -51q-4 -13 -8.5 -25t-11.5 -24q-13 -24 -32 -43q-9 -10 -20 -17.5t-22 -14.5q-12 -7 -24.5 -11.5t-25.5 -8.5q-7 -2 -13.5 -2.5t-12.5 -1.5q-4 -1 -7 -1t-7 -1h-7h-3h-2h-2h2h-1h-2h-3q-2 0 -2.5 -0.5t-2.5 -0.5h-12h-22q-23 1 -46 6q-11 2 -22 5t-22 8
q-24 10 -42 22q-11 9 -3 21q4 5 9.5 6t10.5 -3h1q16 -13 35 -20q18 -8 39 -12q19 -4 41 -6q5 -1 10.5 -1h10.5h11h5l2 1h3h2h1h1h3h6q8 0 12 1q5 1 11 1.5t12 2.5q11 2 22 6.5t22 9.5q20 10 38 28t29 37l10 22t8 22q4 11 6.5 23t4.5 24q3 25 3 49v25t-2 25q-3 24 -9 48
q-7 26 -16 45q-10 22 -26 41q-8 9 -16.5 17t-19.5 15q-10 7 -20.5 12.5t-22.5 9.5q-5 2 -11 3.5t-12 3.5t-12 2.5t-12 1.5h-3h-1h-2h-6h-12h-26l-50 1q-6 0 -6 6t6 6z" />
    <glyph glyph-name="c" unicode="c" horiz-adv-x="428" 
d="M384 59q-12 -13 -25.5 -24t-28.5 -19q-33 -17 -66 -23q-18 -3 -35 -3t-35 3q-17 3 -33.5 9.5t-32.5 14.5q-29 17 -54 44q-23 24 -40 57q-17 32 -24.5 66t-7.5 69t8 69t25 66q18 32 41 57q24 26 56 44q33 17 68 23q16 3 35 3q10 0 18.5 -1t17.5 -3q35 -6 67 -25
q16 -9 30 -20.5t26 -24.5q9 -11 -1 -21q-11 -9 -21 1q-22 25 -48 41q-29 16 -58 22q-8 2 -15.5 3t-15.5 1h-15.5t-15.5 -2q-30 -4 -60 -20q-27 -15 -50 -38q-22 -22 -38 -51q-32 -58 -32 -124q-2 -33 6 -65t22 -61q14 -30 36 -53q21 -24 49 -41q30 -17 60 -23q8 -2 16 -2.5
t16 -1.5q17 0 32 3q31 4 61 20q14 8 27.5 18t24.5 22q4 6 10 0q5 -5 0 -10z" />
    <glyph glyph-name="d" unicode="d" horiz-adv-x="417" 
d="M367 0l4 351l2 176l1 44v22v5v2v-1v1v1v2q-1 4 -1 11q-2 11 -3.5 21.5t-3.5 20.5q-2 5 -3 10.5t-3 10.5q-2 6 -4 9q-2 4 -5 7q-5 5 0 10t10 0q4 -4 8 -10q2 -3 2.5 -6t2.5 -5q2 -5 3.5 -11t3.5 -11l4 -22l4 -22q0 -8 1 -11v-3v-1v-1v-2v-5v-22l1 -44l2 -176l3 -351
q1 -6 -3.5 -10.5t-10.5 -4.5t-10 4.5t-5 10.5zM300 492l-50 -1h-26h-12h-6h-2h-1h-3q-6 -1 -12 -1.5t-12 -2.5t-12 -3.5t-11 -3.5q-12 -4 -22.5 -9.5t-20.5 -12.5q-11 -7 -19.5 -15t-16.5 -17q-16 -19 -26 -41q-10 -19 -16 -45q-6 -24 -9 -48q-2 -13 -2 -25v-25q0 -24 3 -49
q2 -12 4.5 -24t6.5 -23q3 -11 8 -22l10 -22q11 -19 29 -37t38 -28q11 -5 22 -9.5t22 -6.5q6 -2 12 -2.5t11 -1.5q4 -1 12 -1h6h3h1h1h2h3l2 -1h5h11h10.5t10.5 1q22 2 41 6q21 4 39 12q19 7 35 20q13 7 21 -3q8 -12 -3 -21q-18 -12 -42 -22q-11 -5 -22 -8t-22 -5
q-23 -5 -46 -6h-22h-12q-2 0 -2.5 0.5t-2.5 0.5h-3h-2h-1h2h-2h-2h-3h-7q-4 1 -7 1t-7 1q-6 1 -12.5 1.5t-13.5 2.5q-13 4 -25.5 8.5t-24.5 11.5q-11 7 -22 14.5t-20 17.5q-19 19 -32 43q-7 12 -11.5 24t-8.5 25q-7 23 -10 51q-3 25 -3 51t3 52q3 28 10 51q4 12 8.5 24.5
t10.5 23.5q5 12 12.5 22.5t16.5 21.5q8 10 18 18.5t21 15.5q22 16 47 23q6 2 12 3.5t13 3.5q6 2 12.5 2.5t13.5 1.5h3h2h2h6h12h26l50 -1q6 0 6 -6t-6 -6z" />
    <glyph glyph-name="A" unicode="A" horiz-adv-x="484" 
d="M-24 2l244 703q1 3 4 5t7 0q5 -2 5 -5l243 -700q5 -14 -9 -19q-5 -2 -10.5 0.5t-7.5 8.5l-232 704h16l-233 -707q-2 -5 -7.5 -8t-10.5 -1q-14 5 -9 18v1zM411 141l-318 6q-8 0 -8 9t8 9l318 5q6 1 10.5 -3.5t4.5 -10.5q0 -13 -14 -15h-1z" />
    <glyph glyph-name="B" unicode="B" horiz-adv-x="484" 
d="M320 411l2 1l2 2q2 0 4 2q6 4 8 5q4 3 7.5 6t7.5 7q15 15 23 30q10 18 14 35q2 10 3.5 19t1.5 19q0 20 -3.5 39t-12.5 36q-7 15 -21 31q-11 13 -29 24q-8 5 -17 9t-18 7q-18 6 -38 9q-9 1 -18.5 1.5t-20.5 0.5h-40l-162 -3l10 11l2 -702l-13 12l108 1h53h27h14h3h3h6
q54 3 99 25q22 10 42 27q10 8 18.5 17t15.5 20q14 18 22 44q8 23 6 48q-1 12 -3 24.5t-7 23.5q-9 21 -26 42q-14 18 -36 34q-21 15 -44 25t-48 14.5t-51 4.5q-6 0 -10.5 4t-4.5 11q0 6 4.5 10t10.5 4q59 0 110 -22q13 -6 25.5 -13t23.5 -15q24 -17 42 -39q17 -22 30 -50
q10 -27 12 -57q0 -14 -1.5 -28.5t-6.5 -28.5q-8 -26 -26 -52q-17 -24 -39 -42q-23 -18 -48 -30q-51 -24 -108 -27h-7h-4h-3h-14h-27h-53h-108q-12 0 -12 13l2 702q0 11 10 11l163 1l40 1q21 0 42 -3q11 -2 21 -4.5t21 -5.5q21 -8 38 -18q19 -12 34 -28q13 -17 24 -36
q5 -10 8 -20t5 -21q4 -19 4 -42q-2 -23 -6 -42q-3 -11 -7 -21t-9 -19q-10 -19 -27 -34l-7.5 -7.5t-8.5 -6.5l-9 -6q-2 -1 -2.5 -1.5t-2.5 -1.5l-2 -1l-2 -1q-8 -5 -12 3q-2 3 -1 6.5t4 5.5z" />
    <glyph glyph-name="C" unicode="C" horiz-adv-x="536" 
d="M497 83q-32 -36 -72 -60q-40 -25 -88 -33q-46 -9 -94 2q-45 10 -86 37q-20 13 -37.5 29t-32.5 34q-30 37 -49 80q-40 87 -38 182q0 49 10 93q9 47 30 89q20 44 51 79q29 37 71 63q40 25 89 36q12 2 24 3t24 1t24 -1t24 -3q49 -11 89 -36q20 -13 38 -29t34 -34
q4 -5 3.5 -11t-5.5 -10q-11 -9 -20 2q-27 33 -65 58q-36 24 -79 33q-11 2 -21.5 3t-21.5 2q-11 0 -21.5 -1t-21.5 -3q-42 -7 -81 -32q-38 -24 -66 -56q-28 -34 -48 -74q-20 -42 -29 -84q-5 -22 -7.5 -44t-3.5 -44q0 -23 1.5 -45t6.5 -44q9 -45 27 -85q9 -20 20.5 -39.5
t25.5 -36.5t30 -32t35 -28q18 -12 38 -21t42 -14q44 -11 88 -3q22 3 42.5 11t39.5 19q38 22 69 56q5 5 10 1q5 -5 1 -10z" />
    <glyph glyph-name="D" unicode="D" horiz-adv-x="474" 
d="M19 699l2 -702l-9 11l3 -1h2l5 -1q2 0 4.5 -0.5t4.5 -0.5q5 -1 9.5 -1t9.5 -1q9 -1 18.5 -1h19.5q39 0 75 6q19 3 37.5 7.5t35.5 11.5t34 16t32 20q30 22 52 52q24 32 37 65q8 17 12.5 35t8.5 37t5.5 37.5t2.5 37.5t0 39v18.5t-1 19.5q-2 19 -4 37.5t-7 37.5
q-8 38 -23 71q-15 34 -39 63q-25 28 -56 46q-16 10 -33 16t-35 11q-19 4 -37 6t-37 1h-19t-19 -2q-5 -1 -9 -1t-9 -2q-2 0 -4.5 -0.5t-4.5 -0.5q-2 -1 -5 -1l-2 -1h-2q-6 -2 -11 1.5t-7 8.5q-2 6 1.5 11t9.5 7h1l1 1h3q2 1 5 1q2 1 5 1t5 1q5 1 10 1.5t10 1.5q10 1 20 1.5
t20 0.5q40 0 81 -9t76 -30t63 -53q25 -32 42 -69q16 -36 25 -77q4 -20 6.5 -39t4.5 -39q0 -11 0.5 -20.5t0.5 -19.5v-40q-2 -20 -3.5 -39.5t-6.5 -39.5q-4 -20 -9 -39t-13 -38q-8 -18 -18 -35.5t-22 -34.5q-25 -31 -58 -56q-34 -25 -71 -38q-20 -8 -39 -12.5t-39 -8.5
q-39 -6 -79 -6q-10 0 -20 0.5t-20 1.5q-5 1 -10 1t-10 1q-2 1 -4.5 1t-5.5 1h-5l-2 1h-3q-9 2 -9 11h1l2 702q0 9 8 9q9 0 9 -9z" />
    <glyph glyph-name="E" unicode="E" horiz-adv-x="350" 
d="M301 693l-288 -1l10 10l4 -702l-14 13l315 1q6 0 10.5 -4t4.5 -10t-4 -10.5t-10 -4.5h-1l-315 2q-13 0 -13 13l3 702q0 10 10 10l288 -1q9 0 9 -9t-9 -9zM164 356h-149q-10 0 -10 10t10 10h149q10 0 10 -10t-10 -10z" />
    <glyph glyph-name="F" unicode="F" horiz-adv-x="257" 
d="M305 693l-288 -2l11 11l4 -702q0 -6 -4.5 -10.5t-10.5 -4.5t-10 4.5t-4 10.5l4 702q0 10 10 10l288 -1q9 0 9 -9t-9 -9zM178 356h-159q-10 0 -10 10t10 10h159q10 0 10 -10t-10 -10z" />
    <glyph glyph-name="G" unicode="G" 
d="M490 601q-29 35 -67 58q-19 12 -39.5 20.5t-42.5 12.5q-43 9 -87 1q-45 -9 -82 -33q-19 -12 -35.5 -26.5t-31.5 -31.5q-30 -36 -47 -75q-10 -20 -17 -41t-12 -44q-10 -41 -10 -88q0 -46 9 -89q9 -45 27 -85q10 -20 21.5 -39t25.5 -36t30 -32t35 -27q38 -25 79 -34
q41 -10 87 -2q21 3 41.5 11t39.5 19q37 22 66 56l-3 -8l-1 263l14 -14l-166 -1q-6 0 -10 4.5t-4 10.5q0 14 14 14h166q6 0 10 -4.5t4 -9.5l-1 -263v-1q0 -5 -3 -8q-30 -34 -74 -61q-41 -24 -89 -32q-24 -5 -48.5 -3.5t-47.5 6.5q-48 11 -87 38q-41 28 -69 64q-29 36 -49 81
q-20 43 -29 89t-8 93q0 44 11 93q5 23 12.5 45t18.5 43q19 42 51 78q30 36 71 62q43 25 87 34q23 5 47 4.5t47 -5.5t45 -14t42 -22q39 -24 70 -62q4 -6 -1 -10q-6 -6 -10 1z" />
    <glyph glyph-name="H" unicode="H" horiz-adv-x="371" 
d="M345 702l6 -702q0 -6 -4.5 -10.5t-10.5 -4.5t-10 4.5t-4 10.5l6 702q0 9 8 9q9 0 9 -9zM24 702l6 -702q0 -6 -4.5 -10.5t-10.5 -4.5t-10 4.5t-4 10.5l6 702q0 9 8 9q9 0 9 -9zM279 356h-259q-10 0 -10 10t10 10h259q10 0 10 -10t-10 -10z" />
    <glyph glyph-name="I" unicode="I" horiz-adv-x="82" 
d="M37 702l6 -702q0 -6 -4.5 -10.5t-10.5 -4.5t-10 4.5t-4 10.5l6 702q0 9 8 9q9 0 9 -9z" />
    <glyph glyph-name="J" unicode="J" horiz-adv-x="371" 
d="M17 708h324q9 0 9 -9l-1 -276v-276v1v-1v-1v-3q0 -2 1 -4v-9q-1 -4 -1 -8t-1 -9q-2 -18 -7 -34q-4 -14 -14 -31q-9 -15 -22 -28q-14 -13 -29 -20q-13 -8 -32 -13q-9 -2 -17.5 -3.5t-16.5 -3.5q-9 -1 -17.5 -1h-16.5q-35 0 -68 12q-17 6 -31 16q-14 8 -27 23t-21 29
q-4 8 -7.5 16t-5.5 16q-3 8 -4.5 16.5t-3.5 17.5q-1 4 -1 8t-1 9v9v4v2v2v1q0 6 4.5 10t10.5 4q14 -2 14 -15v-1v-1v-1v-1v-4v-8q0 -10 1 -15q2 -16 6 -29q8 -30 27 -52q5 -6 10.5 -10.5t11.5 -9.5q6 -4 12.5 -7.5t13.5 -5.5q30 -11 59 -11q32 -2 61 6q8 2 15 4.5t13 6.5
q13 6 24 17q6 5 10.5 10.5t8.5 11.5q4 7 7 13.5t6 13.5q4 15 6 30q1 5 1 15v8v3v2v2v1l2 276l3 276l8 -9h-324q-8 0 -8 9t8 9z" />
    <glyph glyph-name="K" unicode="K" horiz-adv-x="484" 
d="M22 702l6 -702q0 -6 -4.5 -10.5t-10.5 -4.5t-10 4.5t-4 10.5l6 702q0 9 8 9q9 0 9 -9zM441 687l-348 -467q-4 -6 -10 -2t-2 10l337 476q3 5 9 6t11 -2q5 -4 6 -9.5t-3 -10.5v-1zM232 406q-2 0 -2 -3l-3 -3q-2 -4 -4 -7t-3.5 -6.5t-3.5 -7.5q-3 -7 -5.5 -14t-4.5 -15
q-3 -13 -1 -30q3 -17 11 -27q2 -5 9 -12q1 -2 5 -6l6 -6l24 -23l47 -47l190 -189q9 -11 0 -20q-10 -10 -21 -1v1l-185 192l-47 48l-23 24l-6 6q-2 2 -3 3.5t-3 3.5q-7 7 -11 15q-10 16 -12 35q-2 9 -1.5 18.5t2.5 18.5q2 8 5 16.5t7 16.5q2 5 4.5 8.5t4.5 7.5q1 2 2 3.5
t2 3.5q1 1 1.5 2t1.5 2l3 3q5 7 12 2q8 -6 2 -13z" />
    <glyph glyph-name="L" unicode="L" horiz-adv-x="360" 
d="M22 702l4 -702l-13 12l348 2q6 0 10.5 -4t4.5 -10t-4 -10.5t-10 -4.5h-1l-348 2q-12 0 -12 13l4 702q0 9 8 9q9 0 9 -9z" />
    <glyph glyph-name="M" unicode="M" horiz-adv-x="572" 
d="M101 590l198 -406h-19l221 523q5 12 18 7q8 -3 8 -12l1 -702q0 -6 -4.5 -10.5t-10.5 -4.5t-10 4.5t-4 10.5l1 702l26 -5l-227 -521q-3 -10 -14 -6q-3 2 -5 5l-195 407q-4 8 5 12q7 4 11 -4zM24 702l6 -702q0 -6 -4.5 -10.5t-10.5 -4.5t-10 4.5t-4 10.5l6 702q0 9 8 9
q9 0 9 -9z" />
    <glyph glyph-name="N" unicode="N" horiz-adv-x="433" 
d="M1 0l-2 702q0 11 10 11q6 0 10 -6l386 -701l-24 -6l5 702q0 7 7 7q8 0 8 -7l5 -702q0 -13 -13 -13q-8 0 -11 7l-382 703l20 5l-2 -702q0 -9 -9 -9q-8 0 -8 9z" />
    <glyph glyph-name="O" unicode="O" 
d="M253 -12q-52 0 -101 29q-23 14 -43 33.5t-38 44.5q-35 51 -54.5 117t-19.5 138t19.5 137.5t54.5 117.5q36 49 81 78q49 29 101 29t101 -29q46 -28 82 -78q35 -52 54 -117.5t19 -137.5t-19 -138t-54 -117q-18 -25 -38.5 -44.5t-43.5 -33.5q-49 -29 -101 -29zM253 692
q-49 0 -92 -27t-75 -73.5t-50.5 -109t-18.5 -132.5q0 -71 18.5 -133t50.5 -108.5t75 -73.5t92 -27t92 27t75 73.5t50.5 108.5t18.5 133q0 70 -18.5 132.5t-50.5 109t-75 73.5t-92 27z" />
    <glyph glyph-name="P" unicode="P" horiz-adv-x="386" 
d="M82 295h12q9 0 13 1q7 0 13 0.5t13 1.5q13 2 25.5 4.5t25.5 5.5q24 7 48 18q11 5 22 11t22 14q20 15 35 35q16 22 24 44q4 11 6.5 23.5t3.5 25.5q1 6 1 12v13q0 6 -0.5 12.5t-1.5 12.5q-2 12 -5 24t-8 23t-12 21.5t-15 19.5q-18 19 -38 31q-20 13 -46 21q-12 5 -24 8
t-25 6q-13 2 -25.5 3.5t-25.5 3.5q-13 1 -26 1.5t-26 0.5q-6 -1 -12.5 -1h-13.5q-3 0 -6 -0.5t-7 -0.5h-6l-3 -1h-3l11 13l2 -702q0 -6 -4.5 -10.5t-10.5 -4.5t-10 4.5t-4 10.5l1 702q0 11 12 13h3h4q2 1 7 1q3 0 6.5 0.5t6.5 0.5h27q14 0 27 -0.5t27 -1.5q14 -2 27 -3.5
t27 -4.5t26.5 -6.5t25.5 -8.5q14 -5 26 -10.5t24 -12.5q25 -16 44 -36q9 -11 17 -22.5t14 -24.5q11 -27 14 -54q1 -8 1.5 -14.5t0.5 -13.5t-0.5 -13.5t-1.5 -14.5q-3 -27 -12 -54q-5 -13 -12 -25t-15 -23q-19 -23 -40 -39q-23 -17 -48 -27q-13 -6 -25.5 -10t-26.5 -8
q-13 -3 -26 -5.5t-27 -4.5q-7 -1 -13.5 -1.5t-13.5 -0.5q-3 -1 -6.5 -1h-6.5h-14q-10 0 -8 9q0 9 8 9h1z" />
    <glyph glyph-name="Q" unicode="Q" horiz-adv-x="536" 
d="M255 -12q-52 0 -101 29q-23 14 -43 33.5t-38 44.5q-35 51 -54.5 117t-19.5 138t19.5 137.5t54.5 117.5q36 49 81 78q49 29 101 29t101 -29q46 -28 82 -78q35 -52 54 -117.5t19 -137.5t-19 -138t-54 -117q-18 -25 -38.5 -44.5t-43.5 -33.5q-49 -29 -101 -29zM255 692
q-49 0 -92 -27t-75 -73.5t-50.5 -109t-18.5 -132.5q0 -71 18.5 -133t50.5 -108.5t75 -73.5t92 -27t92 27t75 73.5t50.5 108.5t18.5 133q0 70 -18.5 132.5t-50.5 109t-75 73.5t-92 27zM381 -136q-2 0 -3 1l-236 88q-10 2 -6 12q3 10 13 6l236 -88q9 -4 6 -13q-3 -6 -10 -6z
" />
    <glyph glyph-name="R" unicode="R" horiz-adv-x="407" 
d="M2 0l-2 702q0 8 8 10l3 1l4 1l6 1q3 1 6 1t7 1q6 1 12.5 1.5t12.5 1.5q13 2 25.5 2.5t26.5 1.5h25.5t25.5 -2q29 -2 52 -7q13 -3 25.5 -7t24.5 -9q24 -11 45 -27q22 -19 36 -41q14 -23 20 -49t6 -52q0 -13 -1 -26t-3 -26t-6.5 -25.5t-9.5 -24.5q-13 -25 -30 -44
q-19 -19 -43 -31t-49 -18q-25 -4 -52 -6h-26q-8 0 -13 1q-4 0 -6 1h-3h-4l7 11l276 -335q9 -10 -2 -21q-5 -4 -11 -3.5t-10 5.5v1l-264 345q-4 6 1 9q4 2 5 1h3h3q2 -1 7 -1q8 0 12 -1h12t13 1q12 0 24.5 2t23.5 4q24 6 46 17q24 13 39 29q8 8 15 18t12 21t8 23t5 24t3 24
t1 25q0 24 -6 48q-6 26 -19 44q-12 19 -31 35q-18 14 -42 25q-11 5 -22.5 8t-23.5 6q-24 4 -49 6q-13 1 -25 1.5t-25 -0.5q-12 0 -24.5 -1t-24.5 -3q-7 -1 -13 -1.5t-12 -1.5q-8 -2 -12 -2l-6 -1l-3 -1l-3 -1l8 11l-2 -702q0 -9 -9 -9q-8 0 -8 9z" />
    <glyph glyph-name="S" unicode="S" horiz-adv-x="433" 
d="M390 525q0 27 -9 51q-5 12 -11 23.5t-14 22.5q-16 21 -37 36q-20 14 -46 24q-52 17 -103 7q-13 -2 -25 -6.5t-24 -9.5q-11 -6 -22 -13.5t-20 -16.5q-21 -19 -32 -40q-14 -23 -18 -48q-1 -7 -1.5 -13t-1.5 -13v-3v-3q0 -5 1 -7v-13q2 -13 4.5 -25.5t7.5 -24.5
q2 -5 5 -10.5t7 -10.5t8 -9.5t9 -8.5q9 -8 20.5 -14t23.5 -10q12 -5 25 -8t26 -5q14 -2 27 -4t27 -4q29 -3 55 -10q29 -7 53 -19q14 -8 25 -16q12 -9 21 -21q9 -10 17 -25q3 -7 6 -13.5t5 -13.5q5 -14 6.5 -28t3.5 -28q0 -10 1 -14v-15q-1 -7 -1.5 -14t-2.5 -15
q-5 -29 -20 -55q-7 -13 -16 -24t-20 -21t-22.5 -18.5t-24.5 -14.5q-26 -13 -55 -19q-8 -2 -14.5 -2.5t-14.5 -1.5h-7h-4h-4h-7q-5 0 -7 1q-30 2 -57 12q-14 5 -27 11.5t-24 15.5q-26 18 -42 40q-9 12 -16 25t-12 27q-10 27 -10 58q0 6 4 10.5t10 4.5t10.5 -4.5t4.5 -10.5
q0 -12 1.5 -24.5t6.5 -24.5q7 -22 23 -44q16 -21 36 -35q10 -8 21.5 -13.5t22.5 -10.5q50 -17 101 -8q12 2 24.5 6t23.5 10q21 10 42 29q20 18 31 39q14 23 18 47q3 12 3 25v13v6.5t-1 6.5q-1 14 -2.5 26.5t-5.5 24.5q-7 24 -23 44q-14 18 -38 31q-22 12 -49 18
q-13 3 -26 5.5t-26 4.5q-14 2 -27.5 4.5t-27.5 4.5t-27 5.5t-27 8.5q-7 2 -13.5 4.5t-13.5 6.5l-12 8t-12 9q-12 11 -20 22q-10 14 -14 25q-6 14 -8.5 28.5t-4.5 28.5v6.5t-1 7.5v7v3v4q1 8 1.5 14.5t2.5 14.5q4 28 20 53q15 25 36 45q22 20 47 32q25 13 54 18q28 6 56 3
q29 -2 56 -12q28 -11 50 -27q11 -8 21.5 -18t18.5 -22q18 -22 27 -50q9 -27 9 -56q0 -8 -8 -8q-7 0 -7 8z" />
    <glyph glyph-name="T" unicode="T" horiz-adv-x="371" 
d="M194 702l5 -702q0 -6 -4 -10.5t-10 -4.5t-10.5 4.5t-4.5 10.5l6 702q0 9 9 9t9 -9zM367 692h-380q-10 0 -10 10t10 10h380q10 0 10 -10t-10 -10z" />
    <glyph glyph-name="U" unicode="U" 
d="M22 708v-417v-13v-7v-3v-3q0 -6 0.5 -12.5t1.5 -12.5q1 -13 3.5 -25t5.5 -24q15 -50 45 -90q16 -20 34.5 -36.5t41.5 -27.5q20 -12 46 -18q22 -7 49 -7q13 0 25 1t24 4q23 6 47 17q44 22 77 63q32 39 47 88q7 22 10 49q2 6 2 12.5t1 12.5v13v13v417q0 10 10 10t10 -10
v-417v-13v-14q-1 -7 -1.5 -13t-1.5 -13q-3 -25 -11 -53q-8 -26 -21 -50t-30 -45q-34 -44 -83 -68q-24 -12 -51 -18t-54 -6q-14 0 -27.5 2t-26.5 5q-25 7 -51 20q-24 13 -44.5 31t-37.5 39q-33 43 -48 96q-4 13 -6 26t-4 27q-1 7 -1.5 13.5t-0.5 13.5v3v3v7v13v417
q0 10 10 10t10 -10z" />
    <glyph glyph-name="V" unicode="V" horiz-adv-x="438" 
d="M-3 703l249 -702l-28 -1l218 702q4 10 11 6q10 -2 6 -11l-207 -705q-2 -6 -7 -9t-11 -1q-7 2 -9 9l-238 706q-3 7 5 11q8 2 11 -5z" />
    <glyph glyph-name="W" unicode="W" horiz-adv-x="566" 
d="M184 704l215 -704l-28 -1l187 705q4 9 11 6q10 -2 6 -10l-176 -708q-2 -6 -7 -9t-11 -1q-8 2 -10 10l-203 707q-2 9 6 11t10 -6zM4 704l214 -704l-28 -1l62 219q2 9 11 7q7 -4 6 -11l-50 -222q-4 -13 -18 -11q-8 3 -10 11l-203 707q-4 9 6 11q8 2 10 -6z" />
    <glyph glyph-name="X" unicode="X" horiz-adv-x="427" 
d="M419 702l-404 -703q-7 -13 -19 -6q-5 3 -7 9t1 11l417 697q3 5 10 2q5 -4 2 -10zM9 710l416 -697q7 -13 -5 -20q-11 -7 -20 5v1l-403 703q-3 6 2 10q6 3 10 -2z" />
    <glyph glyph-name="Y" unicode="Y" horiz-adv-x="417" 
d="M-24 704l249 -393h-25l217 393q4 8 12 4q7 -5 4 -12l-208 -399q-7 -13 -19 -6q-4 1 -6 5l-238 399q-2 3 -1 6.5t4 5.5q8 4 11 -3zM212 -9q-6 0 -10 4.5t-4 10.5v298q0 14 14 14q6 0 10.5 -4t4.5 -10v-298q0 -6 -4.5 -10.5t-10.5 -4.5z" />
    <glyph glyph-name="Z" unicode="Z" horiz-adv-x="458" 
d="M24 709l395 2q9 0 9 -9q0 -3 -1 -5l-406 -697l-11 18l438 2q14 0 14 -14q0 -6 -4 -10.5t-10 -4.5l-438 2q-13 0 -13 13q0 2 2 6l413 694l7 -13l-395 2q-7 0 -7 7t7 7z" />
    <glyph glyph-name="zero" unicode="0" horiz-adv-x="466" 
d="M220 -10q-45 0 -87 30q-20 14 -37 33.5t-32 44.5q-30 52 -46 118t-16 138t16 138t46 117q31 53 69 79q42 30 87 30q46 0 87 -30q41 -28 69 -79q31 -51 47 -117t16 -138t-16 -138t-47 -118q-29 -50 -69 -78q-41 -30 -87 -30zM220 698q-39 0 -74.5 -25.5t-63.5 -73.5
q-29 -49 -44.5 -112t-15.5 -133t15.5 -133t44.5 -112q28 -48 63.5 -73.5t74.5 -25.5t75 25.5t64 73.5q29 49 44.5 112t15.5 133t-15.5 133t-44.5 112q-28 48 -64 73.5t-75 25.5z" />
    <glyph glyph-name="one" unicode="1" horiz-adv-x="222" 
d="M-8 585l123 124q9 9 18 0q4 -4 4 -10l1 -698q0 -6 -4 -10.5t-10 -4.5t-10.5 4.5t-4.5 10.5l2 698l22 -10l-129 -117q-7 -5 -13 1q-5 6 1 12z" />
    <glyph glyph-name="two" unicode="2" horiz-adv-x="422" 
d="M-8 593q1 2 3 4q0 1 2 5q2 2 2.5 4t2.5 4q2 4 5 7.5t6 7.5q6 8 12 15t13 13q30 28 65 40q9 4 18.5 6t18.5 4q22 3 38 2q39 0 75 -15q35 -13 65 -40q14 -14 25.5 -29.5t19.5 -32.5q9 -17 14.5 -35t9.5 -37q2 -10 2.5 -19t1.5 -19q0 -5 0.5 -9.5t0.5 -9.5q-1 -5 -1 -9.5
v-9.5q-2 -19 -6 -37.5t-10 -36.5q-12 -36 -30 -69q-17 -31 -41 -63q-11 -15 -23 -29.5t-25 -28.5q-49 -53 -109 -101q-14 -12 -28.5 -23t-30.5 -22q-15 -12 -30 -21q-4 -3 -8 -5.5t-8 -5.5l-8 -5l-4 -2l-4 -3l-7 27h365q14 0 14 -14q0 -6 -4 -10.5t-10 -4.5h-365
q-6 0 -10.5 4.5t-4.5 10.5q0 8 7 12h1l3 3l4 2l8 5l15 9l30 21q29 19 58 43q29 23 56 47t52 50q12 14 23.5 27.5t22.5 27.5t21 29t19 31q19 33 30 65q12 33 15 69q1 5 1 9v8v18q-1 9 -1.5 18t-2.5 17q-4 35 -21 67q-15 32 -40 57q-26 25 -59 38q-16 7 -33.5 10t-34.5 4
q-9 1 -18 0.5t-17 -1.5q-17 -3 -34 -9q-35 -13 -60 -36q-12 -11 -24 -26q-7 -7 -11 -14l-2 -4l-2 -4l-3 -3q0 -2 -2 -4q-2 -6 -9 -4q-6 3 -4 10z" />
    <glyph glyph-name="three" unicode="3" horiz-adv-x="460" 
d="M5 528q0 15 3 29q2 8 3.5 14.5t4.5 14.5q11 29 30 49q18 22 43 38q12 8 25 14t27 11t28.5 7t28.5 4q27 3 57 -2q29 -5 56 -15q14 -6 26.5 -13t23.5 -16t21.5 -19.5t18.5 -22.5q18 -26 25 -54q7 -27 4 -58q-5 -30 -18 -57q-14 -27 -36 -46q-11 -11 -22.5 -19t-24.5 -15
q-53 -27 -112 -27v22h7h4h4q10 0 15 -1q8 -1 14.5 -1.5t14.5 -2.5q28 -6 57 -20q28 -14 50 -33q11 -11 21 -22.5t18 -25.5q16 -28 20 -58q2 -15 2 -30.5t-4 -30.5q-3 -16 -9.5 -30t-14.5 -27q-18 -26 -42 -45q-11 -10 -24.5 -17.5t-27.5 -13.5q-28 -13 -58 -17
q-8 -2 -15 -2.5t-15 -1.5h-7h-4h-4h-7q-2 0 -4 0.5t-4 0.5q-29 1 -59 11q-30 9 -56 25q-13 8 -24.5 18t-21.5 22q-20 22 -33 52q-5 15 -8.5 30.5t-3.5 31.5q0 6 4.5 10t10.5 4q14 0 14 -14t2.5 -26.5t7.5 -24.5t12 -23t15 -22q9 -10 19 -18.5t21 -15.5q23 -15 49 -23
q53 -17 107 -8q29 5 52 15q24 10 46 27q23 18 37 39q7 11 12.5 23t8.5 25q6 27 2 53q-2 13 -6 25.5t-11 23.5q-14 25 -34 42q-19 17 -44 30q-23 12 -52 18q-6 2 -12.5 3t-14.5 1q-3 1 -6.5 1h-6.5l-4 1h-3h-7q-11 0 -11 11t11 11q55 0 102 24q25 13 43 30q10 9 17.5 19.5
t14.5 21.5q11 21 16 49q3 26 -3 52q-8 26 -22 47q-16 22 -36 38q-21 16 -45 27q-13 5 -25.5 8.5t-26.5 5.5q-52 9 -105 -8q-13 -4 -25.5 -9.5t-23.5 -12.5q-23 -16 -40 -35q-8 -10 -15 -21t-12 -23q-10 -24 -10 -52q0 -7 -8 -7t-8 7z" />
    <glyph glyph-name="four" unicode="4" horiz-adv-x="374" 
d="M312 -3l6 704l16 -5l-315 -466l-11 21l252 -6q7 0 7 -7q0 -8 -7 -8l-252 -5q-13 0 -13 12q0 6 2 8l323 461q4 8 12 2q4 -4 4 -7l5 -704q0 -6 -4 -10.5t-10 -4.5t-10.5 4.5t-4.5 10.5z" />
    <glyph glyph-name="five" unicode="5" horiz-adv-x="520" 
d="M415 690q-21 0 -41.5 0.5t-41.5 0.5l-83 1h-83l-83 1l8 6l-15 -67q-4 -17 -7.5 -34t-7.5 -34l-28 -135l-13 10q2 1 3 1t2 1l5 2q6 2 9 4q5 2 10 3t10 3q9 3 18.5 6t20.5 5q20 5 39.5 9.5t39.5 6.5t40.5 3t41.5 -1q42 -3 81 -16q10 -4 19 -8.5l19 -9.5q16 -9 34 -24l7 -7
l2 -2l2 -2l4 -4q3 -4 6.5 -7.5t6.5 -7.5q15 -18 24 -34q22 -35 30 -78q8 -44 2 -83q-2 -21 -8 -41t-14 -39q-4 -10 -8.5 -19.5t-10.5 -17.5q-5 -9 -11 -18t-14 -17q-15 -15 -34 -26q-18 -12 -38 -18q-20 -8 -41 -11t-42 -4q-42 -1 -82 9q-20 5 -39.5 12t-38.5 16t-36 20
t-34 23q-35 25 -62 54q-5 4 -5 9.5t5 10.5q9 11 20 0q14 -14 28.5 -27t30.5 -24q31 -25 65 -41q34 -18 72 -27q37 -9 76 -9q40 2 74 13q19 6 34 16q18 10 29 22q6 6 11.5 13.5t10.5 15.5t9.5 17l8.5 17q15 36 21 74q2 19 2 38t-4 38q-6 37 -26 71q-5 8 -10.5 15.5
t-11.5 15.5q-3 4 -6 7.5t-6 6.5l-4 4l-1 2l-2 1q-3 4 -7 7q-27 25 -65 38q-17 7 -36 10.5t-39 5.5q-19 2 -38.5 1t-39.5 -3t-38.5 -5.5t-38.5 -8.5q-10 -2 -19 -4.5t-19 -5.5q-5 -2 -9 -3.5t-9 -3.5q-4 -1 -10 -3l-4 -2q-2 0 -2.5 -0.5t-2.5 -0.5q-3 -2 -6.5 -0.5t-4.5 4.5
q-1 2 -1 6l30 135q4 17 7.5 33.5t7.5 33.5l15 68q2 6 8 6h83l83 1l83 1h41.5t41.5 1q11 0 11 -11t-11 -11z" />
    <glyph glyph-name="six" unicode="6" horiz-adv-x="531" 
d="M459 562q-1 1 -1 2t-0.5 1.5t-0.5 1.5l-3 6l-6 12q-3 5 -6.5 10.5t-7.5 10.5q-16 20 -38 36q-20 14 -46 25q-23 9 -50 15q-28 5 -53 5q-3 0 -6.5 0.5t-6.5 0.5q-9 0 -13 -1q-7 0 -13.5 -0.5t-12.5 -1.5q-13 -3 -25 -7t-23 -10q-23 -14 -41 -32q-17 -20 -30 -43
q-12 -23 -21 -48q-8 -25 -13.5 -51.5t-9.5 -52.5q-6 -54 -6 -107q0 -14 0.5 -27t1.5 -27q1 -7 1 -13.5t1 -13.5q0 -4 0.5 -7t0.5 -7l1 -6q0 -5 1 -7v-1q0 -38 14 -75q8 -17 17.5 -33.5t23.5 -30.5q27 -30 60 -46q17 -9 35 -15.5t37 -8.5q19 -3 38 -3t39 3q36 6 71 25
q34 18 60 47q25 28 39 65q13 35 13 74q0 10 -1 19t-3 19q-2 9 -4.5 18t-6.5 18q-15 33 -41 63q-27 28 -60 45q-34 18 -72 23q-5 1 -9.5 1.5t-9.5 0.5q-3 1 -9 1h-5h-1h-1h-2q-5 0 -9.5 -0.5t-9.5 -1.5t-9.5 -1.5t-9.5 -1.5q-40 -10 -70 -28q-16 -10 -29.5 -22.5t-24.5 -28.5
q-4 -5 -9.5 -6t-10.5 3t-6.5 9.5t2.5 10.5q11 17 29 33q16 15 34 25q36 21 79 31q5 2 10.5 2.5t10.5 1.5t10.5 1t10.5 1h3h2h1h5q3 0 5.5 -0.5t5.5 -0.5q5 0 10.5 -0.5t10.5 -1.5q41 -6 81 -26q19 -11 36 -23.5t31 -28.5t25.5 -33.5t19.5 -37.5q17 -42 17 -84q0 -23 -4 -42
q-3 -20 -11 -41q-17 -41 -45 -72q-27 -32 -66 -52q-36 -20 -79 -28q-21 -3 -42 -3q-23 0 -42 3q-43 8 -80 27q-36 19 -66 52q-28 31 -45 71q-15 39 -15 83v-2q0 5 -1 7v7q-1 4 -1 7.5t-1 6.5q0 7 -0.5 13.5t-0.5 14.5q-1 14 -1.5 27.5t-0.5 27.5q0 27 1.5 54.5t5.5 55.5
q3 27 9 54t15 54q10 27 23 51q7 12 15 23.5t18 22.5q19 20 45 35q13 7 27 12t28 7q13 3 28 3h14h14q14 -1 27.5 -2.5t27.5 -4.5q14 -2 27.5 -6.5t26.5 -9.5q25 -10 50 -27q11 -8 21.5 -18t18.5 -21q5 -6 9 -12t7 -12q2 -3 3.5 -6.5t3.5 -6.5q2 -4 2 -7q1 -1 1 -1.5t1 -1.5
q0 -1 0.5 -1.5t0.5 -2.5q2 -8 -6 -10q-3 -2 -6 0t-4 5v1z" />
    <glyph glyph-name="seven" unicode="7" horiz-adv-x="412" 
d="M-2 708l393 -2q9 0 9 -9v-4l-278 -702q-2 -5 -7.5 -7.5t-10.5 -0.5q-6 2 -8.5 8t-0.5 11l287 698l9 -13l-393 -1q-11 0 -11 11t11 11z" />
    <glyph glyph-name="eight" unicode="8" horiz-adv-x="460" 
d="M219 -6q-44 0 -83 15t-70 42q-65 57 -65 139q0 39 16.5 75t48.5 64q31 27 70 41.5t83 14.5t83 -14.5t70 -41.5q32 -28 48 -64t16 -75q0 -40 -16 -75.5t-48 -63.5q-31 -27 -70 -42t-83 -15zM219 358q-39 0 -74 -13t-61 -36t-41 -53.5t-15 -65.5t15 -65.5t41 -53.5
t61 -36.5t74 -13.5t74 13.5t60.5 36.5t40.5 53.5t15 65.5t-15 65.5t-40.5 53.5t-60.5 36t-74 13zM219 363q-39 0 -74 13.5t-60.5 36.5t-40.5 54t-15 66t15 66t40.5 54.5t60.5 37t74 13.5t74 -13.5t60.5 -37t40.5 -54.5t15 -66t-15 -66t-40.5 -54t-60.5 -36.5t-74 -13.5z
M219 684q-35 0 -66 -12t-54 -32.5t-36.5 -48t-13.5 -58.5t13.5 -58.5t36.5 -47.5t54 -32t66 -12t66 12t54 32t36.5 47.5t13.5 58.5t-13.5 58.5t-36.5 48t-54 32.5t-66 12z" />
    <glyph glyph-name="nine" unicode="9" horiz-adv-x="520" 
d="M428 333q-11 -15 -28 -32q-8 -7 -16 -13.5t-17 -11.5q-36 -21 -77 -30q-5 -2 -10.5 -2.5t-10.5 -1.5t-10.5 -1.5t-10.5 -0.5h-3h-1h-1h-5h-11l-21 3q-43 6 -79 25q-37 19 -66 50q-14 16 -25.5 33.5t-19.5 36.5q-17 40 -17 82q-1 43 14 83q16 41 44 72q14 16 30.5 28.5
t34.5 23.5q19 10 39 17t40 10q40 7 84 1q43 -6 80 -27q18 -10 35 -22.5t31 -28.5t25.5 -33.5t19.5 -37.5t12 -41t4 -42v1q0 -4 1 -7v-6q1 -4 1 -7.5t1 -6.5q0 -7 0.5 -14t1.5 -14q1 -14 1 -27.5v-27.5q1 -55 -6 -110q-3 -29 -9 -55q-6 -27 -15 -54q-9 -28 -22 -52
q-14 -24 -34 -47q-18 -20 -46 -36q-13 -7 -27 -12t-28 -7q-8 -2 -14.5 -2.5t-14.5 -1.5h-7h-4h-3q-10 0 -14 1q-29 0 -56 6q-14 2 -28 6t-27 10q-27 10 -51 27q-26 19 -42 41q-10 12 -17 24q-2 3 -3 6.5t-3 6.5q-1 2 -1.5 3.5t-1.5 3.5q-1 1 -1 2t-1 2v2l-1 1v1q-2 6 1 11
t9 7q13 4 18 -9v-1v-1l1 -2q0 -1 1 -2q0 -2 2 -6q2 -3 3 -5.5t3 -5.5q3 -5 6 -10.5t7 -10.5q8 -10 17 -18.5t20 -16.5q19 -15 44 -24q24 -10 50 -15t52 -6h13h3h3h7q6 0 12.5 0.5t12.5 1.5q25 4 47 17q21 11 40 30q16 19 30 42q12 22 21 48q17 51 23 103q4 26 5.5 53t1.5 54
q0 14 -0.5 27t-1.5 27q0 7 -0.5 13.5t-0.5 13.5q-1 3 -1 6.5t-1 6.5v7q-1 2 -1 6v2q0 38 -14 74q-13 35 -40 65q-26 27 -60 46q-37 19 -72 25q-39 6 -77 0q-37 -6 -72 -25q-33 -17 -61 -47q-25 -28 -39 -65q-8 -18 -11 -37t-3 -38q0 -39 15 -75q13 -36 41 -65q26 -29 61 -46
q17 -9 35 -15.5t38 -8.5q5 -1 9.5 -1.5t9.5 -1.5h10h5h1h1h2q5 0 10 0.5t10 1.5t9.5 1.5t9.5 1.5q19 5 37 11.5t35 16.5q33 19 56 52q4 6 12 2q6 -4 2 -12z" />
    <glyph glyph-name="breve" unicode="&#x2d8;" horiz-adv-x="260" 
d="M111 565q-23 0 -42.5 8.5t-34.5 23.5t-23.5 34.5t-8.5 42.5q0 10 10 10t10 -10q0 -37 26 -63t63 -26t63 26t26 63q0 10 10 10t10 -10q0 -23 -8.5 -42.5t-23.5 -34.5t-35 -23.5t-42 -8.5z" />
    <glyph glyph-name="dotaccent" unicode="&#x2d9;" horiz-adv-x="106" 
d="M46 606q-10 0 -10 10v54q0 10 10 10t10 -10v-54q0 -10 -10 -10z" />
    <glyph glyph-name="ring" unicode="&#x2da;" horiz-adv-x="213" 
d="M89 553q-35 0 -60 25t-25 60t25 60t60 25t60 -25t25 -60t-25 -60t-60 -25zM89 703q-27 0 -46 -19t-19 -46t19 -46t46 -19t46 19t19 46t-19 46t-46 19z" />
    <glyph glyph-name="ogonek" unicode="&#x2db;" horiz-adv-x="219" 
d="M98 -186q-32 0 -55 14q-27 16 -27 44q0 44 38 64q15 8 29 10v59q0 4 3 7t6 3q9 0 9 -10v-67q0 -3 -2 -6t-6 -3q-4 -1 -9 -2t-10.5 -3t-10.5 -4q-28 -15 -28 -48q0 -19 20 -29t43 -10q25 0 41 10t16 29q0 3 3 6t7 3t6.5 -3t2.5 -6q0 -29 -25 -45q-23 -13 -51 -13z" />
    <glyph glyph-name="cedilla" unicode="&#xb8;" horiz-adv-x="204" 
d="M68 -196q-32 0 -55 14q-27 18 -27 48q0 10 10 10t10 -10q0 -19 18 -31q17 -11 44 -11q25 0 46.5 11t21.5 31q0 36 -31 52q-6 3 -11.5 4.5t-10.5 3.5l-10 2q-9 0 -9 10v72q0 10 10 10t10 -10v-64q6 -1 14 -3.5t17 -7.5q41 -21 41 -69q0 -29 -29 -47q-24 -15 -59 -15z" />
    <glyph glyph-name="acute" unicode="&#xb4;" horiz-adv-x="219" 
d="M10 570q-7 0 -10 7q-2 9 7 12l252 90q8 3 12 -6t-6 -13l-252 -90h-3z" />
    <glyph glyph-name="grave" unicode="`" horiz-adv-x="165" 
d="M138 578h-3l-240 72q-9 3 -7 13q4 9 13 6l240 -72q10 -2 6 -12q-2 -7 -9 -7z" />
    <glyph glyph-name="caron" unicode="&#x2c7;" horiz-adv-x="309" 
d="M138 571q-2 0 -6 2l-132 96q-7 5 -2 14q5 7 14 2l126 -92l126 92q8 6 14 -2q5 -9 -2 -14l-132 -96q-4 -2 -6 -2z" />
    <glyph glyph-name="hungarumlaut" unicode="&#x2dd;" horiz-adv-x="438" 
d="M10 570q-7 0 -10 7q-2 9 7 12l252 90q8 3 12 -6t-6 -13l-252 -90h-3zM229 570q-7 0 -10 7q-2 9 7 12l252 90q8 3 12 -6t-6 -13l-252 -90h-3z" />
    <glyph glyph-name="dotlessi" unicode="&#x131;" horiz-adv-x="119" 
d="M50 0l4 261v65l1 33v16v9v7q-1 8 -1.5 15.5t-2.5 15.5t-3.5 15t-4.5 15q-6 14 -16 24q-11 11 -24 14q-8 2 -6 10t10 6q10 -2 17 -6q8 -4 15 -11q13 -14 21 -30q3 -8 5.5 -16.5t4.5 -16.5t3 -16.5t2 -17.5v-8v-9v-16l1 -33v-65l3 -261q1 -6 -3.5 -10.5t-10.5 -4.5t-10 4.5
t-5 10.5z" />
    <glyph glyph-name="quotesingle" unicode="'" horiz-adv-x="81" 
d="M14 448q-10 0 -10 10v174q0 10 10 10t10 -10v-174q0 -10 -10 -10z" />
    <glyph glyph-name="exclam" unicode="!" horiz-adv-x="112" 
d="M48 122q-10 0 -10 10v576q0 10 10 10t10 -10v-576q0 -10 -10 -10zM48 -46q-10 0 -10 10v84q0 10 10 10t10 -10v-84q0 -10 -10 -10z" />
    <glyph glyph-name="ampersand" unicode="&#x26;" horiz-adv-x="489" 
d="M391 690q-8 2 -15 2t-15 1h-30q-15 0 -30 -1t-30 -3q-29 -4 -58 -14q-14 -5 -27 -12t-24 -17l-10 -10t-9 -11q-5 -6 -8 -12t-6 -13q-5 -14 -6 -28q-1 -4 -1 -7.5v-6.5v-8v-7q1 -30 5.5 -59.5t14.5 -58.5q20 -57 57 -103q37 -47 87 -81q24 -17 50.5 -31.5t54.5 -25.5
l28 -10t29 -9q16 -5 28 -8l15 -3q2 -1 3.5 -1t3.5 -1h4q1 0 1.5 -0.5t1.5 -0.5q6 -1 10 -5.5t2 -10.5q-1 -6 -5.5 -10t-10.5 -2h-5l-3 1q-2 1 -4 1t-4 1l-15 3q-8 2 -15.5 4.5t-15.5 4.5q-15 5 -29.5 10.5t-28.5 11.5q-59 24 -109 61q-53 38 -91 87q-9 13 -17.5 26t-15.5 27
q-14 27 -25 58q-10 30 -14.5 61t-4.5 62v8v8q0 5 0.5 8.5t1.5 7.5q1 16 8 32q3 8 7 15t9 13q5 7 10.5 13t11.5 11q12 10 27 18q13 7 29 12q15 5 30 8.5t31 5.5q30 5 62 3h15.5t15.5 -1q14 0 31 -3q6 0 4 -6q0 -5 -6 -5zM186 -15q-69 0 -120 46q-57 50 -62 125q-2 37 9.5 71
t35.5 61q50 57 125 62q6 1 10.5 -3.5t4.5 -10.5q1 -6 -3 -10t-10 -5q-63 -5 -106 -52q-42 -48 -37 -111q2 -31 15.5 -58t36.5 -48q23 -20 51.5 -29.5t59.5 -7.5t58 15.5t47 36.5t30 51.5t8 59.5q0 6 4 10.5t10 4.5q6 1 10 -3t5 -10q5 -76 -45 -132q-24 -28 -56.5 -44
t-68.5 -18q-3 0 -6 -0.5t-6 -0.5z" />
    <glyph glyph-name="dollar" unicode="$" horiz-adv-x="433" 
d="M390 525q0 27 -9 51q-5 12 -11 23.5t-14 22.5q-16 21 -37 36q-20 14 -46 24q-52 17 -103 7q-13 -2 -25 -6.5t-24 -9.5q-11 -6 -22 -13.5t-20 -16.5q-21 -19 -32 -40q-14 -23 -18 -48q-1 -7 -1.5 -13t-1.5 -13v-3v-3q0 -5 1 -7v-13q2 -13 4.5 -25.5t7.5 -24.5
q2 -5 5 -10.5t7 -10.5t8 -9.5t9 -8.5q9 -8 20.5 -14t23.5 -10q12 -5 25 -8t26 -5q14 -2 27 -4t27 -4q29 -3 55 -10q29 -7 53 -19q14 -8 25 -16q12 -9 21 -21q9 -10 17 -25q3 -7 6 -13.5t5 -13.5q5 -14 6.5 -28t3.5 -28q0 -10 1 -14v-15q-1 -7 -1.5 -14t-2.5 -15
q-5 -29 -20 -55q-7 -13 -16 -24t-20 -21t-22.5 -18.5t-24.5 -14.5q-26 -13 -55 -19q-8 -2 -14.5 -2.5t-14.5 -1.5h-7h-4h-4h-7q-5 0 -7 1q-30 2 -57 12q-14 5 -27 11.5t-24 15.5q-26 18 -42 40q-9 12 -16 25t-12 27q-10 27 -10 58q0 6 4 10.5t10 4.5t10.5 -4.5t4.5 -10.5
q0 -12 1.5 -24.5t6.5 -24.5q7 -22 23 -44q16 -21 36 -35q10 -8 21.5 -13.5t22.5 -10.5q50 -17 101 -8q12 2 24.5 6t23.5 10q21 10 42 29q20 18 31 39q14 23 18 47q3 12 3 25v13v6.5t-1 6.5q-1 14 -2.5 26.5t-5.5 24.5q-7 24 -23 44q-14 18 -38 31q-22 12 -49 18
q-13 3 -26 5.5t-26 4.5q-14 2 -27.5 4.5t-27.5 4.5t-27 5.5t-27 8.5q-7 2 -13.5 4.5t-13.5 6.5l-12 8t-12 9q-12 11 -20 22q-10 14 -14 25q-6 14 -8.5 28.5t-4.5 28.5v6.5t-1 7.5v7v3v4q1 8 1.5 14.5t2.5 14.5q4 28 20 53q15 25 36 45q22 20 47 32q25 13 54 18q28 6 56 3
q29 -2 56 -12q28 -11 50 -27q11 -8 21.5 -18t18.5 -22q18 -22 27 -50q9 -27 9 -56q0 -8 -8 -8q-7 0 -7 8zM204 698q-10 0 -10 10v84q0 10 10 10t10 -10v-84q0 -10 -10 -10zM207 -101q-10 0 -10 10v84q0 10 10 10t10 -10v-84q0 -10 -10 -10z" />
    <glyph glyph-name="slash" unicode="/" horiz-adv-x="520" 
d="M-20 -40q-2 0 -6 2q-8 5 -2 14l552 750q5 7 14 2q8 -6 2 -14l-552 -750q-3 -4 -8 -4z" />
    <glyph glyph-name="comma" unicode="," horiz-adv-x="82" 
d="M34 -75q-14 0 -14 10v131q0 10 14 10q5 0 9.5 -3t4.5 -7v-131q0 -5 -4.5 -7.5t-9.5 -2.5z" />
    <glyph glyph-name="period" unicode="." horiz-adv-x="88" 
d="M43 -13q-19 0 -19 9v51q0 3 5.5 6t13.5 3t14 -3t6 -6v-51q0 -4 -6 -6.5t-14 -2.5z" />
    <glyph glyph-name="plus" unicode="+" horiz-adv-x="304" 
d="M260 317h-242q-10 0 -10 10t10 10h242q10 0 10 -10t-10 -10zM139 197q-10 0 -10 10v240q0 10 10 10t10 -10v-240q0 -10 -10 -10z" />
    <glyph glyph-name="hyphen" unicode="-" horiz-adv-x="304" 
d="M260 317h-242q-10 0 -10 10t10 10h242q10 0 10 -10t-10 -10z" />
    <glyph glyph-name="asterisk" unicode="*" horiz-adv-x="314" 
d="M78 466q-3 0 -7 2q-7 7 -1 14l132 156q6 8 14 2q7 -6 2 -15l-132 -156q-3 -3 -8 -3zM210 466q-5 0 -8 3l-132 156q-5 9 1 15q9 5 15 -2l132 -156q6 -8 -2 -14q-4 -2 -6 -2zM240 544h-192q-10 0 -10 10t10 10h192q10 0 10 -10t-10 -10z" />
    <glyph glyph-name="parenleft" unicode="(" horiz-adv-x="216" 
d="M182 -40q-4 0 -7 3q-2 1 -26.5 27.5t-55.5 73.5q-35 57 -56 113q-13 35 -19 70.5t-6 70.5q0 68 23 142q10 29 22.5 57.5t29.5 56.5q28 48 50.5 75.5t24.5 29.5q6 8 14 0q7 -7 0 -14q-12 -12 -23 -27q-11 -14 -23 -32.5t-26 -41.5q-12 -21 -25 -48t-23.5 -58.5t-17 -67
t-6.5 -72.5q0 -38 7 -72.5t18.5 -65.5t25 -57.5t27.5 -47.5q15 -23 29 -40.5t25 -30.5t18 -20l7 -7q7 -7 0 -14q-3 -3 -7 -3z" />
    <glyph glyph-name="parenright" unicode=")" horiz-adv-x="216" 
d="M22 682q4 0 7 -3q2 -1 26.5 -27.5t55.5 -73.5q35 -57 56 -113q13 -35 19 -70.5t6 -70.5q0 -68 -23 -142q-10 -29 -22.5 -57.5t-29.5 -56.5q-28 -48 -50.5 -75.5t-24.5 -29.5q-6 -8 -14 0q-7 7 0 14q10 11 22 27q10 13 23 32t27 42q12 21 25 48t23.5 58.5t17 66.5t6.5 73
q0 37 -7 72t-18.5 66t-25.5 57.5t-27 47.5q-15 22 -29 40t-25 31t-18 20l-7 7q-7 7 0 14q3 3 7 3z" />
    <glyph glyph-name="fraction" unicode="&#x2044;" horiz-adv-x="304" 
d="M-124 -60q-2 0 -6 2q-8 5 -2 14l552 750q5 7 14 2q8 -6 2 -14l-552 -750q-3 -4 -8 -4z" />
    <glyph glyph-name="fraction" unicode="&#x2215;" horiz-adv-x="304" 
d="M-124 -60q-2 0 -6 2q-8 5 -2 14l552 750q5 7 14 2q8 -6 2 -14l-552 -750q-3 -4 -8 -4z" />
    <glyph glyph-name="percent" unicode="%" horiz-adv-x="593" 
d="M118 496q-24 0 -44.5 9t-36 24t-24.5 35.5t-9 44.5t9 44.5t24.5 36t36 24.5t44.5 9t44.5 -9t35.5 -24.5t24 -36t9 -44.5t-9 -44.5t-24 -35.5t-35.5 -24t-44.5 -9zM118 696q-36 0 -61.5 -25.5t-25.5 -61.5t25.5 -61.5t61.5 -25.5t61.5 25.5t25.5 61.5t-25.5 61.5
t-61.5 25.5zM478 3q-24 0 -44.5 9t-36 24t-24.5 35.5t-9 44.5t9 44.5t24.5 36t36 24.5t44.5 9t44.5 -9t35.5 -24.5t24 -36t9 -44.5t-9 -44.5t-24 -35.5t-35.5 -24t-44.5 -9zM478 203q-36 0 -61.5 -25.5t-25.5 -61.5t25.5 -61.5t61.5 -25.5t61.5 25.5t25.5 61.5t-25.5 61.5
t-61.5 25.5zM11 -40q-2 0 -6 2q-8 5 -2 14l552 750q5 7 14 2q8 -6 2 -14l-552 -750q-3 -4 -8 -4z" />
    <glyph glyph-name="perthousand" unicode="&#x2030;" horiz-adv-x="593" 
d="M118 496q-24 0 -44.5 9t-36 24t-24.5 35.5t-9 44.5t9 44.5t24.5 36t36 24.5t44.5 9t44.5 -9t35.5 -24.5t24 -36t9 -44.5t-9 -44.5t-24 -35.5t-35.5 -24t-44.5 -9zM118 696q-36 0 -61.5 -25.5t-25.5 -61.5t25.5 -61.5t61.5 -25.5t61.5 25.5t25.5 61.5t-25.5 61.5
t-61.5 25.5zM398 3q-24 0 -44.5 9t-36 24t-24.5 35.5t-9 44.5t9 44.5t24.5 36t36 24.5t44.5 9t44.5 -9t35.5 -24.5t24 -36t9 -44.5t-9 -44.5t-24 -35.5t-35.5 -24t-44.5 -9zM398 203q-36 0 -61.5 -25.5t-25.5 -61.5t25.5 -61.5t61.5 -25.5t61.5 25.5t25.5 61.5t-25.5 61.5
t-61.5 25.5zM528 3q-24 0 -44.5 9t-36 24t-24.5 35.5t-9 44.5t9 44.5t24.5 36t36 24.5t44.5 9t44.5 -9t35.5 -24.5t24 -36t9 -44.5t-9 -44.5t-24 -35.5t-35.5 -24t-44.5 -9zM528 203q-36 0 -61.5 -25.5t-25.5 -61.5t25.5 -61.5t61.5 -25.5t61.5 25.5t25.5 61.5t-25.5 61.5
t-61.5 25.5zM11 -40q-2 0 -6 2q-8 5 -2 14l552 750q5 7 14 2q8 -6 2 -14l-552 -750q-3 -4 -8 -4z" />
    <glyph glyph-name="semicolon" unicode=";" horiz-adv-x="82" 
d="M30 -70q-10 0 -10 10v126q0 10 10 10t10 -10v-126q0 -10 -10 -10zM29 392q-10 0 -10 10v54q0 10 10 10t10 -10v-54q0 -10 -10 -10z" />
    <glyph glyph-name="colon" unicode=":" horiz-adv-x="82" 
d="M30 0q-10 0 -10 10v56q0 10 10 10t10 -10v-56q0 -10 -10 -10zM29 392q-10 0 -10 10v54q0 10 10 10t10 -10v-54q0 -10 -10 -10z" />
    <glyph glyph-name="fi" unicode="&#xfb01;" horiz-adv-x="219" 
d="M8 2l5 362l1 90l1 45v12t1 11q0 6 0.5 12t1.5 11q2 11 3.5 23t3.5 23t5.5 22t7.5 22q5 11 10 21t13 20q4 5 8 9t9 8q9 8 21 11q5 2 7 -3t-3 -7q-9 -2 -18 -10q-9 -6 -15 -15q-7 -9 -11.5 -18.5t-8.5 -20.5q-4 -10 -6.5 -20.5t-4.5 -21.5q-4 -22 -6 -44q-1 -6 -1 -11.5
v-11.5q-1 -5 -1 -10.5v-11.5l1 -45l1 -90l4 -362q1 -6 -3.5 -10.5t-10.5 -4.5t-10 4.5t-5 10.5zM111 481h-78q-10 0 -10 10t10 10h78q10 0 10 -10t-10 -10zM158.619 0l3.81055 257.719v64.1826l0.952148 32.585v15.7988v8.88672v6.91211q-0.952148 7.89941 -1.42871 15.3047
q-0.476562 7.40625 -2.38086 15.3057q-1.90527 7.89941 -3.33398 14.8115q-1.42773 6.91211 -4.28516 14.8105q-5.71484 13.8242 -15.2383 23.6992q-10.4766 10.8613 -22.8574 13.8232q-7.61914 1.97559 -5.71484 9.87402q1.90527 7.90039 9.52441 5.9248
q9.52344 -1.97461 16.1904 -5.9248q7.61914 -3.94922 14.2861 -10.8613q12.3809 -13.8242 20 -29.623q2.85742 -7.89941 5.23828 -16.292q2.38086 -8.39355 4.28613 -16.293q1.9043 -7.89941 2.85645 -16.292q0.952148 -8.39355 1.90527 -17.2803v-7.89941v-8.88672
v-15.7988l0.952148 -32.585v-64.1826l2.85742 -257.719q0.952148 -5.9248 -3.33398 -10.3682q-4.28516 -4.44336 -10 -4.44336q-5.71387 0 -9.52344 4.44336t-4.7627 10.3682zM172.905 683.299v-47.3965q0 -9.87402 -9.52344 -9.87402q-9.52441 0 -9.52441 9.87402v47.3965
q0 9.875 9.52441 9.875q9.52344 0 9.52344 -9.875z" />
    <glyph glyph-name="fl" unicode="&#xfb02;" horiz-adv-x="185" 
d="M8 2l5 362l1 90l1 45v12t1 11q0 6 0.5 12t1.5 11q2 11 3.5 23t3.5 23t5.5 22t7.5 22q5 11 10 21t13 20q4 5 8 9t9 8q9 8 21 11q5 2 7 -3t-3 -7q-9 -2 -18 -10q-9 -6 -15 -15q-7 -9 -11.5 -18.5t-8.5 -20.5q-4 -10 -6.5 -20.5t-4.5 -21.5q-4 -22 -6 -44q-1 -6 -1 -11.5
v-11.5q-1 -5 -1 -10.5v-11.5l1 -45l1 -90l4 -362q1 -6 -3.5 -10.5t-10.5 -4.5t-10 4.5t-5 10.5zM111 481h-78q-10 0 -10 10t10 10h78q10 0 10 -10t-10 -10zM140 0l4 351l2 176l1 44v22v5v2v-1v1v1v2q-1 4 -1 11q-2 11 -3.5 21.5t-3.5 20.5q-2 5 -3 10.5t-3 10.5q-2 6 -4 9
q-2 4 -5 7q-5 5 0 10t10 0q4 -4 8 -10q2 -3 2.5 -6t2.5 -5q2 -5 3.5 -11t3.5 -11l4 -22l4 -22q0 -8 1 -11v-3v-1v-1v-2v-5v-22l1 -44l2 -176l3 -351q1 -6 -3.5 -10.5t-10.5 -4.5t-10 4.5t-5 10.5z" />
    <glyph glyph-name="Lslash" unicode="&#x141;" horiz-adv-x="360" 
d="M196 343l-210 -121q-8 -6 -13 4q-2 3 -1 7t4 6l210 121q3 2 7 1t6 -5q5 -9 -3 -13zM22 702l4 -702l-13 12l348 2q6 0 10.5 -4t4.5 -10t-4 -10.5t-10 -4.5h-1l-348 2q-12 0 -12 13l4 702q0 9 8 9q9 0 9 -9z" />
    <glyph glyph-name="lslash" unicode="&#x142;" horiz-adv-x="94" 
d="M176 343l-210 -121q-8 -6 -13 4q-2 3 -1 7t4 6l210 121q3 2 7 1t6 -5q5 -9 -3 -13zM26 0l4 351l2 176l1 44v22v5v2v-1v1v1v2q-1 4 -1 11q-2 11 -3.5 21.5t-3.5 20.5q-2 5 -3 10.5t-3 10.5q-2 6 -4 9q-2 4 -5 7q-5 5 0 10t10 0q4 -4 8 -10q2 -3 2.5 -6t2.5 -5
q2 -5 3.5 -11t3.5 -11l4 -22l4 -22q0 -8 1 -11v-3v-1v-1v-2v-5v-22l1 -44l2 -176l3 -351q1 -6 -3.5 -10.5t-10.5 -4.5t-10 4.5t-5 10.5z" />
    <glyph glyph-name="Zcaron" unicode="&#x17d;" horiz-adv-x="458" 
d="M24 709l395 2q9 0 9 -9q0 -3 -1 -5l-406 -697l-11 18l438 2q14 0 14 -14q0 -6 -4 -10.5t-10 -4.5l-438 2q-13 0 -13 13q0 2 2 6l413 694l7 -13l-395 2q-7 0 -7 7t7 7zM229 771q-2 0 -6 2l-132 96q-7 5 -2 14q5 7 14 2l126 -92l126 92q8 6 14 -2q5 -9 -2 -14l-132 -96
q-4 -2 -6 -2z" />
    <glyph glyph-name="zcaron" unicode="&#x17e;" horiz-adv-x="393" 
d="M20 509l334 2q9 0 9 -9q0 -4 -1 -5h-1l-343 -506l-10 20l370 1q6 1 10.5 -3.5t4.5 -10.5t-4.5 -10t-10.5 -5l-370 2q-13 2 -13 13q0 4 3 7l348 502l8 -14l-334 2q-7 0 -7 7t7 7zM196 571q-2 0 -6 2l-132 96q-7 5 -2 14q5 7 14 2l126 -92l126 92q8 6 14 -2q5 -9 -2 -14
l-132 -96q-4 -2 -6 -2z" />
    <glyph glyph-name="quotedbl" unicode="&#x22;" horiz-adv-x="110" 
d="M14 448q-10 0 -10 10v174q0 10 10 10t10 -10v-174q0 -10 -10 -10zM74 448q-10 0 -10 10v174q0 10 10 10t10 -10v-174q0 -10 -10 -10z" />
    <glyph glyph-name="quotedblleft" unicode="&#x201c;" horiz-adv-x="110" 
d="M14 448q-10 0 -10 10v174q0 10 10 10t10 -10v-174q0 -10 -10 -10zM74 448q-10 0 -10 10v174q0 10 10 10t10 -10v-174q0 -10 -10 -10z" />
    <glyph glyph-name="quotedblright" unicode="&#x201d;" horiz-adv-x="110" 
d="M14 448q-10 0 -10 10v174q0 10 10 10t10 -10v-174q0 -10 -10 -10zM74 448q-10 0 -10 10v174q0 10 10 10t10 -10v-174q0 -10 -10 -10z" />
    <glyph glyph-name="quoteleft" unicode="&#x2018;" horiz-adv-x="81" 
d="M14 448q-10 0 -10 10v174q0 10 10 10t10 -10v-174q0 -10 -10 -10z" />
    <glyph glyph-name="quoteright" unicode="&#x2019;" horiz-adv-x="81" 
d="M14 448q-10 0 -10 10v174q0 10 10 10t10 -10v-174q0 -10 -10 -10z" />
    <glyph glyph-name="quotesinglbase" unicode="&#x201a;" horiz-adv-x="81" 
d="M14 -79q-10 0 -10 10v174q0 10 10 10t10 -10v-174q0 -10 -10 -10z" />
    <glyph glyph-name="quotedblbase" unicode="&#x201e;" horiz-adv-x="112" 
d="M14 -79q-10 0 -10 10v174q0 10 10 10t10 -10v-174q0 -10 -10 -10zM74 -79q-10 0 -10 10v174q0 10 10 10t10 -10v-174q0 -10 -10 -10z" />
    <glyph glyph-name="ellipsis" unicode="&#x2026;" horiz-adv-x="264" 
d="M34 2q-10 0 -10 10v54q0 10 10 10t10 -10v-54q0 -10 -10 -10zM122 2q-10 0 -10 10v54q0 10 10 10t10 -10v-54q0 -10 -10 -10zM210 2q-10 0 -10 10v54q0 10 10 10t10 -10v-54q0 -10 -10 -10z" />
    <glyph glyph-name="circumflex" unicode="&#x2c6;" horiz-adv-x="309" 
d="M138 687q2 0 6 -2l132 -96q7 -5 2 -14q-5 -7 -14 -2l-126 92l-126 -92q-8 -6 -14 2q-5 9 2 14l132 96q4 2 6 2z" />
    <glyph glyph-name="equal" unicode="=" horiz-adv-x="304" 
d="M260 317h-242q-10 0 -10 10t10 10h242q10 0 10 -10t-10 -10zM260 397h-242q-10 0 -10 10t10 10h242q10 0 10 -10t-10 -10z" />
    <glyph glyph-name="Euro" unicode="&#x20ac;" horiz-adv-x="525" 
d="M234 317h-242q-10 0 -10 10t10 10h242q10 0 10 -10t-10 -10zM234 397h-242q-10 0 -10 10t10 10h242q10 0 10 -10t-10 -10zM497 83q-32 -36 -72 -60q-40 -25 -88 -33q-46 -9 -94 2q-45 10 -86 37q-20 13 -37.5 29t-32.5 34q-30 37 -49 80q-40 87 -38 182q0 49 10 93
q9 47 30 89q20 44 51 79q29 37 71 63q40 25 89 36q12 2 24 3t24 1t24 -1t24 -3q49 -11 89 -36q20 -13 38 -29t34 -34q4 -5 3.5 -11t-5.5 -10q-11 -9 -20 2q-27 33 -65 58q-36 24 -79 33q-11 2 -21.5 3t-21.5 2q-11 0 -21.5 -1t-21.5 -3q-42 -7 -81 -32q-38 -24 -66 -56
q-28 -34 -48 -74q-20 -42 -29 -84q-5 -22 -7.5 -44t-3.5 -44q0 -23 1.5 -45t6.5 -44q9 -45 27 -85q9 -20 20.5 -39.5t25.5 -36.5t30 -32t35 -28q18 -12 38 -21t42 -14q44 -11 88 -3q22 3 42.5 11t39.5 19q38 22 69 56q5 5 10 1q5 -5 1 -10z" />
    <glyph glyph-name="florin" unicode="&#x192;" horiz-adv-x="141" 
d="M8 -238l5 602l1 90l1 45v12t1 11q0 6 0.5 12t1.5 11q2 11 3.5 23t3.5 23t5.5 22t7.5 22q5 11 10 21t13 20q4 5 8 9t9 8q9 8 21 11q5 2 7 -3t-3 -7q-9 -2 -18 -10q-9 -6 -15 -15q-7 -9 -11.5 -18.5t-8.5 -20.5q-4 -10 -6.5 -20.5t-4.5 -21.5q-4 -22 -6 -44q-1 -6 -1 -11.5
v-11.5q-1 -5 -1 -10.5v-11.5l1 -45l1 -90l4 -602q1 -6 -3.5 -10.5t-10.5 -4.5t-10 4.5t-5 10.5zM111 481h-78q-10 0 -10 10t10 10h78q10 0 10 -10t-10 -10z" />
    <glyph glyph-name="Scaron" unicode="&#x160;" horiz-adv-x="433" 
d="M390 525q0 27 -9 51q-5 12 -11 23.5t-14 22.5q-16 21 -37 36q-20 14 -46 24q-52 17 -103 7q-13 -2 -25 -6.5t-24 -9.5q-11 -6 -22 -13.5t-20 -16.5q-21 -19 -32 -40q-14 -23 -18 -48q-1 -7 -1.5 -13t-1.5 -13v-3v-3q0 -5 1 -7v-13q2 -13 4.5 -25.5t7.5 -24.5
q2 -5 5 -10.5t7 -10.5t8 -9.5t9 -8.5q9 -8 20.5 -14t23.5 -10q12 -5 25 -8t26 -5q14 -2 27 -4t27 -4q29 -3 55 -10q29 -7 53 -19q14 -8 25 -16q12 -9 21 -21q9 -10 17 -25q3 -7 6 -13.5t5 -13.5q5 -14 6.5 -28t3.5 -28q0 -10 1 -14v-15q-1 -7 -1.5 -14t-2.5 -15
q-5 -29 -20 -55q-7 -13 -16 -24t-20 -21t-22.5 -18.5t-24.5 -14.5q-26 -13 -55 -19q-8 -2 -14.5 -2.5t-14.5 -1.5h-7h-4h-4h-7q-5 0 -7 1q-30 2 -57 12q-14 5 -27 11.5t-24 15.5q-26 18 -42 40q-9 12 -16 25t-12 27q-10 27 -10 58q0 6 4 10.5t10 4.5t10.5 -4.5t4.5 -10.5
q0 -12 1.5 -24.5t6.5 -24.5q7 -22 23 -44q16 -21 36 -35q10 -8 21.5 -13.5t22.5 -10.5q50 -17 101 -8q12 2 24.5 6t23.5 10q21 10 42 29q20 18 31 39q14 23 18 47q3 12 3 25v13v6.5t-1 6.5q-1 14 -2.5 26.5t-5.5 24.5q-7 24 -23 44q-14 18 -38 31q-22 12 -49 18
q-13 3 -26 5.5t-26 4.5q-14 2 -27.5 4.5t-27.5 4.5t-27 5.5t-27 8.5q-7 2 -13.5 4.5t-13.5 6.5l-12 8t-12 9q-12 11 -20 22q-10 14 -14 25q-6 14 -8.5 28.5t-4.5 28.5v6.5t-1 7.5v7v3v4q1 8 1.5 14.5t2.5 14.5q4 28 20 53q15 25 36 45q22 20 47 32q25 13 54 18q28 6 56 3
q29 -2 56 -12q28 -11 50 -27q11 -8 21.5 -18t18.5 -22q18 -22 27 -50q9 -27 9 -56q0 -8 -8 -8q-7 0 -7 8zM216 771q-2 0 -6 2l-132 96q-7 5 -2 14q5 7 14 2l126 -92l126 92q8 6 14 -2q5 -9 -2 -14l-132 -96q-4 -2 -6 -2z" />
    <glyph glyph-name="scaron" unicode="&#x161;" horiz-adv-x="432" 
d="M382 375v2v1v2q0 4 -1 6q0 4 -2 10q-3 12 -8 20q-5 9 -12.5 17t-15.5 16q-17 14 -38 23q-21 10 -42 14q-43 10 -89 4l-22 -4t-22 -6q-23 -7 -40 -18q-21 -11 -34 -27q-15 -17 -21 -36q-2 -5 -3 -10t-1 -10v-11t1 -11q1 -9 5 -20q5 -12 10 -18q11 -15 33 -25
q9 -5 19.5 -8.5t21.5 -5.5t22.5 -3.5t22.5 -3.5t23 -3t23 -2q12 -2 23.5 -3t23.5 -3t23.5 -4.5t23.5 -6.5q24 -6 45 -20q10 -8 20 -17q5 -5 8.5 -10.5t6.5 -10.5q3 -6 5.5 -12t4.5 -12t3 -12.5t2 -12.5q1 -4 1 -12v-6v-2v-2v-1v-2q0 -7 -1 -13.5t-3 -12.5q-9 -25 -26 -44
q-9 -10 -18.5 -17.5t-20.5 -14.5q-25 -13 -45 -20q-12 -4 -24 -6.5t-24 -4.5q-6 -1 -12 -1t-12 -1h-12h-13q-12 1 -24 2.5t-24 4.5t-24 7t-23 9q-21 9 -42 26q-10 8 -18.5 18t-15.5 21q-5 10 -10 25q-2 6 -2.5 12.5t-1.5 13.5q0 6 4.5 10.5t10.5 4.5q14 0 14 -14v-1
q0 -17 10 -37q10 -17 27 -31q8 -8 17 -13t19 -10q21 -10 41 -14q45 -11 88 -5q22 2 43 9q11 3 20.5 7.5t19.5 9.5q9 6 17.5 12.5t15.5 14.5q15 15 21 35q2 5 2.5 9.5t1.5 9.5v1v1v1v1v1v6q-1 3 -1 10q-2 11 -4.5 21t-7.5 19q-5 10 -12 17q-5 6 -15 13q-18 12 -39 18
q-11 4 -22 6l-22 4t-22.5 3.5t-22.5 3.5q-12 1 -23.5 2t-23.5 3q-11 2 -23 4t-23 4q-12 3 -24 6.5t-23 9.5q-5 2 -10.5 5.5t-10.5 7.5t-9.5 9t-8.5 10t-7.5 11t-5.5 12q-5 12 -6 24q0 4 -0.5 7t-0.5 6v3v3v2v1v3q1 7 2 13.5t3 12.5q7 24 25 43q17 17 39 31q11 6 22 10.5
t22 8.5q12 4 24 6l24 4q11 2 23 2t24 -1q12 0 24 -2l24 -4q26 -7 45 -16q11 -5 21.5 -11.5t20.5 -14.5q19 -16 31 -38q3 -5 5.5 -11t4.5 -12q1 -3 1 -6t1 -6q0 -4 1 -7v-3v-1v-2q0 -8 -8 -8t-8 8zM216 571q-2 0 -6 2l-132 96q-7 5 -2 14q5 7 14 2l126 -92l126 92q8 6 14 -2
q5 -9 -2 -14l-132 -96q-4 -2 -6 -2z" />
    <glyph glyph-name="oe" unicode="&#x153;" horiz-adv-x="910" 
d="M232 -10q-47 0 -89.5 19.5t-74.5 57.5q-33 37 -50.5 84t-17.5 99q0 53 17.5 100t50.5 84q32 38 74.5 57.5t89.5 19.5t89.5 -19.5t74.5 -57.5q33 -37 50.5 -84t17.5 -100q0 -52 -17.5 -99t-50.5 -84q-32 -38 -74.5 -57.5t-89.5 -19.5zM232 491q-44 0 -82.5 -19
t-67.5 -51.5t-45.5 -76.5t-16.5 -94t16.5 -93.5t45.5 -76t67.5 -51.5t82.5 -19t82.5 19t67.5 51.5t45.5 76t16.5 93.5t-16.5 94t-45.5 76.5t-67.5 51.5t-82.5 19zM834 56l-2 -2l-2 -2l-3 -3l-4 -4l-4 -4q-4 -3 -8 -6.5t-9 -6.5q-15 -12 -36 -22q-37 -19 -82 -21
q-43 -3 -83 14q-20 8 -38 19.5t-33 25.5q-16 14 -28.5 31t-22.5 35q-20 37 -27 78q-9 43 -5 83q2 20 5.5 40.5t11.5 39.5q8 20 17.5 38t22.5 35q27 33 62 55q35 23 78 29q41 6 82 -5q39 -10 74 -37q17 -13 30.5 -28.5t24.5 -32.5q22 -35 33 -75q6 -20 8.5 -40t2.5 -40v-1
q0 -7 -7 -7l-337 3q-4 0 -4 5q0 4 4 4l337 3l-7 -8v1q0 37 -11 76q-11 38 -32 70q-21 33 -52 56q-30 23 -68 34q-19 5 -38 6t-37 -3q-38 -6 -71 -27q-31 -19 -55 -51q-12 -15 -21 -32t-16 -35q-13 -36 -15.5 -74.5t5.5 -76.5q9 -38 27 -71q19 -35 46 -59q30 -27 63 -40
q36 -14 73 -11q36 1 71 19q8 4 15.5 9t15.5 11q8 5 14 12q3 2 7 6l3 3l2 2l2 2q9 10 20 1q10 -10 1 -21z" />
    <glyph glyph-name="AE" unicode="&#xc6;" horiz-adv-x="834" 
d="M5 2l478 703q4 8 13 5q4 -2 3 -5l10 -700q0 -14 -16 -19q-6 -2 -10.5 0.5t-4.5 8.5l3 704h16l-468 -707q-3 -5 -9.5 -8t-11.5 -1t-6 7.5t3 10.5v1zM486 141l-316 6q-9 0 -5 9t11 9l320 5q6 1 9 -3.5t1 -10.5q-5 -13 -19 -15h-1zM785 693l-288 -1l10 10l4 -702l-14 13
l315 1q6 0 10.5 -4t4.5 -10t-4 -10.5t-10 -4.5h-1l-315 2q-13 0 -13 13l3 702q0 10 10 10l288 -1q9 0 9 -9t-9 -9zM648 356h-149q-10 0 -10 10t10 10h149q10 0 10 -10t-10 -10z" />
    <glyph glyph-name="ae" unicode="&#xe6;" horiz-adv-x="861" 
d="M270 320q-25 -1 -49.5 -1.5t-48.5 -4.5q-22 -3 -47 -11q-24 -8 -42 -19q-5 -4 -9.5 -7t-9.5 -7q-2 -2 -4.5 -4t-4.5 -4l-2 -2l-2 -2q-1 -2 -2 -2.5t-2 -2.5q-8 -8 -13.5 -18t-10.5 -21q-17 -44 -6 -91q5 -25 16 -43q3 -5 6 -9.5t7 -8.5q2 -2 4 -4.5t4 -4.5l1 -1q1 0 1 -1
h1l1 -1q1 -2 2 -2.5t2 -1.5q17 -13 40 -21q20 -7 46 -10q22 -3 47 -3q25 2 47 6q6 1 15 4t18.5 6.5t18 7t13.5 5.5q3 1 10 6t15 11t15 11t10 7q10 7 16 14q10 9 21 0q10 -11 0 -21q-9 -9 -22 -17q-3 -2 -10.5 -7.5t-16.5 -11.5t-16.5 -11.5t-10.5 -6.5q-13 -5 -35.5 -13.5
t-35.5 -10.5q-28 -5 -51 -5q-13 -1 -26 0t-26 3t-25.5 4.5t-24.5 7.5q-25 9 -47 26q-3 2 -5 5l-2 1l-1 1l-1 1l-1 1q-3 3 -5 5.5t-4 4.5q-8 10 -15 23q-7 11 -11.5 23.5t-7.5 25.5q-9 55 10 104q10 23 28 44q2 2 2.5 3t2.5 2q1 1 1 1.5t1 1.5l3 2q6 6 9 8q11 10 22 15
q22 13 47 21q23 7 50 10q26 3 50.5 3.5t49.5 0.5q7 0 7 -7t-7 -7zM24 461q1 1 1.5 1t1.5 1l2 2q2 1 5 4q2 2 5 3.5t5 3.5q5 3 10.5 6t11.5 6q11 5 22.5 9t23.5 7q11 3 23.5 4.5t24.5 2.5t24 1t24 -2q25 -3 48 -12t43 -27t30 -40q6 -11 10 -23t7 -24q2 -12 3 -24.5t1 -24.5
l-10 -74l-9 -5l-3 79q0 25 -4 45q-2 11 -5 21t-8 21q-5 10 -11.5 18.5t-14.5 16.5q-15 13 -36 23q-21 9 -43 12q-25 3 -45 2q-23 -1 -46 -6q-21 -4 -43 -14q-5 -2 -10 -5l-10 -6l-9 -6q-2 -1 -4 -3q-1 -1 -1.5 -1t-1.5 -1q0 -1 -0.5 -1t-0.5 -1h-1q-2 -2 -5 -1.5t-5 2.5
q-4 4 0 10zM715 56l-2 -2l-2 -2l-3 -3l-4 -4l-4 -4q-4 -3 -8 -6.5t-9 -6.5q-15 -12 -36 -22q-37 -19 -82 -21q-43 -3 -83 14q-20 8 -38 19.5t-33 25.5q-16 14 -28.5 31t-22.5 35q-20 37 -27 78q-9 43 -5 83q2 20 5.5 40.5t11.5 39.5q8 20 17.5 38t22.5 35q27 33 62 55
q35 23 78 29q41 6 82 -5q39 -10 74 -37q17 -13 30.5 -28.5t24.5 -32.5q22 -35 33 -75q6 -20 8.5 -40t2.5 -40v-1q0 -7 -7 -7l-337 3q-4 0 -4 5q0 4 4 4l337 3l-7 -8v1q0 37 -11 76q-11 38 -32 70q-21 33 -52 56q-30 23 -68 34q-19 5 -38 6t-37 -3q-38 -6 -71 -27
q-31 -19 -55 -51q-12 -15 -21 -32t-16 -35q-13 -36 -15.5 -74.5t5.5 -76.5q9 -38 27 -71q19 -35 46 -59q30 -27 63 -40q36 -14 73 -11q36 1 71 19q8 4 15.5 9t15.5 11q8 5 14 12q3 2 7 6l3 3l2 2l2 2q9 10 20 1q10 -10 1 -21z" />
    <glyph glyph-name="Ccedilla" unicode="&#xc7;" horiz-adv-x="536" 
d="M497 83q-32 -36 -72 -60q-40 -25 -88 -33q-46 -9 -94 2q-45 10 -86 37q-20 13 -37.5 29t-32.5 34q-30 37 -49 80q-40 87 -38 182q0 49 10 93q9 47 30 89q20 44 51 79q29 37 71 63q40 25 89 36q12 2 24 3t24 1t24 -1t24 -3q49 -11 89 -36q20 -13 38 -29t34 -34
q4 -5 3.5 -11t-5.5 -10q-11 -9 -20 2q-27 33 -65 58q-36 24 -79 33q-11 2 -21.5 3t-21.5 2q-11 0 -21.5 -1t-21.5 -3q-42 -7 -81 -32q-38 -24 -66 -56q-28 -34 -48 -74q-20 -42 -29 -84q-5 -22 -7.5 -44t-3.5 -44q0 -23 1.5 -45t6.5 -44q9 -45 27 -85q9 -20 20.5 -39.5
t25.5 -36.5t30 -32t35 -28q18 -12 38 -21t42 -14q44 -11 88 -3q22 3 42.5 11t39.5 19q38 22 69 56q5 5 10 1q5 -5 1 -10zM265 -217q-32 0 -55 14q-27 18 -27 48q0 10 10 10t10 -10q0 -19 18 -31q17 -11 44 -11q25 0 46.5 11t21.5 31q0 36 -31 52q-6 3 -11.5 4.5t-10.5 3.5
l-10 2q-9 0 -9 10v72q0 10 10 10t10 -10v-64q6 -1 14 -3.5t17 -7.5q41 -21 41 -69q0 -29 -29 -47q-24 -15 -59 -15z" />
    <glyph glyph-name="ccedilla" unicode="&#xe7;" horiz-adv-x="428" 
d="M384 59q-12 -13 -25.5 -24t-28.5 -19q-33 -17 -66 -23q-18 -3 -35 -3t-35 3q-17 3 -33.5 9.5t-32.5 14.5q-29 17 -54 44q-23 24 -40 57q-17 32 -24.5 66t-7.5 69t8 69t25 66q18 32 41 57q24 26 56 44q33 17 68 23q16 3 35 3q10 0 18.5 -1t17.5 -3q35 -6 67 -25
q16 -9 30 -20.5t26 -24.5q9 -11 -1 -21q-11 -9 -21 1q-22 25 -48 41q-29 16 -58 22q-8 2 -15.5 3t-15.5 1h-15.5t-15.5 -2q-30 -4 -60 -20q-27 -15 -50 -38q-22 -22 -38 -51q-32 -58 -32 -124q-2 -33 6 -65t22 -61q14 -30 36 -53q21 -24 49 -41q30 -17 60 -23q8 -2 16 -2.5
t16 -1.5q17 0 32 3q31 4 61 20q14 8 27.5 18t24.5 22q4 6 10 0q5 -5 0 -10zM211 -208q-32 0 -55 14q-27 18 -27 48q0 10 10 10t10 -10q0 -19 18 -31q17 -11 44 -11q25 0 46.5 11t21.5 31q0 36 -31 52q-6 3 -11.5 4.5t-10.5 3.5l-10 2q-9 0 -9 10v72q0 10 10 10t10 -10v-64
q6 -1 14 -3.5t17 -7.5q41 -21 41 -69q0 -29 -29 -47q-24 -15 -59 -15z" />
    <glyph glyph-name="OE" unicode="&#x152;" horiz-adv-x="817" 
d="M253 -12q-52 0 -101 29q-23 14 -43 33.5t-38 44.5q-35 51 -54.5 117t-19.5 138t19.5 137.5t54.5 117.5q36 49 81 78q49 29 101 29t101 -29q46 -28 82 -78q35 -52 54 -117.5t19 -137.5t-19 -138t-54 -117q-18 -25 -38.5 -44.5t-43.5 -33.5q-49 -29 -101 -29zM253 692
q-49 0 -92 -27t-75 -73.5t-50.5 -109t-18.5 -132.5q0 -71 18.5 -133t50.5 -108.5t75 -73.5t92 -27t92 27t75 73.5t50.5 108.5t18.5 133q0 70 -18.5 132.5t-50.5 109t-75 73.5t-92 27zM790 693l-288 -1l10 10l4 -702l-14 13l315 1q6 0 10.5 -4t4.5 -10t-4 -10.5t-10 -4.5h-1
l-315 2q-13 0 -13 13l3 702q0 10 10 10l288 -1q9 0 9 -9t-9 -9zM653 356h-149q-10 0 -10 10t10 10h149q10 0 10 -10t-10 -10z" />
    <glyph glyph-name="cent" unicode="&#xa2;" horiz-adv-x="428" 
d="M384 59q-12 -13 -25.5 -24t-28.5 -19q-33 -17 -66 -23q-18 -3 -35 -3t-35 3q-17 3 -33.5 9.5t-32.5 14.5q-29 17 -54 44q-23 24 -40 57q-17 32 -24.5 66t-7.5 69t8 69t25 66q18 32 41 57q24 26 56 44q33 17 68 23q16 3 35 3q10 0 18.5 -1t17.5 -3q35 -6 67 -25
q16 -9 30 -20.5t26 -24.5q9 -11 -1 -21q-11 -9 -21 1q-22 25 -48 41q-29 16 -58 22q-8 2 -15.5 3t-15.5 1h-15.5t-15.5 -2q-30 -4 -60 -20q-27 -15 -50 -38q-22 -22 -38 -51q-32 -58 -32 -124q-2 -33 6 -65t22 -61q14 -30 36 -53q21 -24 49 -41q30 -17 60 -23q8 -2 16 -2.5
t16 -1.5q17 0 32 3q31 4 61 20q14 8 27.5 18t24.5 22q4 6 10 0q5 -5 0 -10zM219 -141q-10 0 -10 10v126q0 10 10 10t10 -10v-126q0 -10 -10 -10zM219 497q-10 0 -10 10v126q0 10 10 10t10 -10v-126q0 -10 -10 -10z" />
    <glyph glyph-name="numbersign" unicode="#" horiz-adv-x="401" 
d="M362 424h-348q-10 0 -10 10t10 10h348q10 0 10 -10t-10 -10zM362 184h-348q-10 0 -10 10t10 10h348q10 0 10 -10t-10 -10zM307 20q-10 0 -10 10v568q0 10 10 10t10 -10v-568q0 -10 -10 -10zM67 20q-10 0 -10 10v568q0 10 10 10t10 -10v-568q0 -10 -10 -10z" />
    <glyph glyph-name="question" unicode="?" horiz-adv-x="406" 
d="M-28 580q0 2 0.5 2.5t0.5 1.5q1 1 1 3q1 2 1.5 3.5t1.5 3.5q2 3 3.5 6t3.5 6q4 6 7.5 12t8.5 12q9 11 19 21t22 18q11 8 23.5 14.5t26.5 11.5q29 10 55 11q7 1 14 1h14h14t14 -2q31 -3 55 -16q12 -5 25 -15q11 -8 21 -20q19 -22 30 -49t15 -55q2 -14 3 -28l2 -28v-13.5
t-1 -14.5q-1 -7 -1.5 -14t-2.5 -14q-6 -29 -18 -54q-12 -26 -30 -49q-17 -23 -38 -41q-11 -10 -22 -18.5t-23 -16.5q-6 -4 -12 -7.5t-12 -6.5q-3 -2 -6.5 -3.5t-6.5 -3.5l-6 -3l-4 -1l-1 -1l-2 -1l9 14v-104q0 -6 -4 -10.5t-11 -4.5q-6 0 -10 4.5t-4 10.5v104q0 9 9 13l1 1
h2l3 2q2 1 3 1t3 1q3 2 5.5 3t5.5 3q6 3 11.5 6.5t11.5 6.5q11 7 21.5 15t20.5 16q41 36 63 80q6 12 10 24t7 25q2 6 2.5 12.5t1.5 12.5q1 7 1 13v13q0 29 -4 52q-3 29 -13 51q-5 11 -11 22t-14 21q-18 21 -39 31q-23 12 -48 15q-7 1 -13.5 1.5t-12.5 0.5q-7 1 -13.5 0.5
t-13.5 -0.5q-13 -2 -25.5 -4t-24.5 -6q-27 -9 -47 -23q-21 -15 -38 -35q-4 -5 -7.5 -10.5t-7.5 -11.5q-2 -3 -6 -11l-3 -6q0 -2 -1 -3q0 -1 -0.5 -1.5t-0.5 -1.5q-2 -8 -10 -4q-8 2 -4 9zM161 -40q-6 0 -10.5 4.5t-4.5 10.5v68q0 6 4.5 10t10.5 4q14 0 14 -14v-68
q0 -6 -4 -10.5t-10 -4.5z" />
    <glyph glyph-name="underscore" unicode="_" horiz-adv-x="430" 
d="M399 -34h-380q-10 0 -10 10t10 10h380q10 0 10 -10t-10 -10z" />
    <glyph glyph-name="less" unicode="&#x3c;" horiz-adv-x="200" 
d="M167 84q-5 0 -8 4l-148 188q-5 5 0 12l144 196q5 7 14 2q8 -6 2 -14l-140 -190l144 -182q6 -8 -2 -14q-4 -2 -6 -2z" />
    <glyph glyph-name="greater" unicode="&#x3e;" horiz-adv-x="200" 
d="M19 488q5 0 8 -4l148 -188q5 -5 0 -12l-144 -196q-5 -7 -14 -2q-8 6 -2 14l140 190l-144 182q-6 8 2 14q4 2 6 2z" />
    <glyph glyph-name="guilsinglleft" unicode="&#x2039;" horiz-adv-x="200" 
d="M167 84q-5 0 -8 4l-148 188q-5 5 0 12l144 196q5 7 14 2q8 -6 2 -14l-140 -190l144 -182q6 -8 -2 -14q-4 -2 -6 -2z" />
    <glyph glyph-name="guilsinglright" unicode="&#x203a;" horiz-adv-x="200" 
d="M19 488q5 0 8 -4l148 -188q5 -5 0 -12l-144 -196q-5 -7 -14 -2q-8 6 -2 14l140 190l-144 182q-6 8 2 14q4 2 6 2z" />
    <glyph glyph-name="guillemotleft" unicode="&#xab;" horiz-adv-x="275" 
d="M167 84q-5 0 -8 4l-148 188q-5 5 0 12l144 196q5 7 14 2q8 -6 2 -14l-140 -190l144 -182q6 -8 -2 -14q-4 -2 -6 -2zM247 84q-5 0 -8 4l-148 188q-5 5 0 12l144 196q5 7 14 2q8 -6 2 -14l-140 -190l144 -182q6 -8 -2 -14q-4 -2 -6 -2z" />
    <glyph glyph-name="guillemotright" unicode="&#xbb;" horiz-adv-x="278" 
d="M19 488q5 0 8 -4l148 -188q5 -5 0 -12l-144 -196q-5 -7 -14 -2q-8 6 -2 14l140 190l-144 182q-6 8 2 14q4 2 6 2zM99 488q5 0 8 -4l148 -188q5 -5 0 -12l-144 -196q-5 -7 -14 -2q-8 6 -2 14l140 190l-144 182q-6 8 2 14q4 2 6 2z" />
    <glyph glyph-name="bar" unicode="|" horiz-adv-x="128" 
d="M55 -36q-10 0 -10 10v656q0 10 10 10t10 -10v-656q0 -10 -10 -10z" />
    <glyph glyph-name="bracketleft" unicode="[" horiz-adv-x="155" 
d="M116 -4h-93q-10 0 -10 10v624q0 10 10 10h100q10 0 10 -10t-10 -10h-90v-604h83q10 0 10 -10t-10 -10z" />
    <glyph glyph-name="bracketright" unicode="]" horiz-adv-x="155" 
d="M30 640h93q10 0 10 -10v-624q0 -10 -10 -10h-100q-10 0 -10 10t10 10h90v604h-83q-10 0 -10 10t10 10z" />
    <glyph glyph-name="braceleft" unicode="{" horiz-adv-x="217" 
d="M167 -20h-2q-1 0 -13.5 5t-27.5 23.5t-27 54.5t-12 99q0 58 -11.5 84.5t-22.5 35.5q-8 5 -17 7q-4 -1 -7.5 -1h-5.5h-5q-8 2 -8 9q0 8 7 10q0 1 5 2t13 0q6 1 16 8q6 5 12.5 14.5t11.5 25.5t8.5 38.5t3.5 54.5q0 59 15 103q14 38 36 61q19 21 35.5 27t17.5 7q10 2 12 -8
t-8 -12q-7 -2 -14 -6q-6 -3 -14 -8.5t-16 -14.5q-44 -49 -44 -149q0 -113 -44 -148l-2 -2l4 -2q42 -32 42 -136q0 -60 11 -92.5t23 -47.5q11 -14 20 -18t10 -4q10 -2 8 -12q-2 -8 -10 -8z" />
    <glyph glyph-name="braceright" unicode="}" horiz-adv-x="217" 
d="M43 648h2q1 0 13.5 -5t27.5 -23.5t27 -54.5t12 -99q0 -59 11.5 -95t22.5 -45q8 -5 17 -7q4 1 7.5 1h5.5h5q8 -2 8 -9q0 -8 -7 -10q0 -1 -5 -2t-13 0q-6 -1 -16 -8q-6 -5 -12.5 -11.5t-11.5 -18.5t-8.5 -31.5t-3.5 -51.5q0 -60 -15 -103q-14 -38 -36 -61
q-19 -21 -35.5 -27t-17.5 -7q-10 -2 -12 8t8 12q7 1 14 5q6 3 14 9t16 15q44 49 44 149q0 56 11 83.5t33 44.5l2 2l-4 2q-21 16 -31.5 60t-10.5 96q0 60 -11 92.5t-23 47.5q-11 14 -20 18t-10 4q-10 2 -8 12q2 8 10 8z" />
    <glyph glyph-name="sterling" unicode="&#xa3;" horiz-adv-x="500" 
d="M106 -14h-50h-32t-23 1q-18 0 -22.5 0.5t-6.5 3.5q-5 5 -2 11q2 6 9 6q25 0 40 63q8 32 13 76t10 92q4 39 8.5 80t11 81t15.5 78.5t21 73.5q27 77 68 117q49 47 117 47q54 0 98 -19q32 -14 58 -43q20 -23 26.5 -42t7.5 -20q2 -10 -8 -12t-12 8q-2 8 -6 17q-4 8 -9.5 17
t-14.5 20q-48 54 -140 54q-114 0 -167 -150q-23 -68 -34.5 -149.5t-19.5 -159.5q-5 -49 -10.5 -93.5t-13.5 -77.5q-3 -15 -9 -31t-15 -29h83t115 0.5t128 1t123 0.5q10 0 10 -10t-10 -10h-21t-55 -0.5t-77 -1t-88 -0.5h-116zM295 320h-276q-10 0 -10 10t10 10h276
q10 0 10 -10t-10 -10z" />
    <glyph glyph-name="currency" unicode="&#xa4;" horiz-adv-x="377" 
d="M175 204q-32 0 -60 12t-49 33t-33 49t-12 60t12 60t33 49t49 33t60 12t60 -12t49 -33t33 -49t12 -60t-12 -60t-33 -49t-49 -33t-60 -12zM175 492q-28 0 -52.5 -10.5t-42.5 -28.5t-28.5 -42.5t-10.5 -52.5t10.5 -52.5t28.5 -42.5t42.5 -28.5t52.5 -10.5t52.5 10.5
t42.5 28.5t28.5 42.5t10.5 52.5t-10.5 52.5t-28.5 42.5t-42.5 28.5t-52.5 10.5zM11 190q-4 0 -7 3q-7 7 0 14l56 56q7 7 14 0t0 -14l-56 -56q-3 -3 -7 -3zM71 454q-4 0 -7 3l-54 54q-7 7 0 14t14 0l54 -54q7 -7 0 -14q-3 -3 -7 -3zM275 452q-4 0 -7 3q-7 7 0 14l56 56
q7 7 14 0t0 -14l-56 -56q-3 -3 -7 -3zM325 190q-4 0 -7 3l-54 54q-7 7 0 14t14 0l54 -54q7 -7 0 -14q-3 -3 -7 -3z" />
    <glyph glyph-name="brokenbar" unicode="&#xa6;" horiz-adv-x="134" 
d="M59 396q-10 0 -10 10v300q0 10 10 10t10 -10v-300q0 -10 -10 -10zM59 -12q-10 0 -10 10v324q0 10 10 10t10 -10v-324q0 -10 -10 -10z" />
    <glyph glyph-name="Thorn" unicode="&#xde;" horiz-adv-x="420" 
d="M27 706l6 -700q0 -6 -4 -10.5t-10 -4.5t-10.5 4.5t-4.5 10.5l7 700q0 8 8 8t8 -8zM17 542q8 2 15 2.5t14 1.5q8 2 15 2.5t14 1.5q14 2 29 2.5t29 1.5h29.5t29.5 -1q14 -2 29 -3.5t29 -4.5q15 -3 29 -7t28 -10q14 -7 27 -15t24 -19q12 -11 20 -23q9 -14 14 -28
q6 -15 8 -30.5t2 -30.5t-3 -30q-3 -17 -9 -30q-6 -14 -15 -28q-9 -12 -20 -23t-24 -19.5t-27 -14.5q-14 -7 -28.5 -11.5t-28.5 -8.5t-29 -6.5t-29 -4.5q-15 -2 -29.5 -2.5t-29.5 -1.5q-14 -1 -29 -0.5t-29 1.5q-8 0 -15 0.5t-15 0.5q-4 1 -7.5 1t-6.5 1l-8 1h-3l-4 1
q-6 1 -10 5.5t-3 10.5t6 9.5t10 2.5h1h3l4 -1l7 -1q3 0 6.5 -0.5t7.5 -0.5q7 -1 14 -1.5t14 -0.5q14 -1 28.5 -1.5t28.5 -0.5q14 1 28 1.5t28 2.5q28 3 55 9t52 17q13 6 24 13t21 16q21 18 31 43q5 12 7.5 25t3.5 26q0 14 -1.5 27.5t-6.5 25.5q-9 25 -28 44q-20 19 -45 30
q-13 6 -26 10t-27 7t-28 5t-28 3q-14 2 -28 2h-28q-29 0 -57 -3q-8 -1 -14.5 -1.5t-14.5 -1.5q-7 -1 -13.5 -1.5t-14.5 -2.5q-7 -2 -9 6t6 10z" />
    <glyph glyph-name="germandbls" unicode="&#xdf;" horiz-adv-x="448" 
d="M22 0q-2 10 -3 20t-3 21q-1 11 -2 21t-2 21q-2 20 -3.5 41t-3.5 42q-2 20 -3 41l-2 42t-1.5 42t-0.5 41q1 21 1 42t2 42q3 40 9 83q6 41 18 82q4 11 7.5 20.5t8.5 19.5t10 19.5t12 17.5q6 9 14 16.5t17 14.5q18 13 40 18q12 3 22 3h6h5h11q11 -1 21 -2t21 -3t21 -4.5
t20 -7.5q19 -7 39 -20q8 -7 16 -14.5t15 -16.5q13 -18 21 -39q4 -10 6 -20.5t4 -21.5q1 -22 0 -43q-2 -22 -6.5 -43t-12.5 -41q-5 -10 -9.5 -19.5t-9.5 -19.5q-5 -9 -11 -18t-14 -18q-16 -17 -34 -30q-5 -3 -10.5 -5.5t-11.5 -4.5q-11 -4 -25 -4q-14 2 -14 16q0 5 4.5 9
t9.5 4h1q40 0 75 -13q36 -12 66 -39q29 -26 47 -60q8 -17 13.5 -35.5t7.5 -38.5q1 -17 -2 -39t-10 -38q-5 -9 -9.5 -17.5t-11.5 -16.5q-13 -16 -28 -27q-8 -6 -16.5 -10.5t-17.5 -9.5q-17 -8 -36 -12q-36 -9 -74 -9q-6 0 -10.5 4.5t-4.5 10.5t4.5 10t10.5 4q33 0 67 8
q33 7 60 27q6 5 12 10.5t11 11.5q5 7 9 13.5t7 14.5q13 31 10 63q-3 33 -18 63q-16 30 -41 52q-12 11 -26 19.5t-30 13.5q-16 6 -32 8.5t-33 2.5l1 29q15 -2 31 8q17 9 29 24q7 7 13 15t11 16q10 16 18 35q16 37 21 77q1 21 0 40q-1 18 -8 38q-5 18 -18 35q-5 8 -12 14.5
t-15 12.5q-16 12 -35 19q-20 8 -38 11q-10 2 -20 3l-20 2h-10h-5h-5q-10 0 -19 -3q-10 -2 -18.5 -6t-16.5 -9q-15 -10 -27 -28q-12 -15 -20 -34q-9 -17 -15 -38q-6 -20 -10 -39.5t-7 -39.5t-4.5 -41t-2.5 -41q-2 -21 -2 -41.5v-41.5q0 -20 1 -41t2 -41q2 -21 3.5 -41.5
t3.5 -40.5q2 -21 4.5 -41.5t4.5 -40.5q2 -11 3 -21t3 -20q2 -11 3.5 -20.5t3.5 -20.5q2 -6 -2 -10.5t-9 -6.5q-6 -1 -11 2.5t-6 9.5v1z" />
    <glyph glyph-name="backslash" unicode="\" horiz-adv-x="520" 
d="M557 -21q-2 -4 -4 -5q-7 -7 -14 1l-582 727q-6 8 2 14q3 2 7.5 1.5t6.5 -2.5l582 -727q3 -5 2 -9z" />
    <glyph glyph-name="asciicircum" unicode="^" horiz-adv-x="307" 
d="M138 497q2 0 6 -2l132 -96q7 -5 2 -14q-5 -7 -14 -2l-126 92l-126 -92q-8 -6 -14 2q-5 9 2 14l132 96q4 2 6 2z" />
    <glyph glyph-name="dieresis" unicode="&#xa8;" horiz-adv-x="232" 
d="M175 608q-10 0 -10 10v52q0 10 10 10t10 -10v-52q0 -10 -10 -10zM25 608q-10 0 -10 10v52q0 10 10 10t10 -10v-52q0 -10 -10 -10z" />
    <glyph glyph-name="tilde" unicode="&#x2dc;" horiz-adv-x="365" 
d="M20 593q-3 0 -5 1q-10 4 -4 13q0 1 4 8t12 16t20 17.5t29 13.5q47 14 101 -19q36 -22 62 -24t43.5 4.5t26 16t9.5 10.5q5 8 14 3q8 -6 3 -14q-1 -1 -11.5 -12.5t-30.5 -20.5q-20 -8 -51 -7.5t-75 26.5q-47 30 -85 18q-14 -4 -23.5 -11t-16.5 -15q-8 -9 -13 -18
q-3 -6 -9 -6z" />
    <glyph glyph-name="asciitilde" unicode="~" horiz-adv-x="365" 
d="M20 263q-3 0 -5 1q-10 4 -4 13q0 1 4 8t12 16t20 17.5t29 13.5q47 14 101 -19q36 -22 62 -24t43.5 4.5t26 16t9.5 10.5q5 8 14 3q8 -6 3 -14q-1 -1 -11.5 -12.5t-30.5 -20.5q-20 -8 -51 -7.5t-75 26.5q-47 30 -85 18q-14 -4 -23.5 -11t-16.5 -15q-8 -9 -13 -18
q-3 -6 -9 -6z" />
    <glyph glyph-name="at" unicode="@" horiz-adv-x="677" 
d="M331 -82q-65 0 -123.5 24t-104.5 70t-70 104.5t-24 123.5t24 123.5t70 104.5q46 45 104.5 69.5t123.5 24.5t123.5 -24.5t104.5 -69.5q45 -46 69.5 -106t24.5 -128q0 -62 -15 -93q-4 -9 -12.5 -15t-17.5 -9.5t-18 -5t-13 -1.5q-17 0 -29.5 7t-28.5 30q-15 20 -18.5 47.5
t-3.5 46.5q-1 3 -4 17t-9 32t-14.5 35.5t-19.5 28.5q-22 23 -50.5 34.5t-60.5 11.5q-66 0 -112 -46q-23 -23 -34.5 -51.5t-11.5 -60.5t11.5 -60.5t34.5 -51.5q46 -46 112 -46q32 0 60.5 11.5t50.5 34.5l15 -14q-26 -26 -59 -39t-67.5 -13t-67 13t-58.5 39q-52 52 -52 126
t52 126q25 25 57.5 38.5t68.5 13.5q35 0 67.5 -13.5t58.5 -38.5q13 -13 22.5 -33.5t16 -40.5t9.5 -34.5t3 -15.5l1 -1v-1q0 -17 5 -36.5t13 -36.5t19 -28t23 -11q1 0 7 0.5t12.5 2t13.5 5.5t10 12q13 26 13 84q0 63 -23 119.5t-66 99.5q-44 44 -99.5 66t-113.5 22t-114 -22
t-100 -66q-43 -43 -65.5 -97.5t-22.5 -115.5t22.5 -116t65.5 -98q44 -44 100 -66t114 -22t113.5 22t99.5 66l15 -14q-46 -46 -104.5 -70t-123.5 -24z" />
    <glyph glyph-name="copyright" unicode="&#xa9;" horiz-adv-x="489" 
d="M232 -10q-47 0 -89.5 19.5t-74.5 57.5q-33 37 -50.5 84t-17.5 99q0 53 17.5 100t50.5 84q32 38 74.5 57.5t89.5 19.5t89.5 -19.5t74.5 -57.5q33 -37 50.5 -84t17.5 -100q0 -52 -17.5 -99t-50.5 -84q-32 -38 -74.5 -57.5t-89.5 -19.5zM232 491q-44 0 -82.5 -19
t-67.5 -51.5t-45.5 -76.5t-16.5 -94t16.5 -93.5t45.5 -76t67.5 -51.5t82.5 -19t82.5 19t67.5 51.5t45.5 76t16.5 93.5t-16.5 94t-45.5 76.5t-67.5 51.5t-82.5 19zM358 101q-19 -21 -40 -32q-26 -13 -49 -17q-7 -1 -13 -1.5t-13 -0.5t-13 0.5t-13 1.5q-13 2 -25 7t-24 11
q-11 7 -21 15t-18 18q-18 18 -30 42q-24 46 -24 100q0 53 25 99q13 25 30 43q18 18 41 32q25 13 51 17q6 2 13 2h13q12 0 26 -3q14 -2 26.5 -6.5t23.5 -11.5t21.5 -15.5t19.5 -17.5q6 -8 0 -16q-9 -7 -16 1q-14 17 -35 30q-22 12 -43 17q-6 2 -12 2h-11h-12t-11 -1
q-24 -3 -45 -15q-20 -11 -37 -28q-15 -15 -28 -38q-23 -43 -23 -91q-2 -27 4 -49q3 -11 7 -22.5t9 -22.5q10 -21 27 -39q8 -9 17 -16.5t19 -13.5q22 -13 45 -17q6 -2 11.5 -2t11.5 -1q6 0 12 0.5t12 1.5q24 3 45 15q20 11 39 29q1 2 3 2t4 -2q3 -4 0 -7z" />
    <glyph glyph-name="registered" unicode="&#xae;" horiz-adv-x="486" 
d="M232 -10q-47 0 -89.5 19.5t-74.5 57.5q-33 37 -50.5 84t-17.5 99q0 53 17.5 100t50.5 84q32 38 74.5 57.5t89.5 19.5t89.5 -19.5t74.5 -57.5q33 -37 50.5 -84t17.5 -100q0 -52 -17.5 -99t-50.5 -84q-32 -38 -74.5 -57.5t-89.5 -19.5zM232 491q-44 0 -82.5 -19
t-67.5 -51.5t-45.5 -76.5t-16.5 -94t16.5 -93.5t45.5 -76t67.5 -51.5t82.5 -19t82.5 19t67.5 51.5t45.5 76t16.5 93.5t-16.5 94t-45.5 76.5t-67.5 51.5t-82.5 19zM156 90l-1 319q0 4 4 5h1h2l3 1q3 0 6 1q2 0 5 0.5t6 0.5q6 1 11.5 1.5t12.5 0.5h11t12 -1q12 0 23 -3
q6 -2 12 -3.5t11 -3.5q5 -3 10.5 -6t10.5 -7q11 -9 16 -18q6 -10 9 -23q3 -11 3 -23q0 -6 -0.5 -12t-1.5 -12t-3 -11.5t-4 -11.5l-6 -10t-8 -10q-7 -7 -19 -14q-6 -2 -11.5 -4t-11.5 -4q-5 -1 -11.5 -1.5t-11.5 -1.5h-12q-4 0 -6 1h-3h-1h-2l3 5l126 -152q4 -5 -1 -10
q-5 -4 -10 1v1l-120 157q-2 2 1 4h2h1h2h3q3 0 5 -1q8 0 12 1q5 0 10.5 0.5t10.5 1.5q10 2 21 8q12 7 18 13q4 4 7 8.5t5 9.5q4 10 6 21q2 6 2 11.5v11.5q0 10 -3 22q-1 10 -8 20q-3 5 -6.5 8.5l-7.5 7.5q-9 6 -19 11q-5 2 -10.5 3t-10.5 3q-12 3 -23 3q-5 0 -11 0.5
t-11 -0.5h-11.5t-11.5 -1q-3 -1 -5.5 -1t-5.5 -1q-2 0 -3 -0.5t-3 -0.5h-2l-2 -1h-1l4 5l-1 -319q0 -4 -4 -4t-4 4z" />
    <glyph glyph-name="dagger" unicode="&#x2020;" horiz-adv-x="304" 
d="M152 -36q-10 0 -10 10v656q0 10 10 10t10 -10v-656q0 -10 -10 -10zM273 442h-242q-10 0 -10 10t10 10h242q10 0 10 -10t-10 -10z" />
    <glyph glyph-name="daggerdbl" unicode="&#x2021;" horiz-adv-x="304" 
d="M152 -36q-10 0 -10 10v656q0 10 10 10t10 -10v-656q0 -10 -10 -10zM273 164h-242q-10 0 -10 10t10 10h242q10 0 10 -10t-10 -10zM273 430h-242q-10 0 -10 10t10 10h242q10 0 10 -10t-10 -10z" />
    <glyph glyph-name="endash" unicode="&#x2013;" horiz-adv-x="406" 
d="M360 317h-342q-10 0 -10 10t10 10h342q10 0 10 -10t-10 -10z" />
    <glyph glyph-name="emdash" unicode="&#x2014;" horiz-adv-x="541" 
d="M480 317h-462q-10 0 -10 10t10 10h462q10 0 10 -10t-10 -10z" />
    <glyph glyph-name="minus" unicode="&#x2212;" horiz-adv-x="304" 
d="M260 317h-242q-10 0 -10 10t10 10h242q10 0 10 -10t-10 -10z" />
    <glyph glyph-name="logicalnot" unicode="&#xac;" horiz-adv-x="304" 
d="M243 317h-225q-10 0 -10 10t10 10h242q10 0 10 -10q0 -2 -0.5 -2.5t-0.5 -2.5v-66h-26v61z" />
    <glyph glyph-name="ordfeminine" unicode="&#xaa;" horiz-adv-x="379" 
d="M237.823 570.664q-14.8906 -0.595703 -29.4844 -0.893555q-14.5928 -0.297852 -28.8887 -2.68164q-13.1035 -1.78711 -27.9951 -6.55371q-14.2949 -4.7666 -25.0166 -11.3203q-2.97852 -2.38379 -5.65918 -4.1709q-2.67969 -1.78809 -5.6582 -4.1709
q-1.19141 -1.19141 -2.68066 -2.38379q-1.48926 -1.19141 -2.67969 -2.38281l-1.19141 -1.19238l-1.19141 -1.19141q-0.595703 -1.19141 -1.19141 -1.48926t-1.19141 -1.48926q-4.76465 -4.7666 -8.04102 -10.7256q-3.27637 -5.95801 -6.25391 -12.5117
q-10.126 -26.2168 -3.57422 -54.2207q2.97852 -14.8955 9.53027 -25.6201q1.78711 -2.97949 3.57422 -5.66016q1.78613 -2.68164 4.16895 -5.06445q1.19141 -1.19141 2.38281 -2.68164q1.19141 -1.48926 2.38281 -2.68066l0.595703 -0.59668q0.594727 0 0.594727 -0.595703
h0.595703l0.595703 -0.595703q0.595703 -1.19141 1.19141 -1.48926t1.19141 -0.893555q10.126 -7.74609 23.8262 -12.5127q11.9121 -4.1709 27.3994 -5.95801q13.1035 -1.78711 27.9951 -1.78711q14.8906 1.19141 27.9951 3.57422q15.4863 2.97949 26.8037 7.74609
q5.95605 2.38281 11.9131 5.95801q5.95605 4.1709 9.53027 8.3418q5.95605 5.3623 12.5078 0q5.95703 -6.55371 0 -12.5127q-5.36035 -5.3623 -13.1035 -10.1289q-7.14746 -4.7666 -14.2959 -7.14941q-7.74316 -2.97949 -15.1885 -5.06445
q-7.44531 -2.08594 -15.1885 -3.27734q-16.6787 -2.97949 -30.3779 -2.97949q-7.74316 -0.595703 -15.4873 0q-7.74316 0.595703 -15.4863 1.78809q-7.74316 1.19141 -15.1885 2.68066q-7.44629 1.49023 -14.5938 4.46875q-14.8906 5.3623 -27.9951 15.4912
q-1.78711 1.19238 -2.97852 2.97949l-1.19043 0.595703l-0.595703 0.595703l-0.595703 0.595703l-0.595703 0.595703q-1.78711 1.78809 -2.97852 3.27734q-1.19141 1.49023 -2.38281 2.68164q-4.76465 5.95801 -8.93457 13.7041q-4.16895 6.55371 -6.84961 14.002
q-2.68066 7.44727 -4.46777 15.1934q-5.36035 32.7705 5.95703 61.9658q5.95605 13.7041 16.6777 26.2158q1.19141 1.19238 1.48926 1.78809t1.48926 1.19141q0.595703 0.595703 0.595703 0.893555t0.595703 0.893555l1.78613 1.19141q3.57422 3.5752 5.36133 4.76758
q6.55176 5.95801 13.1035 8.93652q13.1045 7.74609 27.9951 12.5127q13.7002 4.1709 29.7822 5.95801q15.4873 1.78809 30.0801 2.08594q14.5938 0.297852 29.4844 0.297852q4.16992 0 4.16992 -4.1709t-4.16992 -4.1709zM91.2949 654.676
q0.595703 0.595703 0.893555 0.595703t0.893555 0.595703l1.19141 1.19141q1.19141 0.595703 2.97852 2.38379q1.19141 1.19141 2.97852 2.08496q1.78613 0.893555 2.97754 2.08594q2.97852 1.78711 6.25488 3.57422q3.27539 1.78809 6.84961 3.5752
q6.55176 2.97949 13.4014 5.3623q6.85059 2.38379 13.998 4.1709q6.55176 1.78711 13.998 2.68164q7.44531 0.893555 14.5928 1.48926t14.2949 0.595703q7.14844 0 14.2959 -1.19141q14.8906 -1.78809 28.5908 -7.15039t25.6123 -16.0869q11.9131 -10.7246 17.8691 -23.833
q3.57422 -6.55469 5.95703 -13.7041t4.16895 -14.2998q1.19141 -7.15039 1.78711 -14.5977q0.595703 -7.44824 0.595703 -14.5977l0.595703 -28.0039l0.595703 -56.6035l0.595703 -112.015q0.595703 -3.5752 -2.08496 -6.25684q-2.68066 -2.68066 -6.25391 -2.68066
q-3.57422 0 -5.95703 2.68066q-2.38184 2.68164 -2.97754 6.25684l1.19141 112.015l0.595703 56.6035l0.595703 28.0039q0 14.8955 -2.38281 26.8125q-1.19141 6.55371 -2.97852 12.5117t-4.76465 12.5127q-2.97852 5.95801 -6.85059 11.0225
q-3.87109 5.06445 -8.63672 9.83105q-8.93457 7.74609 -21.4434 13.7041q-12.5078 5.3623 -25.6123 7.15039q-14.8906 1.78711 -26.8037 1.19141q-13.7002 -0.595703 -27.3994 -3.5752q-12.5088 -2.38379 -25.6123 -8.3418q-2.97852 -1.19141 -5.95703 -2.97852
q-2.97852 -1.78809 -5.95605 -3.5752l-5.36133 -3.5752q-1.19141 -0.595703 -2.38184 -1.78711q-0.595703 -0.595703 -0.893555 -0.595703t-0.893555 -0.59668q0 -0.595703 -0.297852 -0.595703t-0.297852 -0.595703h-0.595703q-1.19141 -1.19141 -2.97852 -0.893555
t-2.97852 1.48926q-2.38184 2.38379 0 5.95898z" />
    <glyph glyph-name="section" unicode="&#xa7;" horiz-adv-x="432" 
d="M262 494q-6 -1 -25 -2.5t-41 -3.5t-41.5 -4t-24.5 -4q-23 -7 -40 -18q-21 -11 -34 -27q-15 -17 -21 -36q-2 -5 -3 -10t-1 -10v-11t1 -11q1 -9 5 -20q5 -12 10 -18q11 -15 33 -25q9 -5 19.5 -8.5t21.5 -5.5q47 -9 91 -12q12 -2 23.5 -3t23.5 -3t23.5 -4.5t23.5 -6.5
q24 -6 45 -20q10 -8 20 -17q5 -5 8.5 -10.5t6.5 -10.5q3 -6 5.5 -12t4.5 -12t3 -12.5t2 -12.5q1 -4 1 -12v-6v-2v-2v-1v-2q0 -7 -1 -13.5t-3 -12.5q-9 -25 -26 -44q-9 -10 -18.5 -17.5t-20.5 -14.5q-25 -13 -45 -20q-12 -4 -24 -6.5t-24 -4.5q-6 -1 -12 -1t-12 -1h-12h-13
q-12 1 -24 2.5t-24 4.5t-24 7t-23 9q-21 9 -42 26q-10 8 -18.5 18t-15.5 21q-5 10 -10 25q-2 6 -2.5 12.5t-1.5 13.5q0 6 4.5 10.5t10.5 4.5q14 0 14 -14v-1q0 -17 10 -37q10 -17 27 -31q8 -8 17 -13t19 -10q21 -10 41 -14q45 -11 88 -5q22 2 43 9q11 3 20.5 7.5t19.5 9.5
q9 6 17.5 12.5t15.5 14.5q15 15 21 35q2 5 2.5 9.5t1.5 9.5v1v1v1v1v1v6q-1 3 -1 10q-2 11 -4.5 21t-7.5 19q-5 10 -12 17q-5 6 -15 13q-18 12 -39 18q-11 4 -22 6l-22 4t-22.5 3.5t-22.5 3.5q-12 1 -23.5 2t-23.5 3q-11 2 -23 4t-23 4q-12 3 -24 6.5t-23 9.5
q-5 2 -10.5 5.5t-10.5 7.5t-9.5 9t-8.5 10t-7.5 11t-5.5 12q-5 12 -6 24q0 4 -0.5 7t-0.5 6v3v3v2v1v3q1 7 2 13.5t3 12.5q7 24 25 43q17 17 39 31q11 6 22 10.5t22 8.5q12 4 24 6l24 4q11 2 23.5 3.5t23.5 -2.5zM382 625v2v1v2q0 4 -1 6q0 4 -2 10q-3 12 -8 20
q-5 9 -12.5 17t-15.5 16q-17 14 -38 23q-21 10 -42 14q-43 10 -89 4l-22 -4t-22 -6q-23 -7 -40 -18q-21 -11 -34 -27q-15 -17 -21 -36q-2 -5 -3 -10t-1 -10v-11t1 -11q1 -9 5 -20q5 -12 10 -18q11 -15 33 -25q9 -5 19.5 -8.5t21.5 -5.5t22.5 -3.5t22.5 -3.5t23 -3t23 -2
q12 -2 23.5 -3t23.5 -3t23.5 -4.5t23.5 -6.5q24 -6 45 -20q10 -8 20 -17q5 -5 8.5 -10.5t6.5 -10.5q3 -6 5.5 -12t4.5 -12t3 -12.5t2 -12.5q1 -4 1 -12v-6v-2v-2v-1v-2q0 -7 -1 -13.5t-3 -12.5q-9 -25 -26 -44q-9 -10 -18.5 -17.5t-20.5 -14.5q-25 -13 -45 -20
q-12 -4 -21 -1t-20 4q-38 3 -50 4.5t-8 3t20.5 3t37 5t41 9t32.5 14.5q9 6 17.5 12.5t15.5 14.5q15 15 21 35q2 5 2.5 9.5t1.5 9.5v1v1v1v1v1v6q-1 3 -1 10q-2 11 -4.5 21t-7.5 19q-5 10 -12 17q-5 6 -15 13q-18 12 -39 18q-11 4 -22 6l-22 4t-22.5 3.5t-22.5 3.5
q-12 1 -23.5 2t-23.5 3q-11 2 -23 4t-23 4q-12 3 -24 6.5t-23 9.5q-5 2 -10.5 5.5t-10.5 7.5t-9.5 9t-8.5 10t-7.5 11t-5.5 12q-5 12 -6 24q0 4 -0.5 7t-0.5 6v3v3v2v1v3q1 7 2 13.5t3 12.5q7 24 25 43q17 17 39 31q11 6 22 10.5t22 8.5q12 4 24 6l24 4q11 2 23 2t24 -1
q12 0 24 -2l24 -4q26 -7 45 -16q11 -5 21.5 -11.5t20.5 -14.5q19 -16 31 -38q3 -5 5.5 -11t4.5 -12q1 -3 1 -6t1 -6q0 -4 1 -7v-3v-1v-2q0 -8 -8 -8t-8 8z" />
    <glyph glyph-name="yen" unicode="&#xa5;" horiz-adv-x="417" 
d="M-24 704l249 -393h-25l217 393q4 8 12 4q7 -5 4 -12l-208 -399q-7 -13 -19 -6q-4 1 -6 5l-238 399q-2 3 -1 6.5t4 5.5q8 4 11 -3zM212 -9q-6 0 -10 4.5t-4 10.5v298q0 14 14 14q6 0 10.5 -4t4.5 -10v-298q0 -6 -4.5 -10.5t-10.5 -4.5zM329 177h-242q-10 0 -10 10t10 10
h242q10 0 10 -10t-10 -10zM329 257h-242q-10 0 -10 10t10 10h242q10 0 10 -10t-10 -10z" />
    <glyph glyph-name="exclamdown" unicode="&#xa1;" horiz-adv-x="112" 
d="M48 550.008q-10 0 -10 -10v-575.965q0 -9.99902 10 -9.99902t10 9.99902v575.965q0 10 -10 10zM48 717.997q-10 0 -10 -9.99902v-83.9951q0 -9.99902 10 -9.99902t10 9.99902v83.9951q0 9.99902 -10 9.99902z" />
    <glyph glyph-name="questiondown" unicode="&#xbf;" horiz-adv-x="406" 
d="M374.998 -15.9648q0 -2 -0.5 -2.5t-0.5 -1.5q-1 -0.999023 -1 -2.99902q-1 -2 -1.5 -3.5t-1.49902 -3.5q-2 -3 -3.5 -5.99902q-1.5 -3 -3.5 -6q-4 -6 -7.5 -11.999q-3.49902 -6 -8.49902 -12q-8.99902 -10.999 -18.999 -20.998q-9.99902 -10 -21.998 -17.999
q-11 -8 -23.499 -14.499q-12.499 -6.5 -26.498 -11.5q-28.998 -9.99902 -54.9971 -10.999q-6.99902 -1 -13.999 -1h-13.999h-13.999q-7 0 -13.999 2q-30.998 3 -54.9971 15.999q-11.999 5 -24.998 14.999q-11 8 -20.999 19.999q-18.999 21.999 -29.998 48.9971
t-14.999 54.9961q-2 14 -3 27.999l-2 27.998v13.499t1 14.499q1 7 1.5 13.999q0.5 7 2.5 13.999q5.99902 28.999 17.999 53.9971q11.999 25.998 29.998 48.9971q16.999 22.999 37.9971 40.9971q11 10 21.999 18.499q10.999 8.5 22.999 16.499q5.99902 4 11.999 7.5
q5.99902 3.5 11.999 6.49902q3 2 6.5 3.5q3.49902 1.5 6.49902 3.5l6 3l4 1l1 1l1.99902 0.999023l-8.99902 -13.999v103.994q0 5.99902 4 10.499q3.99902 4.5 10.999 4.5q6 0 9.99902 -4.5q4 -4.5 4 -10.499v-103.994q0 -8.99902 -8.99902 -12.999l-1 -1h-2l-3 -2
q-2 -1 -3 -1t-3 -1q-2.99902 -1.99902 -5.49902 -2.99902t-5.5 -3q-5.99902 -3 -11.499 -6.5q-5.5 -3.49902 -11.499 -6.49902q-11 -7 -21.499 -14.999q-10.499 -8 -20.499 -15.999q-40.9971 -35.998 -62.9961 -79.9951q-5.99902 -12 -9.99902 -23.999t-7 -24.998
q-2 -6 -2.5 -12.5q-0.5 -6.49902 -1.5 -12.499q-0.999023 -6.99902 -0.999023 -12.999v-12.999q0 -28.998 3.99902 -51.9971q3 -28.998 13 -50.9971q4.99902 -10.999 10.999 -21.998q5.99902 -11 13.999 -20.999q17.999 -20.999 38.998 -30.998
q22.998 -11.999 47.9961 -14.999q7 -1 13.5 -1.5q6.49902 -0.5 12.499 -0.5q6.99902 -1 13.499 -0.5t13.499 0.5q12.999 2 25.499 4q12.499 2 24.498 5.99902q26.998 9 46.9971 22.999q20.999 14.999 37.998 34.998q3.99902 4.99902 7.49902 10.499t7.5 11.499
q2 3 5.99902 11l3 5.99902q0 2 1 3q0 1 0.5 1.5t0.5 1.5q2 7.99902 9.99902 4q8 -2 4 -9zM186.01 603.998q6 0 10.499 -4.5q4.5 -4.5 4.5 -10.5v-67.9951q0 -6 -4.5 -10q-4.49902 -3.99902 -10.499 -3.99902q-13.999 0 -13.999 13.999v67.9951q0 6 4 10.5
q3.99902 4.5 9.99902 4.5z" />
    <glyph glyph-name="Ydieresis" unicode="&#x178;" horiz-adv-x="417" 
d="M-24 704l249 -393h-25l217 393q4 8 12 4q7 -5 4 -12l-208 -399q-7 -13 -19 -6q-4 1 -6 5l-238 399q-2 3 -1 6.5t4 5.5q8 4 11 -3zM212 -9q-6 0 -10 4.5t-4 10.5v298q0 14 14 14q6 0 10.5 -4t4.5 -10v-298q0 -6 -4.5 -10.5t-10.5 -4.5zM283 808q-10 0 -10 10v52
q0 10 10 10t10 -10v-52q0 -10 -10 -10zM133 808q-10 0 -10 10v52q0 10 10 10t10 -10v-52q0 -10 -10 -10z" />
    <glyph glyph-name="bullet" unicode="&#x2022;" horiz-adv-x="301" 
d="M32 383q0 23 8.5 43t23 35t34.5 23.5t43 8.5t43 -8.5t35 -23.5t23.5 -35t8.5 -43t-8.5 -43t-23.5 -34.5t-35 -23t-43 -8.5t-43 8.5t-34.5 23t-23 34.5t-8.5 43z" />
    <glyph glyph-name="degree" unicode="&#xb0;" horiz-adv-x="213" 
d="M89 553q-35 0 -60 25t-25 60t25 60t60 25t60 -25t25 -60t-25 -60t-60 -25zM89 703q-27 0 -46 -19t-19 -46t19 -46t46 -19t46 19t19 46t-19 46t-46 19z" />
    <glyph glyph-name="trademark" unicode="&#x2122;" horiz-adv-x="494" 
d="M90 709l3 -366q0 -8 -7 -8q-8 0 -8 8l3 366q0 5 5 5q4 0 4 -5zM181 704h-199q-5 0 -5 5t5 5h199q5 0 5 -5t-5 -5zM235 651l104 -212h-10l115 273q4 6 9 3q5 -2 5 -6v-366q0 -8 -8 -8q-7 0 -7 8l1 366l13 -2l-118 -272q-2 -7 -8 -3q-2 0 -2 2l-102 213q-2 4 3 6q3 2 5 -2z
M195 709l3 -366q0 -8 -8 -8q-7 0 -7 8l3 366q0 5 4 5q5 0 5 -5z" />
    <glyph glyph-name="periodcentered" unicode="&#xb7;" horiz-adv-x="106" 
d="M46 316q-10 0 -10 10v54q0 10 10 10t10 -10v-54q0 -10 -10 -10z" />
    <glyph glyph-name="periodcentered" unicode="&#x2219;" horiz-adv-x="106" 
d="M46 316q-10 0 -10 10v54q0 10 10 10t10 -10v-54q0 -10 -10 -10z" />
    <glyph glyph-name="plusminus" unicode="&#xb1;" horiz-adv-x="304" 
d="M260 317h-242q-10 0 -10 10t10 10h242q10 0 10 -10t-10 -10zM139 197q-10 0 -10 10v240q0 10 10 10t10 -10v-240q0 -10 -10 -10zM260 147h-242q-10 0 -10 10t10 10h242q10 0 10 -10t-10 -10z" />
    <glyph glyph-name="mu.001" horiz-adv-x="833" 
 />
    <glyph glyph-name="mu" unicode="&#xb5;" horiz-adv-x="470" 
d="M390 64l-3 -3q0 -1 -2 -3q-1 -2 -2 -2.5t-2 -2.5q-2 -2 -5 -4.5t-5 -4.5q-5 -5 -10 -9t-10 -9q-20 -16 -46 -27q-12 -6 -25 -10t-27 -6q-7 -1 -13.5 -1.5t-13.5 -0.5h-6h-7q-3 0 -6 0.5t-7 0.5q-13 1 -26 2.5t-26 4.5q-14 4 -26 8.5t-24 12.5q-12 7 -22.5 15.5
t-19.5 18.5q-18 23 -28 46q-5 12 -9 24.5t-7 25.5t-4.5 26t-2.5 26q-1 6 -1 12.5v13.5v12v13v51l2 202q0 8 8 8t8 -8l2 -202v-51v-13v-12q1 -6 1 -12t1 -13q1 -12 2.5 -24t4.5 -24q6 -23 15 -46q5 -11 11.5 -21t14.5 -18q15 -18 36 -30q10 -6 21 -10t23 -7q22 -4 47 -6h13h6
h6q6 0 12 0.5t11 1.5q23 3 45 14q21 9 40 25q5 3 9.5 7t8.5 8l9 9q1 1 1.5 2t1.5 2l2 2l2 2q3 5 8.5 6t10.5 -3q10 -8 3 -19zM432 495l3 -255v-64l1 -32v-16v-8v-4v-1v-2v-1v-15t1 -15q1 -15 6 -30q4 -16 10 -25q2 -4 8 -10q2 -4 9 -7q12 -7 6 -20q-2 -5 -8 -7t-12 1
q-11 5 -16 12q-8 8 -12 16q-8 15 -13 33q-2 9 -3 17.5t-2 16.5t-1 16.5v17.5l1 2v1v-1v1v4v8v16v32l1 64l3 255q0 9 9 9t9 -9zM15 -176q-10 0 -10 10v656q0 10 10 10t10 -10v-656q0 -10 -10 -10z" />
    <glyph glyph-name="mu" unicode="&#x3bc;" horiz-adv-x="470" 
d="M390 64l-3 -3q0 -1 -2 -3q-1 -2 -2 -2.5t-2 -2.5q-2 -2 -5 -4.5t-5 -4.5q-5 -5 -10 -9t-10 -9q-20 -16 -46 -27q-12 -6 -25 -10t-27 -6q-7 -1 -13.5 -1.5t-13.5 -0.5h-6h-7q-3 0 -6 0.5t-7 0.5q-13 1 -26 2.5t-26 4.5q-14 4 -26 8.5t-24 12.5q-12 7 -22.5 15.5
t-19.5 18.5q-18 23 -28 46q-5 12 -9 24.5t-7 25.5t-4.5 26t-2.5 26q-1 6 -1 12.5v13.5v12v13v51l2 202q0 8 8 8t8 -8l2 -202v-51v-13v-12q1 -6 1 -12t1 -13q1 -12 2.5 -24t4.5 -24q6 -23 15 -46q5 -11 11.5 -21t14.5 -18q15 -18 36 -30q10 -6 21 -10t23 -7q22 -4 47 -6h13h6
h6q6 0 12 0.5t11 1.5q23 3 45 14q21 9 40 25q5 3 9.5 7t8.5 8l9 9q1 1 1.5 2t1.5 2l2 2l2 2q3 5 8.5 6t10.5 -3q10 -8 3 -19zM432 495l3 -255v-64l1 -32v-16v-8v-4v-1v-2v-1v-15t1 -15q1 -15 6 -30q4 -16 10 -25q2 -4 8 -10q2 -4 9 -7q12 -7 6 -20q-2 -5 -8 -7t-12 1
q-11 5 -16 12q-8 8 -12 16q-8 15 -13 33q-2 9 -3 17.5t-2 16.5t-1 16.5v17.5l1 2v1v-1v1v4v8v16v32l1 64l3 255q0 9 9 9t9 -9zM15 -176q-10 0 -10 10v656q0 10 10 10t10 -10v-656q0 -10 -10 -10z" />
    <glyph glyph-name="Agrave" unicode="&#xc0;" horiz-adv-x="484" 
d="M-24 2l244 703q1 3 4 5t7 0q5 -2 5 -5l243 -700q5 -14 -9 -19q-5 -2 -10.5 0.5t-7.5 8.5l-232 704h16l-233 -707q-2 -5 -7.5 -8t-10.5 -1q-14 5 -9 18v1zM411 141l-318 6q-8 0 -8 9t8 9l318 5q6 1 10.5 -3.5t4.5 -10.5q0 -13 -14 -15h-1zM362 778h-3l-240 72q-9 3 -7 13
q4 9 13 6l240 -72q10 -2 6 -12q-2 -7 -9 -7z" />
    <glyph glyph-name="thorn" unicode="&#xfe;" horiz-adv-x="425" 
d="M6 -230l4 581l2 176l1 44v22v5v2v1v1v3q1 3 1 11l4 22l4 22q2 5 3.5 11t3.5 11q2 2 2.5 5t2.5 6q4 6 8 10q5 5 10 0t0 -10q-3 -3 -5 -7q-2 -3 -4 -9q-2 -5 -3 -10.5t-3 -10.5q-2 -10 -3.5 -20.5t-3.5 -21.5q0 -7 -1 -11v-2v-1v-1v1v-2v-5v-22l1 -44l2 -176l3 -581
q1 -6 -3.5 -10.5t-10.5 -4.5t-10 4.5t-5 10.5zM103 504l50 1h26h12h6h2h2h3q7 -1 13.5 -1.5t12.5 -2.5q7 -2 13 -3.5t12 -3.5q25 -7 47 -23q11 -7 21 -15.5t18 -18.5q9 -11 16.5 -21.5t12.5 -22.5q6 -11 10.5 -23.5t8.5 -24.5q7 -23 10 -51q3 -26 3 -52t-3 -51
q-3 -28 -10 -51q-4 -13 -8.5 -25t-11.5 -24q-13 -24 -32 -43q-9 -10 -20 -17.5t-22 -14.5q-12 -7 -24.5 -11.5t-25.5 -8.5q-7 -2 -13.5 -2.5t-12.5 -1.5q-4 -1 -7 -1t-7 -1h-7h-3h-2h-2h2h-1h-2h-3q-2 0 -2.5 -0.5t-2.5 -0.5h-12h-22q-23 1 -46 6q-11 2 -22 5t-22 8
q-24 10 -42 22q-11 9 -3 21q4 5 9.5 6t10.5 -3h1q16 -13 35 -20q18 -8 39 -12q19 -4 41 -6q5 -1 10.5 -1h10.5h11h5l2 1h3h2h1h1h3h6q8 0 12 1q5 1 11 1.5t12 2.5q11 2 22 6.5t22 9.5q20 10 38 28t29 37l10 22t8 22q4 11 6.5 23t4.5 24q3 25 3 49v25t-2 25q-3 24 -9 48
q-7 26 -16 45q-10 22 -26 41q-8 9 -16.5 17t-19.5 15q-10 7 -20.5 12.5t-22.5 9.5q-5 2 -11 3.5t-12 3.5t-12 2.5t-12 1.5h-3h-1h-2h-6h-12h-26l-50 1q-6 0 -6 6t6 6z" />
    <glyph glyph-name="ydieresis" unicode="&#xff;" horiz-adv-x="407" 
d="M103 -244l18 47l18 46l37 94q9 23 18.5 46.5t18.5 46.5l37 93l38 93l19 47l9 23l10 23l37 93l20 47l9 23l10 23q3 9 11 5q9 -4 5 -11l-8 -24l-9 -23l-17 -47l-36 -94l-8 -24l-9 -23l-18 -47l-35 -94l-36 -94q-9 -23 -18 -47t-18 -47l-36 -93l-18 -47l-19 -47
q-2 -6 -8.5 -9t-12.5 0q-6 2 -9 8.5t0 12.5zM-2 506l29 -61l29 -62l57 -124l58 -124l28 -62l29 -62q3 -8 0.5 -15t-10.5 -11q-7 -3 -14.5 -0.5t-11.5 10.5l-26 63l-27 63l-52 126l-53 126l-26 63l-26 64q-3 7 5 11q8 2 11 -5zM278 608q-10 0 -10 10v52q0 10 10 10t10 -10
v-52q0 -10 -10 -10zM128 608q-10 0 -10 10v52q0 10 10 10t10 -10v-52q0 -10 -10 -10z" />
    <glyph glyph-name="Aacute" unicode="&#xc1;" horiz-adv-x="484" 
d="M-24 2l244 703q1 3 4 5t7 0q5 -2 5 -5l243 -700q5 -14 -9 -19q-5 -2 -10.5 0.5t-7.5 8.5l-232 704h16l-233 -707q-2 -5 -7.5 -8t-10.5 -1q-14 5 -9 18v1zM411 141l-318 6q-8 0 -8 9t8 9l318 5q6 1 10.5 -3.5t4.5 -10.5q0 -13 -14 -15h-1zM116 770q-7 0 -10 7q-2 9 7 12
l252 90q8 3 12 -6t-6 -13l-252 -90h-3z" />
    <glyph glyph-name="Acircumflex" unicode="&#xc2;" horiz-adv-x="484" 
d="M-24 2l244 703q1 3 4 5t7 0q5 -2 5 -5l243 -700q5 -14 -9 -19q-5 -2 -10.5 0.5t-7.5 8.5l-232 704h16l-233 -707q-2 -5 -7.5 -8t-10.5 -1q-14 5 -9 18v1zM411 141l-318 6q-8 0 -8 9t8 9l318 5q6 1 10.5 -3.5t4.5 -10.5q0 -13 -14 -15h-1zM242 887q2 0 6 -2l132 -96
q7 -5 2 -14q-5 -7 -14 -2l-126 92l-126 -92q-8 -6 -14 2q-5 9 2 14l132 96q4 2 6 2z" />
    <glyph glyph-name="Atilde" unicode="&#xc3;" horiz-adv-x="484" 
d="M-24 2l244 703q1 3 4 5t7 0q5 -2 5 -5l243 -700q5 -14 -9 -19q-5 -2 -10.5 0.5t-7.5 8.5l-232 704h16l-233 -707q-2 -5 -7.5 -8t-10.5 -1q-14 5 -9 18v1zM411 141l-318 6q-8 0 -8 9t8 9l318 5q6 1 10.5 -3.5t4.5 -10.5q0 -13 -14 -15h-1zM89 793q-3 0 -5 1q-10 4 -4 13
q0 1 4 8t12 16t20 17.5t29 13.5q47 14 101 -19q36 -22 62 -24t43.5 4.5t26 16t9.5 10.5q5 8 14 3q8 -6 3 -14q-1 -1 -11.5 -12.5t-30.5 -20.5q-20 -8 -51 -7.5t-75 26.5q-47 30 -85 18q-14 -4 -23.5 -11t-16.5 -15q-8 -9 -13 -18q-3 -6 -9 -6z" />
    <glyph glyph-name="Adieresis" unicode="&#xc4;" horiz-adv-x="484" 
d="M-24 2l244 703q1 3 4 5t7 0q5 -2 5 -5l243 -700q5 -14 -9 -19q-5 -2 -10.5 0.5t-7.5 8.5l-232 704h16l-233 -707q-2 -5 -7.5 -8t-10.5 -1q-14 5 -9 18v1zM411 141l-318 6q-8 0 -8 9t8 9l318 5q6 1 10.5 -3.5t4.5 -10.5q0 -13 -14 -15h-1zM317 808q-10 0 -10 10v52
q0 10 10 10t10 -10v-52q0 -10 -10 -10zM167 808q-10 0 -10 10v52q0 10 10 10t10 -10v-52q0 -10 -10 -10z" />
    <glyph glyph-name="Aring" unicode="&#xc5;" horiz-adv-x="484" 
d="M-24 2l244 703q1 3 4 5t7 0q5 -2 5 -5l243 -700q5 -14 -9 -19q-5 -2 -10.5 0.5t-7.5 8.5l-232 704h16l-233 -707q-2 -5 -7.5 -8t-10.5 -1q-14 5 -9 18v1zM411 141l-318 6q-8 0 -8 9t8 9l318 5q6 1 10.5 -3.5t4.5 -10.5q0 -13 -14 -15h-1zM242 753q-35 0 -60 25t-25 60
t25 60t60 25t60 -25t25 -60t-25 -60t-60 -25zM242 903q-27 0 -46 -19t-19 -46t19 -46t46 -19t46 19t19 46t-19 46t-46 19z" />
    <glyph glyph-name="aring" unicode="&#xe5;" horiz-adv-x="379" 
d="M270 320q-25 -1 -49.5 -1.5t-48.5 -4.5q-22 -3 -47 -11q-24 -8 -42 -19q-5 -4 -9.5 -7t-9.5 -7q-2 -2 -4.5 -4t-4.5 -4l-2 -2l-2 -2q-1 -2 -2 -2.5t-2 -2.5q-8 -8 -13.5 -18t-10.5 -21q-17 -44 -6 -91q5 -25 16 -43q3 -5 6 -9.5t7 -8.5q2 -2 4 -4.5t4 -4.5l1 -1q1 0 1 -1
h1l1 -1q1 -2 2 -2.5t2 -1.5q17 -13 40 -21q20 -7 46 -10q22 -3 47 -3q25 2 47 6q26 5 45 13q10 4 20 10q10 7 16 14q10 9 21 0q10 -11 0 -21q-9 -9 -22 -17q-12 -8 -24 -12q-13 -5 -25.5 -8.5t-25.5 -5.5q-28 -5 -51 -5q-13 -1 -26 0t-26 3t-25.5 4.5t-24.5 7.5
q-25 9 -47 26q-3 2 -5 5l-2 1l-1 1l-1 1l-1 1q-3 3 -5 5.5t-4 4.5q-8 10 -15 23q-7 11 -11.5 23.5t-7.5 25.5q-9 55 10 104q10 23 28 44q2 2 2.5 3t2.5 2q1 1 1 1.5t1 1.5l3 2q6 6 9 8q11 10 22 15q22 13 47 21q23 7 50 10q26 3 50.5 3.5t49.5 0.5q7 0 7 -7t-7 -7zM24 461
q1 1 1.5 1t1.5 1l2 2q2 1 5 4q2 2 5 3.5t5 3.5q5 3 10.5 6t11.5 6q11 5 22.5 9t23.5 7q11 3 23.5 4.5t24.5 2.5t24 1t24 -2q25 -3 48 -12t43 -27t30 -40q6 -11 10 -23t7 -24q2 -12 3 -24.5t1 -24.5l1 -47l1 -95l1 -188q1 -6 -3.5 -10.5t-10.5 -4.5t-10 4.5t-5 10.5l2 188
l1 95l1 47q0 25 -4 45q-2 11 -5 21t-8 21q-5 10 -11.5 18.5t-14.5 16.5q-15 13 -36 23q-21 9 -43 12q-25 3 -45 2q-23 -1 -46 -6q-21 -4 -43 -14q-5 -2 -10 -5l-10 -6l-9 -6q-2 -1 -4 -3q-1 -1 -1.5 -1t-1.5 -1q0 -1 -0.5 -1t-0.5 -1h-1q-2 -2 -5 -1.5t-5 2.5q-4 4 0 10z
M189 553q-35 0 -60 25t-25 60t25 60t60 25t60 -25t25 -60t-25 -60t-60 -25zM189 703q-27 0 -46 -19t-19 -46t19 -46t46 -19t46 19t19 46t-19 46t-46 19z" />
    <glyph glyph-name="adieresis" unicode="&#xe4;" horiz-adv-x="379" 
d="M270 320q-25 -1 -49.5 -1.5t-48.5 -4.5q-22 -3 -47 -11q-24 -8 -42 -19q-5 -4 -9.5 -7t-9.5 -7q-2 -2 -4.5 -4t-4.5 -4l-2 -2l-2 -2q-1 -2 -2 -2.5t-2 -2.5q-8 -8 -13.5 -18t-10.5 -21q-17 -44 -6 -91q5 -25 16 -43q3 -5 6 -9.5t7 -8.5q2 -2 4 -4.5t4 -4.5l1 -1q1 0 1 -1
h1l1 -1q1 -2 2 -2.5t2 -1.5q17 -13 40 -21q20 -7 46 -10q22 -3 47 -3q25 2 47 6q26 5 45 13q10 4 20 10q10 7 16 14q10 9 21 0q10 -11 0 -21q-9 -9 -22 -17q-12 -8 -24 -12q-13 -5 -25.5 -8.5t-25.5 -5.5q-28 -5 -51 -5q-13 -1 -26 0t-26 3t-25.5 4.5t-24.5 7.5
q-25 9 -47 26q-3 2 -5 5l-2 1l-1 1l-1 1l-1 1q-3 3 -5 5.5t-4 4.5q-8 10 -15 23q-7 11 -11.5 23.5t-7.5 25.5q-9 55 10 104q10 23 28 44q2 2 2.5 3t2.5 2q1 1 1 1.5t1 1.5l3 2q6 6 9 8q11 10 22 15q22 13 47 21q23 7 50 10q26 3 50.5 3.5t49.5 0.5q7 0 7 -7t-7 -7zM24 461
q1 1 1.5 1t1.5 1l2 2q2 1 5 4q2 2 5 3.5t5 3.5q5 3 10.5 6t11.5 6q11 5 22.5 9t23.5 7q11 3 23.5 4.5t24.5 2.5t24 1t24 -2q25 -3 48 -12t43 -27t30 -40q6 -11 10 -23t7 -24q2 -12 3 -24.5t1 -24.5l1 -47l1 -95l1 -188q1 -6 -3.5 -10.5t-10.5 -4.5t-10 4.5t-5 10.5l2 188
l1 95l1 47q0 25 -4 45q-2 11 -5 21t-8 21q-5 10 -11.5 18.5t-14.5 16.5q-15 13 -36 23q-21 9 -43 12q-25 3 -45 2q-23 -1 -46 -6q-21 -4 -43 -14q-5 -2 -10 -5l-10 -6l-9 -6q-2 -1 -4 -3q-1 -1 -1.5 -1t-1.5 -1q0 -1 -0.5 -1t-0.5 -1h-1q-2 -2 -5 -1.5t-5 2.5q-4 4 0 10z
M264 608q-10 0 -10 10v52q0 10 10 10t10 -10v-52q0 -10 -10 -10zM114 608q-10 0 -10 10v52q0 10 10 10t10 -10v-52q0 -10 -10 -10z" />
    <glyph glyph-name="atilde" unicode="&#xe3;" horiz-adv-x="379" 
d="M270 320q-25 -1 -49.5 -1.5t-48.5 -4.5q-22 -3 -47 -11q-24 -8 -42 -19q-5 -4 -9.5 -7t-9.5 -7q-2 -2 -4.5 -4t-4.5 -4l-2 -2l-2 -2q-1 -2 -2 -2.5t-2 -2.5q-8 -8 -13.5 -18t-10.5 -21q-17 -44 -6 -91q5 -25 16 -43q3 -5 6 -9.5t7 -8.5q2 -2 4 -4.5t4 -4.5l1 -1q1 0 1 -1
h1l1 -1q1 -2 2 -2.5t2 -1.5q17 -13 40 -21q20 -7 46 -10q22 -3 47 -3q25 2 47 6q26 5 45 13q10 4 20 10q10 7 16 14q10 9 21 0q10 -11 0 -21q-9 -9 -22 -17q-12 -8 -24 -12q-13 -5 -25.5 -8.5t-25.5 -5.5q-28 -5 -51 -5q-13 -1 -26 0t-26 3t-25.5 4.5t-24.5 7.5
q-25 9 -47 26q-3 2 -5 5l-2 1l-1 1l-1 1l-1 1q-3 3 -5 5.5t-4 4.5q-8 10 -15 23q-7 11 -11.5 23.5t-7.5 25.5q-9 55 10 104q10 23 28 44q2 2 2.5 3t2.5 2q1 1 1 1.5t1 1.5l3 2q6 6 9 8q11 10 22 15q22 13 47 21q23 7 50 10q26 3 50.5 3.5t49.5 0.5q7 0 7 -7t-7 -7zM24 461
q1 1 1.5 1t1.5 1l2 2q2 1 5 4q2 2 5 3.5t5 3.5q5 3 10.5 6t11.5 6q11 5 22.5 9t23.5 7q11 3 23.5 4.5t24.5 2.5t24 1t24 -2q25 -3 48 -12t43 -27t30 -40q6 -11 10 -23t7 -24q2 -12 3 -24.5t1 -24.5l1 -47l1 -95l1 -188q1 -6 -3.5 -10.5t-10.5 -4.5t-10 4.5t-5 10.5l2 188
l1 95l1 47q0 25 -4 45q-2 11 -5 21t-8 21q-5 10 -11.5 18.5t-14.5 16.5q-15 13 -36 23q-21 9 -43 12q-25 3 -45 2q-23 -1 -46 -6q-21 -4 -43 -14q-5 -2 -10 -5l-10 -6l-9 -6q-2 -1 -4 -3q-1 -1 -1.5 -1t-1.5 -1q0 -1 -0.5 -1t-0.5 -1h-1q-2 -2 -5 -1.5t-5 2.5q-4 4 0 10z
M36 593q-3 0 -5 1q-10 4 -4 13q0 1 4 8t12 16t20 17.5t29 13.5q47 14 101 -19q36 -22 62 -24t43.5 4.5t26 16t9.5 10.5q5 8 14 3q8 -6 3 -14q-1 -1 -11.5 -12.5t-30.5 -20.5q-20 -8 -51 -7.5t-75 26.5q-47 30 -85 18q-14 -4 -23.5 -11t-16.5 -15q-8 -9 -13 -18q-3 -6 -9 -6z
" />
    <glyph glyph-name="acircumflex" unicode="&#xe2;" horiz-adv-x="379" 
d="M270 320q-25 -1 -49.5 -1.5t-48.5 -4.5q-22 -3 -47 -11q-24 -8 -42 -19q-5 -4 -9.5 -7t-9.5 -7q-2 -2 -4.5 -4t-4.5 -4l-2 -2l-2 -2q-1 -2 -2 -2.5t-2 -2.5q-8 -8 -13.5 -18t-10.5 -21q-17 -44 -6 -91q5 -25 16 -43q3 -5 6 -9.5t7 -8.5q2 -2 4 -4.5t4 -4.5l1 -1q1 0 1 -1
h1l1 -1q1 -2 2 -2.5t2 -1.5q17 -13 40 -21q20 -7 46 -10q22 -3 47 -3q25 2 47 6q26 5 45 13q10 4 20 10q10 7 16 14q10 9 21 0q10 -11 0 -21q-9 -9 -22 -17q-12 -8 -24 -12q-13 -5 -25.5 -8.5t-25.5 -5.5q-28 -5 -51 -5q-13 -1 -26 0t-26 3t-25.5 4.5t-24.5 7.5
q-25 9 -47 26q-3 2 -5 5l-2 1l-1 1l-1 1l-1 1q-3 3 -5 5.5t-4 4.5q-8 10 -15 23q-7 11 -11.5 23.5t-7.5 25.5q-9 55 10 104q10 23 28 44q2 2 2.5 3t2.5 2q1 1 1 1.5t1 1.5l3 2q6 6 9 8q11 10 22 15q22 13 47 21q23 7 50 10q26 3 50.5 3.5t49.5 0.5q7 0 7 -7t-7 -7zM24 461
q1 1 1.5 1t1.5 1l2 2q2 1 5 4q2 2 5 3.5t5 3.5q5 3 10.5 6t11.5 6q11 5 22.5 9t23.5 7q11 3 23.5 4.5t24.5 2.5t24 1t24 -2q25 -3 48 -12t43 -27t30 -40q6 -11 10 -23t7 -24q2 -12 3 -24.5t1 -24.5l1 -47l1 -95l1 -188q1 -6 -3.5 -10.5t-10.5 -4.5t-10 4.5t-5 10.5l2 188
l1 95l1 47q0 25 -4 45q-2 11 -5 21t-8 21q-5 10 -11.5 18.5t-14.5 16.5q-15 13 -36 23q-21 9 -43 12q-25 3 -45 2q-23 -1 -46 -6q-21 -4 -43 -14q-5 -2 -10 -5l-10 -6l-9 -6q-2 -1 -4 -3q-1 -1 -1.5 -1t-1.5 -1q0 -1 -0.5 -1t-0.5 -1h-1q-2 -2 -5 -1.5t-5 2.5q-4 4 0 10z
M189 687q2 0 6 -2l132 -96q7 -5 2 -14q-5 -7 -14 -2l-126 92l-126 -92q-8 -6 -14 2q-5 9 2 14l132 96q4 2 6 2z" />
    <glyph glyph-name="aacute" unicode="&#xe1;" horiz-adv-x="379" 
d="M270 320q-25 -1 -49.5 -1.5t-48.5 -4.5q-22 -3 -47 -11q-24 -8 -42 -19q-5 -4 -9.5 -7t-9.5 -7q-2 -2 -4.5 -4t-4.5 -4l-2 -2l-2 -2q-1 -2 -2 -2.5t-2 -2.5q-8 -8 -13.5 -18t-10.5 -21q-17 -44 -6 -91q5 -25 16 -43q3 -5 6 -9.5t7 -8.5q2 -2 4 -4.5t4 -4.5l1 -1q1 0 1 -1
h1l1 -1q1 -2 2 -2.5t2 -1.5q17 -13 40 -21q20 -7 46 -10q22 -3 47 -3q25 2 47 6q26 5 45 13q10 4 20 10q10 7 16 14q10 9 21 0q10 -11 0 -21q-9 -9 -22 -17q-12 -8 -24 -12q-13 -5 -25.5 -8.5t-25.5 -5.5q-28 -5 -51 -5q-13 -1 -26 0t-26 3t-25.5 4.5t-24.5 7.5
q-25 9 -47 26q-3 2 -5 5l-2 1l-1 1l-1 1l-1 1q-3 3 -5 5.5t-4 4.5q-8 10 -15 23q-7 11 -11.5 23.5t-7.5 25.5q-9 55 10 104q10 23 28 44q2 2 2.5 3t2.5 2q1 1 1 1.5t1 1.5l3 2q6 6 9 8q11 10 22 15q22 13 47 21q23 7 50 10q26 3 50.5 3.5t49.5 0.5q7 0 7 -7t-7 -7zM24 461
q1 1 1.5 1t1.5 1l2 2q2 1 5 4q2 2 5 3.5t5 3.5q5 3 10.5 6t11.5 6q11 5 22.5 9t23.5 7q11 3 23.5 4.5t24.5 2.5t24 1t24 -2q25 -3 48 -12t43 -27t30 -40q6 -11 10 -23t7 -24q2 -12 3 -24.5t1 -24.5l1 -47l1 -95l1 -188q1 -6 -3.5 -10.5t-10.5 -4.5t-10 4.5t-5 10.5l2 188
l1 95l1 47q0 25 -4 45q-2 11 -5 21t-8 21q-5 10 -11.5 18.5t-14.5 16.5q-15 13 -36 23q-21 9 -43 12q-25 3 -45 2q-23 -1 -46 -6q-21 -4 -43 -14q-5 -2 -10 -5l-10 -6l-9 -6q-2 -1 -4 -3q-1 -1 -1.5 -1t-1.5 -1q0 -1 -0.5 -1t-0.5 -1h-1q-2 -2 -5 -1.5t-5 2.5q-4 4 0 10z
M63 570q-7 0 -10 7q-2 9 7 12l252 90q8 3 12 -6t-6 -13l-252 -90h-3z" />
    <glyph glyph-name="agrave" unicode="&#xe0;" horiz-adv-x="379" 
d="M270 320q-25 -1 -49.5 -1.5t-48.5 -4.5q-22 -3 -47 -11q-24 -8 -42 -19q-5 -4 -9.5 -7t-9.5 -7q-2 -2 -4.5 -4t-4.5 -4l-2 -2l-2 -2q-1 -2 -2 -2.5t-2 -2.5q-8 -8 -13.5 -18t-10.5 -21q-17 -44 -6 -91q5 -25 16 -43q3 -5 6 -9.5t7 -8.5q2 -2 4 -4.5t4 -4.5l1 -1q1 0 1 -1
h1l1 -1q1 -2 2 -2.5t2 -1.5q17 -13 40 -21q20 -7 46 -10q22 -3 47 -3q25 2 47 6q26 5 45 13q10 4 20 10q10 7 16 14q10 9 21 0q10 -11 0 -21q-9 -9 -22 -17q-12 -8 -24 -12q-13 -5 -25.5 -8.5t-25.5 -5.5q-28 -5 -51 -5q-13 -1 -26 0t-26 3t-25.5 4.5t-24.5 7.5
q-25 9 -47 26q-3 2 -5 5l-2 1l-1 1l-1 1l-1 1q-3 3 -5 5.5t-4 4.5q-8 10 -15 23q-7 11 -11.5 23.5t-7.5 25.5q-9 55 10 104q10 23 28 44q2 2 2.5 3t2.5 2q1 1 1 1.5t1 1.5l3 2q6 6 9 8q11 10 22 15q22 13 47 21q23 7 50 10q26 3 50.5 3.5t49.5 0.5q7 0 7 -7t-7 -7zM24 461
q1 1 1.5 1t1.5 1l2 2q2 1 5 4q2 2 5 3.5t5 3.5q5 3 10.5 6t11.5 6q11 5 22.5 9t23.5 7q11 3 23.5 4.5t24.5 2.5t24 1t24 -2q25 -3 48 -12t43 -27t30 -40q6 -11 10 -23t7 -24q2 -12 3 -24.5t1 -24.5l1 -47l1 -95l1 -188q1 -6 -3.5 -10.5t-10.5 -4.5t-10 4.5t-5 10.5l2 188
l1 95l1 47q0 25 -4 45q-2 11 -5 21t-8 21q-5 10 -11.5 18.5t-14.5 16.5q-15 13 -36 23q-21 9 -43 12q-25 3 -45 2q-23 -1 -46 -6q-21 -4 -43 -14q-5 -2 -10 -5l-10 -6l-9 -6q-2 -1 -4 -3q-1 -1 -1.5 -1t-1.5 -1q0 -1 -0.5 -1t-0.5 -1h-1q-2 -2 -5 -1.5t-5 2.5q-4 4 0 10z
M309 578h-3l-240 72q-9 3 -7 13q4 9 13 6l240 -72q10 -2 6 -12q-2 -7 -9 -7z" />
    <glyph glyph-name="Egrave" unicode="&#xc8;" horiz-adv-x="350" 
d="M301 693l-288 -1l10 10l4 -702l-14 13l315 1q6 0 10.5 -4t4.5 -10t-4 -10.5t-10 -4.5h-1l-315 2q-13 0 -13 13l3 702q0 10 10 10l288 -1q9 0 9 -9t-9 -9zM164 356h-149q-10 0 -10 10t10 10h149q10 0 10 -10t-10 -10zM295 778h-3l-240 72q-9 3 -7 13q4 9 13 6l240 -72
q10 -2 6 -12q-2 -7 -9 -7z" />
    <glyph glyph-name="egrave" unicode="&#xe8;" horiz-adv-x="482" 
d="M386 56l-2 -2l-2 -2l-3 -3l-4 -4l-4 -4q-4 -3 -8 -6.5t-9 -6.5q-15 -12 -36 -22q-37 -19 -82 -21q-43 -3 -83 14q-20 8 -38 19.5t-33 25.5q-16 14 -28.5 31t-22.5 35q-20 37 -27 78q-9 43 -5 83q2 20 5.5 40.5t11.5 39.5q8 20 17.5 38t22.5 35q27 33 62 55q35 23 78 29
q41 6 82 -5q39 -10 74 -37q17 -13 30.5 -28.5t24.5 -32.5q22 -35 33 -75q6 -20 8.5 -40t2.5 -40v-1q0 -7 -7 -7l-337 3q-4 0 -4 5q0 4 4 4l337 3l-7 -8v1q0 37 -11 76q-11 38 -32 70q-21 33 -52 56q-30 23 -68 34q-19 5 -38 6t-37 -3q-38 -6 -71 -27q-31 -19 -55 -51
q-12 -15 -21 -32t-16 -35q-13 -36 -15.5 -74.5t5.5 -76.5q9 -38 27 -71q19 -35 46 -59q30 -27 63 -40q36 -14 73 -11q36 1 71 19q8 4 15.5 9t15.5 11q8 5 14 12q3 2 7 6l3 3l2 2l2 2q9 10 20 1q10 -10 1 -21zM361 578h-3l-240 72q-9 3 -7 13q4 9 13 6l240 -72q10 -2 6 -12
q-2 -7 -9 -7z" />
    <glyph glyph-name="eacute" unicode="&#xe9;" horiz-adv-x="482" 
d="M386 56l-2 -2l-2 -2l-3 -3l-4 -4l-4 -4q-4 -3 -8 -6.5t-9 -6.5q-15 -12 -36 -22q-37 -19 -82 -21q-43 -3 -83 14q-20 8 -38 19.5t-33 25.5q-16 14 -28.5 31t-22.5 35q-20 37 -27 78q-9 43 -5 83q2 20 5.5 40.5t11.5 39.5q8 20 17.5 38t22.5 35q27 33 62 55q35 23 78 29
q41 6 82 -5q39 -10 74 -37q17 -13 30.5 -28.5t24.5 -32.5q22 -35 33 -75q6 -20 8.5 -40t2.5 -40v-1q0 -7 -7 -7l-337 3q-4 0 -4 5q0 4 4 4l337 3l-7 -8v1q0 37 -11 76q-11 38 -32 70q-21 33 -52 56q-30 23 -68 34q-19 5 -38 6t-37 -3q-38 -6 -71 -27q-31 -19 -55 -51
q-12 -15 -21 -32t-16 -35q-13 -36 -15.5 -74.5t5.5 -76.5q9 -38 27 -71q19 -35 46 -59q30 -27 63 -40q36 -14 73 -11q36 1 71 19q8 4 15.5 9t15.5 11q8 5 14 12q3 2 7 6l3 3l2 2l2 2q9 10 20 1q10 -10 1 -21zM115 570q-7 0 -10 7q-2 9 7 12l252 90q8 3 12 -6t-6 -13
l-252 -90h-3z" />
    <glyph glyph-name="Eacute" unicode="&#xc9;" horiz-adv-x="350" 
d="M301 693l-288 -1l10 10l4 -702l-14 13l315 1q6 0 10.5 -4t4.5 -10t-4 -10.5t-10 -4.5h-1l-315 2q-13 0 -13 13l3 702q0 10 10 10l288 -1q9 0 9 -9t-9 -9zM164 356h-149q-10 0 -10 10t10 10h149q10 0 10 -10t-10 -10zM49 770q-7 0 -10 7q-2 9 7 12l252 90q8 3 12 -6
t-6 -13l-252 -90h-3z" />
    <glyph glyph-name="igrave" unicode="&#xec;" horiz-adv-x="119" 
d="M50 0l4 261v65l1 33v16v9v7q-1 8 -1.5 15.5t-2.5 15.5t-3.5 15t-4.5 15q-6 14 -16 24q-11 11 -24 14q-8 2 -6 10t10 6q10 -2 17 -6q8 -4 15 -11q13 -14 21 -30q3 -8 5.5 -16.5t4.5 -16.5t3 -16.5t2 -17.5v-8v-9v-16l1 -33v-65l3 -261q1 -6 -3.5 -10.5t-10.5 -4.5t-10 4.5
t-5 10.5zM179 578h-3l-240 72q-9 3 -7 13q4 9 13 6l240 -72q10 -2 6 -12q-2 -7 -9 -7z" />
    <glyph glyph-name="iacute" unicode="&#xed;" horiz-adv-x="119" 
d="M50 0l4 261v65l1 33v16v9v7q-1 8 -1.5 15.5t-2.5 15.5t-3.5 15t-4.5 15q-6 14 -16 24q-11 11 -24 14q-8 2 -6 10t10 6q10 -2 17 -6q8 -4 15 -11q13 -14 21 -30q3 -8 5.5 -16.5t4.5 -16.5t3 -16.5t2 -17.5v-8v-9v-16l1 -33v-65l3 -261q1 -6 -3.5 -10.5t-10.5 -4.5t-10 4.5
t-5 10.5zM-66 570q-7 0 -10 7q-2 9 7 12l252 90q8 3 12 -6t-6 -13l-252 -90h-3z" />
    <glyph glyph-name="icircumflex" unicode="&#xee;" horiz-adv-x="119" 
d="M50 0l4 261v65l1 33v16v9v7q-1 8 -1.5 15.5t-2.5 15.5t-3.5 15t-4.5 15q-6 14 -16 24q-11 11 -24 14q-8 2 -6 10t10 6q10 -2 17 -6q8 -4 15 -11q13 -14 21 -30q3 -8 5.5 -16.5t4.5 -16.5t3 -16.5t2 -17.5v-8v-9v-16l1 -33v-65l3 -261q1 -6 -3.5 -10.5t-10.5 -4.5t-10 4.5
t-5 10.5zM60 687q2 0 6 -2l132 -96q7 -5 2 -14q-5 -7 -14 -2l-126 92l-126 -92q-8 -6 -14 2q-5 9 2 14l132 96q4 2 6 2z" />
    <glyph glyph-name="idieresis" unicode="&#xef;" horiz-adv-x="119" 
d="M50 0l4 261v65l1 33v16v9v7q-1 8 -1.5 15.5t-2.5 15.5t-3.5 15t-4.5 15q-6 14 -16 24q-11 11 -24 14q-8 2 -6 10t10 6q10 -2 17 -6q8 -4 15 -11q13 -14 21 -30q3 -8 5.5 -16.5t4.5 -16.5t3 -16.5t2 -17.5v-8v-9v-16l1 -33v-65l3 -261q1 -6 -3.5 -10.5t-10.5 -4.5t-10 4.5
t-5 10.5zM135 608q-10 0 -10 10v52q0 10 10 10t10 -10v-52q0 -10 -10 -10zM-15 608q-10 0 -10 10v52q0 10 10 10t10 -10v-52q0 -10 -10 -10z" />
    <glyph glyph-name="Idieresis" unicode="&#xcf;" horiz-adv-x="82" 
d="M37 702l6 -702q0 -6 -4.5 -10.5t-10.5 -4.5t-10 4.5t-4 10.5l6 702q0 9 8 9q9 0 9 -9zM117 808q-10 0 -10 10v52q0 10 10 10t10 -10v-52q0 -10 -10 -10zM-33 808q-10 0 -10 10v52q0 10 10 10t10 -10v-52q0 -10 -10 -10z" />
    <glyph glyph-name="Icircumflex" unicode="&#xce;" horiz-adv-x="82" 
d="M37 702l6 -702q0 -6 -4.5 -10.5t-10.5 -4.5t-10 4.5t-4 10.5l6 702q0 9 8 9q9 0 9 -9zM42 887q2 0 6 -2l132 -96q7 -5 2 -14q-5 -7 -14 -2l-126 92l-126 -92q-8 -6 -14 2q-5 9 2 14l132 96q4 2 6 2z" />
    <glyph glyph-name="Iacute" unicode="&#xcd;" horiz-adv-x="82" 
d="M37 702l6 -702q0 -6 -4.5 -10.5t-10.5 -4.5t-10 4.5t-4 10.5l6 702q0 9 8 9q9 0 9 -9zM-84 770q-7 0 -10 7q-2 9 7 12l252 90q8 3 12 -6t-6 -13l-252 -90h-3z" />
    <glyph glyph-name="Igrave" unicode="&#xcc;" horiz-adv-x="82" 
d="M37 702l6 -702q0 -6 -4.5 -10.5t-10.5 -4.5t-10 4.5t-4 10.5l6 702q0 9 8 9q9 0 9 -9zM161 778h-3l-240 72q-9 3 -7 13q4 9 13 6l240 -72q10 -2 6 -12q-2 -7 -9 -7z" />
    <glyph glyph-name="Ecircumflex" unicode="&#xca;" horiz-adv-x="350" 
d="M301 693l-288 -1l10 10l4 -702l-14 13l315 1q6 0 10.5 -4t4.5 -10t-4 -10.5t-10 -4.5h-1l-315 2q-13 0 -13 13l3 702q0 10 10 10l288 -1q9 0 9 -9t-9 -9zM164 356h-149q-10 0 -10 10t10 10h149q10 0 10 -10t-10 -10zM175 887q2 0 6 -2l132 -96q7 -5 2 -14q-5 -7 -14 -2
l-126 92l-126 -92q-8 -6 -14 2q-5 9 2 14l132 96q4 2 6 2z" />
    <glyph glyph-name="ecircumflex" unicode="&#xea;" horiz-adv-x="482" 
d="M386 56l-2 -2l-2 -2l-3 -3l-4 -4l-4 -4q-4 -3 -8 -6.5t-9 -6.5q-15 -12 -36 -22q-37 -19 -82 -21q-43 -3 -83 14q-20 8 -38 19.5t-33 25.5q-16 14 -28.5 31t-22.5 35q-20 37 -27 78q-9 43 -5 83q2 20 5.5 40.5t11.5 39.5q8 20 17.5 38t22.5 35q27 33 62 55q35 23 78 29
q41 6 82 -5q39 -10 74 -37q17 -13 30.5 -28.5t24.5 -32.5q22 -35 33 -75q6 -20 8.5 -40t2.5 -40v-1q0 -7 -7 -7l-337 3q-4 0 -4 5q0 4 4 4l337 3l-7 -8v1q0 37 -11 76q-11 38 -32 70q-21 33 -52 56q-30 23 -68 34q-19 5 -38 6t-37 -3q-38 -6 -71 -27q-31 -19 -55 -51
q-12 -15 -21 -32t-16 -35q-13 -36 -15.5 -74.5t5.5 -76.5q9 -38 27 -71q19 -35 46 -59q30 -27 63 -40q36 -14 73 -11q36 1 71 19q8 4 15.5 9t15.5 11q8 5 14 12q3 2 7 6l3 3l2 2l2 2q9 10 20 1q10 -10 1 -21zM241 687q2 0 6 -2l132 -96q7 -5 2 -14q-5 -7 -14 -2l-126 92
l-126 -92q-8 -6 -14 2q-5 9 2 14l132 96q4 2 6 2z" />
    <glyph glyph-name="edieresis" unicode="&#xeb;" horiz-adv-x="482" 
d="M386 56l-2 -2l-2 -2l-3 -3l-4 -4l-4 -4q-4 -3 -8 -6.5t-9 -6.5q-15 -12 -36 -22q-37 -19 -82 -21q-43 -3 -83 14q-20 8 -38 19.5t-33 25.5q-16 14 -28.5 31t-22.5 35q-20 37 -27 78q-9 43 -5 83q2 20 5.5 40.5t11.5 39.5q8 20 17.5 38t22.5 35q27 33 62 55q35 23 78 29
q41 6 82 -5q39 -10 74 -37q17 -13 30.5 -28.5t24.5 -32.5q22 -35 33 -75q6 -20 8.5 -40t2.5 -40v-1q0 -7 -7 -7l-337 3q-4 0 -4 5q0 4 4 4l337 3l-7 -8v1q0 37 -11 76q-11 38 -32 70q-21 33 -52 56q-30 23 -68 34q-19 5 -38 6t-37 -3q-38 -6 -71 -27q-31 -19 -55 -51
q-12 -15 -21 -32t-16 -35q-13 -36 -15.5 -74.5t5.5 -76.5q9 -38 27 -71q19 -35 46 -59q30 -27 63 -40q36 -14 73 -11q36 1 71 19q8 4 15.5 9t15.5 11q8 5 14 12q3 2 7 6l3 3l2 2l2 2q9 10 20 1q10 -10 1 -21zM316 608q-10 0 -10 10v52q0 10 10 10t10 -10v-52q0 -10 -10 -10z
M166 608q-10 0 -10 10v52q0 10 10 10t10 -10v-52q0 -10 -10 -10z" />
    <glyph glyph-name="Edieresis" unicode="&#xcb;" horiz-adv-x="350" 
d="M301 693l-288 -1l10 10l4 -702l-14 13l315 1q6 0 10.5 -4t4.5 -10t-4 -10.5t-10 -4.5h-1l-315 2q-13 0 -13 13l3 702q0 10 10 10l288 -1q9 0 9 -9t-9 -9zM164 356h-149q-10 0 -10 10t10 10h149q10 0 10 -10t-10 -10zM250 808q-10 0 -10 10v52q0 10 10 10t10 -10v-52
q0 -10 -10 -10zM100 808q-10 0 -10 10v52q0 10 10 10t10 -10v-52q0 -10 -10 -10z" />
    <glyph glyph-name="Eth" unicode="&#xd0;" horiz-adv-x="474" 
d="M19 699l2 -702l-9 11l3 -1h2l5 -1q2 0 4.5 -0.5t4.5 -0.5q5 -1 9.5 -1t9.5 -1q9 -1 18.5 -1h19.5q39 0 75 6q19 3 37.5 7.5t35.5 11.5t34 16t32 20q30 22 52 52q24 32 37 65q8 17 12.5 35t8.5 37t5.5 37.5t2.5 37.5t0 39v18.5t-1 19.5q-2 19 -4 37.5t-7 37.5
q-8 38 -23 71q-15 34 -39 63q-25 28 -56 46q-16 10 -33 16t-35 11q-19 4 -37 6t-37 1h-19t-19 -2q-5 -1 -9 -1t-9 -2q-2 0 -4.5 -0.5t-4.5 -0.5q-2 -1 -5 -1l-2 -1h-2q-6 -2 -11 1.5t-7 8.5q-2 6 1.5 11t9.5 7h1l1 1h3q2 1 5 1q2 1 5 1t5 1q5 1 10 1.5t10 1.5q10 1 20 1.5
t20 0.5q40 0 81 -9t76 -30t63 -53q25 -32 42 -69q16 -36 25 -77q4 -20 6.5 -39t4.5 -39q0 -11 0.5 -20.5t0.5 -19.5v-40q-2 -20 -3.5 -39.5t-6.5 -39.5q-4 -20 -9 -39t-13 -38q-8 -18 -18 -35.5t-22 -34.5q-25 -31 -58 -56q-34 -25 -71 -38q-20 -8 -39 -12.5t-39 -8.5
q-39 -6 -79 -6q-10 0 -20 0.5t-20 1.5q-5 1 -10 1t-10 1q-2 1 -4.5 1t-5.5 1h-5l-2 1h-3q-9 2 -9 11h1l2 702q0 9 8 9q9 0 9 -9zM182 335h-242q-10 0 -10 10t10 10h242q10 0 10 -10t-10 -10z" />
    <glyph glyph-name="eth" unicode="&#xf0;" horiz-adv-x="520" 
d="M265 555q-8 -6 -13 4q-2 3 -1 7t4 6l210 121q3 2 7 1t6 -5q5 -9 -3 -13zM428 363q4 -8 -2 -12q-8 -4 -12 2q-23 33 -56 52q-17 10 -35 16.5t-37 11.5q-5 1 -9.5 1.5t-9.5 1.5t-10 1.5t-10 0.5h-2h-1h-1h-5h-10q-5 -1 -9.5 -1.5t-9.5 -1.5q-20 -2 -38 -8.5t-35 -15.5
q-35 -17 -61 -46q-28 -29 -41 -65q-15 -36 -15 -75q0 -19 3 -38t11 -37q14 -37 39 -65q28 -30 61 -47q35 -19 72 -25q38 -6 77 0q35 6 72 25q34 19 60 46q27 30 40 65q14 36 14 74v2q0 4 1 6v7q1 3 1 6.5t1 6.5q0 7 0.5 13.5t0.5 13.5q1 14 1.5 27t0.5 27q0 27 -1.5 54
t-5.5 53q-6 52 -23 103q-9 25 -21 48q-14 22 -30 42q-19 19 -40 30q-22 13 -47 17q-6 1 -12.5 1.5t-12.5 0.5h-7h-3h-3h-13q-26 -1 -52 -6t-50 -15q-25 -9 -44 -24q-11 -8 -20 -16.5t-17 -18.5q-4 -5 -7 -10.5t-6 -10.5q-2 -3 -3 -5.5t-3 -5.5q-2 -4 -2 -6q-1 -1 -1 -2
l-1 -2v-1v-1q-5 -13 -18 -9q-6 2 -9 7t-1 11v1l1 1v2q1 1 1 2t1 2q1 2 1.5 3.5t1.5 3.5q2 3 3 6.5t3 6.5q7 12 17 24q9 12 19.5 22t22.5 19q24 16 51 27q13 6 27 10t28 6q27 6 56 6q4 1 14 1h3h4h7q8 -1 14.5 -1.5t14.5 -2.5q14 -2 28 -7t27 -12q28 -16 46 -36
q20 -23 34 -47q13 -24 22 -52q9 -27 15 -54q6 -26 9 -55q7 -55 6 -110v-27.5t-1 -27.5q-1 -7 -1.5 -14t-0.5 -14q-1 -3 -1 -6.5t-1 -7.5v-6q-1 -3 -1 -7v1q0 -21 -4 -42t-12 -41t-19.5 -37.5t-25.5 -33.5t-31 -28.5t-35 -22.5q-37 -21 -80 -27q-44 -6 -84 1q-20 3 -40 10
t-39 17q-18 11 -34.5 23.5t-30.5 28.5q-28 31 -44 72q-15 40 -14 83q0 42 17 82q8 19 19.5 36.5t25.5 33.5q29 31 66 50q36 19 79 25l21 3h11h5h1h1h3q5 0 10.5 -0.5t10.5 -1.5t10.5 -1.5t10.5 -2.5q41 -9 77 -30q9 -5 17 -11.5t16 -13.5q8 -8 15 -16t13 -16z" />
    <glyph glyph-name="ntilde" unicode="&#xf1;" horiz-adv-x="489" 
d="M86 427q2 1 2.5 2t2.5 3q1 1 1.5 2t2.5 3l9 9q5 5 9.5 9t9.5 8q20 16 44 27q22 11 50 16q7 1 13.5 1.5t12.5 0.5h26q13 -1 26 -2.5t26 -4.5q26 -6 49 -19q11 -6 21.5 -14.5t19.5 -18.5q17 -20 28 -45q6 -12 10 -24.5t7 -25.5t4.5 -25.5t3.5 -25.5q0 -7 0.5 -13t0.5 -13
v-13v-13l1 -50l2 -202q1 -6 -3.5 -10.5t-10.5 -4.5t-10 4.5t-5 10.5l3 202l1 50v13v13q0 6 -0.5 12t-0.5 12q-1 25 -6 49q-3 12 -6 23.5t-8 22.5t-11 21.5t-14 19.5q-14 17 -36 31q-21 12 -44 18q-22 5 -49 7q-6 1 -12 1h-12q-7 0 -13 -0.5t-12 -1.5q-22 -3 -46 -14
q-11 -5 -21.5 -11t-20.5 -14q-11 -8 -19 -16l-4 -4l-4 -4l-5 -5q-1 -1 -3 -5q-4 -4 -9 -1q-4 4 -1 9zM32 0l3 255l1 64l1 32v16v8v4v1v1v2q1 8 0.5 15.5t-0.5 15.5q-1 8 -2 15t-3 15t-4.5 14.5t-5.5 12.5q-7 12 -19 20q-8 4 -3 11q4 8 11 3q9 -4 15 -11t11 -14q8 -13 13 -32
q4 -15 6 -32q1 -8 1 -16.5v-16.5v-3v-1v-4v-8v-16l1 -32l1 -64l2 -255q1 -6 -3.5 -10.5t-10.5 -4.5t-10 4.5t-5 10.5zM91 593q-3 0 -5 1q-10 4 -4 13q0 1 4 8t12 16t20 17.5t29 13.5q47 14 101 -19q36 -22 62 -24t43.5 4.5t26 16t9.5 10.5q5 8 14 3q8 -6 3 -14
q-1 -1 -11.5 -12.5t-30.5 -20.5q-20 -8 -51 -7.5t-75 26.5q-47 30 -85 18q-14 -4 -23.5 -11t-16.5 -15q-8 -9 -13 -18q-3 -6 -9 -6z" />
    <glyph glyph-name="Ntilde" unicode="&#xd1;" horiz-adv-x="433" 
d="M1 0l-2 702q0 11 10 11q6 0 10 -6l386 -701l-24 -6l5 702q0 7 7 7q8 0 8 -7l5 -702q0 -13 -13 -13q-8 0 -11 7l-382 703l20 5l-2 -702q0 -9 -9 -9q-8 0 -8 9zM63 793q-3 0 -5 1q-10 4 -4 13q0 1 4 8t12 16t20 17.5t29 13.5q47 14 101 -19q36 -22 62 -24t43.5 4.5t26 16
t9.5 10.5q5 8 14 3q8 -6 3 -14q-1 -1 -11.5 -12.5t-30.5 -20.5q-20 -8 -51 -7.5t-75 26.5q-47 30 -85 18q-14 -4 -23.5 -11t-16.5 -15q-8 -9 -13 -18q-3 -6 -9 -6z" />
    <glyph glyph-name="Ograve" unicode="&#xd2;" 
d="M253 -12q-52 0 -101 29q-23 14 -43 33.5t-38 44.5q-35 51 -54.5 117t-19.5 138t19.5 137.5t54.5 117.5q36 49 81 78q49 29 101 29t101 -29q46 -28 82 -78q35 -52 54 -117.5t19 -137.5t-19 -138t-54 -117q-18 -25 -38.5 -44.5t-43.5 -33.5q-49 -29 -101 -29zM253 692
q-49 0 -92 -27t-75 -73.5t-50.5 -109t-18.5 -132.5q0 -71 18.5 -133t50.5 -108.5t75 -73.5t92 -27t92 27t75 73.5t50.5 108.5t18.5 133q0 70 -18.5 132.5t-50.5 109t-75 73.5t-92 27zM385 778h-3l-240 72q-9 3 -7 13q4 9 13 6l240 -72q10 -2 6 -12q-2 -7 -9 -7z" />
    <glyph glyph-name="ograve" unicode="&#xf2;" horiz-adv-x="489" 
d="M232 -10q-47 0 -89.5 19.5t-74.5 57.5q-33 37 -50.5 84t-17.5 99q0 53 17.5 100t50.5 84q32 38 74.5 57.5t89.5 19.5t89.5 -19.5t74.5 -57.5q33 -37 50.5 -84t17.5 -100q0 -52 -17.5 -99t-50.5 -84q-32 -38 -74.5 -57.5t-89.5 -19.5zM232 491q-44 0 -82.5 -19
t-67.5 -51.5t-45.5 -76.5t-16.5 -94t16.5 -93.5t45.5 -76t67.5 -51.5t82.5 -19t82.5 19t67.5 51.5t45.5 76t16.5 93.5t-16.5 94t-45.5 76.5t-67.5 51.5t-82.5 19zM364 578h-3l-240 72q-9 3 -7 13q4 9 13 6l240 -72q10 -2 6 -12q-2 -7 -9 -7z" />
    <glyph glyph-name="oacute" unicode="&#xf3;" horiz-adv-x="489" 
d="M232 -10q-47 0 -89.5 19.5t-74.5 57.5q-33 37 -50.5 84t-17.5 99q0 53 17.5 100t50.5 84q32 38 74.5 57.5t89.5 19.5t89.5 -19.5t74.5 -57.5q33 -37 50.5 -84t17.5 -100q0 -52 -17.5 -99t-50.5 -84q-32 -38 -74.5 -57.5t-89.5 -19.5zM232 491q-44 0 -82.5 -19
t-67.5 -51.5t-45.5 -76.5t-16.5 -94t16.5 -93.5t45.5 -76t67.5 -51.5t82.5 -19t82.5 19t67.5 51.5t45.5 76t16.5 93.5t-16.5 94t-45.5 76.5t-67.5 51.5t-82.5 19zM118 570q-7 0 -10 7q-2 9 7 12l252 90q8 3 12 -6t-6 -13l-252 -90h-3z" />
    <glyph glyph-name="Oacute" unicode="&#xd3;" 
d="M253 -12q-52 0 -101 29q-23 14 -43 33.5t-38 44.5q-35 51 -54.5 117t-19.5 138t19.5 137.5t54.5 117.5q36 49 81 78q49 29 101 29t101 -29q46 -28 82 -78q35 -52 54 -117.5t19 -137.5t-19 -138t-54 -117q-18 -25 -38.5 -44.5t-43.5 -33.5q-49 -29 -101 -29zM253 692
q-49 0 -92 -27t-75 -73.5t-50.5 -109t-18.5 -132.5q0 -71 18.5 -133t50.5 -108.5t75 -73.5t92 -27t92 27t75 73.5t50.5 108.5t18.5 133q0 70 -18.5 132.5t-50.5 109t-75 73.5t-92 27zM139 770q-7 0 -10 7q-2 9 7 12l252 90q8 3 12 -6t-6 -13l-252 -90h-3z" />
    <glyph glyph-name="Ocircumflex" unicode="&#xd4;" 
d="M253 -12q-52 0 -101 29q-23 14 -43 33.5t-38 44.5q-35 51 -54.5 117t-19.5 138t19.5 137.5t54.5 117.5q36 49 81 78q49 29 101 29t101 -29q46 -28 82 -78q35 -52 54 -117.5t19 -137.5t-19 -138t-54 -117q-18 -25 -38.5 -44.5t-43.5 -33.5q-49 -29 -101 -29zM253 692
q-49 0 -92 -27t-75 -73.5t-50.5 -109t-18.5 -132.5q0 -71 18.5 -133t50.5 -108.5t75 -73.5t92 -27t92 27t75 73.5t50.5 108.5t18.5 133q0 70 -18.5 132.5t-50.5 109t-75 73.5t-92 27zM265 887q2 0 6 -2l132 -96q7 -5 2 -14q-5 -7 -14 -2l-126 92l-126 -92q-8 -6 -14 2
q-5 9 2 14l132 96q4 2 6 2z" />
    <glyph glyph-name="ocircumflex" unicode="&#xf4;" horiz-adv-x="489" 
d="M232 -10q-47 0 -89.5 19.5t-74.5 57.5q-33 37 -50.5 84t-17.5 99q0 53 17.5 100t50.5 84q32 38 74.5 57.5t89.5 19.5t89.5 -19.5t74.5 -57.5q33 -37 50.5 -84t17.5 -100q0 -52 -17.5 -99t-50.5 -84q-32 -38 -74.5 -57.5t-89.5 -19.5zM232 491q-44 0 -82.5 -19
t-67.5 -51.5t-45.5 -76.5t-16.5 -94t16.5 -93.5t45.5 -76t67.5 -51.5t82.5 -19t82.5 19t67.5 51.5t45.5 76t16.5 93.5t-16.5 94t-45.5 76.5t-67.5 51.5t-82.5 19zM244 687q2 0 6 -2l132 -96q7 -5 2 -14q-5 -7 -14 -2l-126 92l-126 -92q-8 -6 -14 2q-5 9 2 14l132 96q4 2 6 2
z" />
    <glyph glyph-name="otilde" unicode="&#xf5;" horiz-adv-x="489" 
d="M232 -10q-47 0 -89.5 19.5t-74.5 57.5q-33 37 -50.5 84t-17.5 99q0 53 17.5 100t50.5 84q32 38 74.5 57.5t89.5 19.5t89.5 -19.5t74.5 -57.5q33 -37 50.5 -84t17.5 -100q0 -52 -17.5 -99t-50.5 -84q-32 -38 -74.5 -57.5t-89.5 -19.5zM232 491q-44 0 -82.5 -19
t-67.5 -51.5t-45.5 -76.5t-16.5 -94t16.5 -93.5t45.5 -76t67.5 -51.5t82.5 -19t82.5 19t67.5 51.5t45.5 76t16.5 93.5t-16.5 94t-45.5 76.5t-67.5 51.5t-82.5 19zM91 593q-3 0 -5 1q-10 4 -4 13q0 1 4 8t12 16t20 17.5t29 13.5q47 14 101 -19q36 -22 62 -24t43.5 4.5t26 16
t9.5 10.5q5 8 14 3q8 -6 3 -14q-1 -1 -11.5 -12.5t-30.5 -20.5q-20 -8 -51 -7.5t-75 26.5q-47 30 -85 18q-14 -4 -23.5 -11t-16.5 -15q-8 -9 -13 -18q-3 -6 -9 -6z" />
    <glyph glyph-name="Otilde" unicode="&#xd5;" 
d="M253 -12q-52 0 -101 29q-23 14 -43 33.5t-38 44.5q-35 51 -54.5 117t-19.5 138t19.5 137.5t54.5 117.5q36 49 81 78q49 29 101 29t101 -29q46 -28 82 -78q35 -52 54 -117.5t19 -137.5t-19 -138t-54 -117q-18 -25 -38.5 -44.5t-43.5 -33.5q-49 -29 -101 -29zM253 692
q-49 0 -92 -27t-75 -73.5t-50.5 -109t-18.5 -132.5q0 -71 18.5 -133t50.5 -108.5t75 -73.5t92 -27t92 27t75 73.5t50.5 108.5t18.5 133q0 70 -18.5 132.5t-50.5 109t-75 73.5t-92 27zM112 793q-3 0 -5 1q-10 4 -4 13q0 1 4 8t12 16t20 17.5t29 13.5q47 14 101 -19
q36 -22 62 -24t43.5 4.5t26 16t9.5 10.5q5 8 14 3q8 -6 3 -14q-1 -1 -11.5 -12.5t-30.5 -20.5q-20 -8 -51 -7.5t-75 26.5q-47 30 -85 18q-14 -4 -23.5 -11t-16.5 -15q-8 -9 -13 -18q-3 -6 -9 -6z" />
    <glyph glyph-name="Odieresis" unicode="&#xd6;" 
d="M253 -12q-52 0 -101 29q-23 14 -43 33.5t-38 44.5q-35 51 -54.5 117t-19.5 138t19.5 137.5t54.5 117.5q36 49 81 78q49 29 101 29t101 -29q46 -28 82 -78q35 -52 54 -117.5t19 -137.5t-19 -138t-54 -117q-18 -25 -38.5 -44.5t-43.5 -33.5q-49 -29 -101 -29zM253 692
q-49 0 -92 -27t-75 -73.5t-50.5 -109t-18.5 -132.5q0 -71 18.5 -133t50.5 -108.5t75 -73.5t92 -27t92 27t75 73.5t50.5 108.5t18.5 133q0 70 -18.5 132.5t-50.5 109t-75 73.5t-92 27zM340 808q-10 0 -10 10v52q0 10 10 10t10 -10v-52q0 -10 -10 -10zM190 808q-10 0 -10 10
v52q0 10 10 10t10 -10v-52q0 -10 -10 -10z" />
    <glyph glyph-name="odieresis" unicode="&#xf6;" horiz-adv-x="489" 
d="M232 -10q-47 0 -89.5 19.5t-74.5 57.5q-33 37 -50.5 84t-17.5 99q0 53 17.5 100t50.5 84q32 38 74.5 57.5t89.5 19.5t89.5 -19.5t74.5 -57.5q33 -37 50.5 -84t17.5 -100q0 -52 -17.5 -99t-50.5 -84q-32 -38 -74.5 -57.5t-89.5 -19.5zM232 491q-44 0 -82.5 -19
t-67.5 -51.5t-45.5 -76.5t-16.5 -94t16.5 -93.5t45.5 -76t67.5 -51.5t82.5 -19t82.5 19t67.5 51.5t45.5 76t16.5 93.5t-16.5 94t-45.5 76.5t-67.5 51.5t-82.5 19zM319 608q-10 0 -10 10v52q0 10 10 10t10 -10v-52q0 -10 -10 -10zM169 608q-10 0 -10 10v52q0 10 10 10t10 -10
v-52q0 -10 -10 -10z" />
    <glyph glyph-name="Oslash" unicode="&#xd8;" 
d="M253 -12q-52 0 -101 29q-23 14 -43 33.5t-38 44.5q-35 51 -54.5 117t-19.5 138t19.5 137.5t54.5 117.5q36 49 81 78q49 29 101 29t101 -29q46 -28 82 -78q35 -52 54 -117.5t19 -137.5t-19 -138t-54 -117q-18 -25 -38.5 -44.5t-43.5 -33.5q-49 -29 -101 -29zM253 692
q-49 0 -92 -27t-75 -73.5t-50.5 -109t-18.5 -132.5q0 -71 18.5 -133t50.5 -108.5t75 -73.5t92 -27t92 27t75 73.5t50.5 108.5t18.5 133q0 70 -18.5 132.5t-50.5 109t-75 73.5t-92 27zM-11 -40q-2 0 -6 2q-8 5 -2 14l552 750q5 7 14 2q8 -6 2 -14l-552 -750q-3 -4 -8 -4z" />
    <glyph glyph-name="oslash" unicode="&#xf8;" horiz-adv-x="489" 
d="M232 -10q-47 0 -89.5 19.5t-74.5 57.5q-33 37 -50.5 84t-17.5 99q0 53 17.5 100t50.5 84q32 38 74.5 57.5t89.5 19.5t89.5 -19.5t74.5 -57.5q33 -37 50.5 -84t17.5 -100q0 -52 -17.5 -99t-50.5 -84q-32 -38 -74.5 -57.5t-89.5 -19.5zM232 491q-44 0 -82.5 -19
t-67.5 -51.5t-45.5 -76.5t-16.5 -94t16.5 -93.5t45.5 -76t67.5 -51.5t82.5 -19t82.5 19t67.5 51.5t45.5 76t16.5 93.5t-16.5 94t-45.5 76.5t-67.5 51.5t-82.5 19zM-14.502 -25.3115q-1.85059 0 -5.55078 1.46582q-7.40137 3.66406 -1.85059 10.2588l510.661 549.591
q4.625 5.12988 12.9512 1.46582q7.40137 -4.39648 1.85059 -10.2588l-510.661 -549.592q-2.77539 -2.93066 -7.40039 -2.93066z" />
    <glyph glyph-name="ugrave" unicode="&#xf9;" horiz-adv-x="470" 
d="M390 64l-3 -3q0 -1 -2 -3q-1 -2 -2 -2.5t-2 -2.5q-2 -2 -5 -4.5t-5 -4.5q-5 -5 -10 -9t-10 -9q-20 -16 -46 -27q-12 -6 -25 -10t-27 -6q-7 -1 -13.5 -1.5t-13.5 -0.5h-6h-7q-3 0 -6 0.5t-7 0.5q-13 1 -26 2.5t-26 4.5q-14 4 -26 8.5t-24 12.5q-12 7 -22.5 15.5
t-19.5 18.5q-18 23 -28 46q-5 12 -9 24.5t-7 25.5t-4.5 26t-2.5 26q-1 6 -1 12.5v13.5v12v13v51l2 202q0 8 8 8t8 -8l2 -202v-51v-13v-12q1 -6 1 -12t1 -13q1 -12 2.5 -24t4.5 -24q6 -23 15 -46q5 -11 11.5 -21t14.5 -18q15 -18 36 -30q10 -6 21 -10t23 -7q22 -4 47 -6h13h6
h6q6 0 12 0.5t11 1.5q23 3 45 14q21 9 40 25q5 3 9.5 7t8.5 8l9 9q1 1 1.5 2t1.5 2l2 2l2 2q3 5 8.5 6t10.5 -3q10 -8 3 -19zM432 495l3 -255v-64l1 -32v-16v-8v-4v-1v-2v-1v-15t1 -15q1 -15 6 -30q4 -16 10 -25q2 -4 8 -10q2 -4 9 -7q12 -7 6 -20q-2 -5 -8 -7t-12 1
q-11 5 -16 12q-8 8 -12 16q-8 15 -13 33q-2 9 -3 17.5t-2 16.5t-1 16.5v17.5l1 2v1v-1v1v4v8v16v32l1 64l3 255q0 9 9 9t9 -9zM355 578h-3l-240 72q-9 3 -7 13q4 9 13 6l240 -72q10 -2 6 -12q-2 -7 -9 -7z" />
    <glyph glyph-name="Ugrave" unicode="&#xd9;" 
d="M22 708v-417v-13v-7v-3v-3q0 -6 0.5 -12.5t1.5 -12.5q1 -13 3.5 -25t5.5 -24q15 -50 45 -90q16 -20 34.5 -36.5t41.5 -27.5q20 -12 46 -18q22 -7 49 -7q13 0 25 1t24 4q23 6 47 17q44 22 77 63q32 39 47 88q7 22 10 49q2 6 2 12.5t1 12.5v13v13v417q0 10 10 10t10 -10
v-417v-13v-14q-1 -7 -1.5 -13t-1.5 -13q-3 -25 -11 -53q-8 -26 -21 -50t-30 -45q-34 -44 -83 -68q-24 -12 -51 -18t-54 -6q-14 0 -27.5 2t-26.5 5q-25 7 -51 20q-24 13 -44.5 31t-37.5 39q-33 43 -48 96q-4 13 -6 26t-4 27q-1 7 -1.5 13.5t-0.5 13.5v3v3v7v13v417
q0 10 10 10t10 -10zM385 778h-3l-240 72q-9 3 -7 13q4 9 13 6l240 -72q10 -2 6 -12q-2 -7 -9 -7z" />
    <glyph glyph-name="Uacute" unicode="&#xda;" 
d="M22 708v-417v-13v-7v-3v-3q0 -6 0.5 -12.5t1.5 -12.5q1 -13 3.5 -25t5.5 -24q15 -50 45 -90q16 -20 34.5 -36.5t41.5 -27.5q20 -12 46 -18q22 -7 49 -7q13 0 25 1t24 4q23 6 47 17q44 22 77 63q32 39 47 88q7 22 10 49q2 6 2 12.5t1 12.5v13v13v417q0 10 10 10t10 -10
v-417v-13v-14q-1 -7 -1.5 -13t-1.5 -13q-3 -25 -11 -53q-8 -26 -21 -50t-30 -45q-34 -44 -83 -68q-24 -12 -51 -18t-54 -6q-14 0 -27.5 2t-26.5 5q-25 7 -51 20q-24 13 -44.5 31t-37.5 39q-33 43 -48 96q-4 13 -6 26t-4 27q-1 7 -1.5 13.5t-0.5 13.5v3v3v7v13v417
q0 10 10 10t10 -10zM139 770q-7 0 -10 7q-2 9 7 12l252 90q8 3 12 -6t-6 -13l-252 -90h-3z" />
    <glyph glyph-name="uacute" unicode="&#xfa;" horiz-adv-x="470" 
d="M390 64l-3 -3q0 -1 -2 -3q-1 -2 -2 -2.5t-2 -2.5q-2 -2 -5 -4.5t-5 -4.5q-5 -5 -10 -9t-10 -9q-20 -16 -46 -27q-12 -6 -25 -10t-27 -6q-7 -1 -13.5 -1.5t-13.5 -0.5h-6h-7q-3 0 -6 0.5t-7 0.5q-13 1 -26 2.5t-26 4.5q-14 4 -26 8.5t-24 12.5q-12 7 -22.5 15.5
t-19.5 18.5q-18 23 -28 46q-5 12 -9 24.5t-7 25.5t-4.5 26t-2.5 26q-1 6 -1 12.5v13.5v12v13v51l2 202q0 8 8 8t8 -8l2 -202v-51v-13v-12q1 -6 1 -12t1 -13q1 -12 2.5 -24t4.5 -24q6 -23 15 -46q5 -11 11.5 -21t14.5 -18q15 -18 36 -30q10 -6 21 -10t23 -7q22 -4 47 -6h13h6
h6q6 0 12 0.5t11 1.5q23 3 45 14q21 9 40 25q5 3 9.5 7t8.5 8l9 9q1 1 1.5 2t1.5 2l2 2l2 2q3 5 8.5 6t10.5 -3q10 -8 3 -19zM432 495l3 -255v-64l1 -32v-16v-8v-4v-1v-2v-1v-15t1 -15q1 -15 6 -30q4 -16 10 -25q2 -4 8 -10q2 -4 9 -7q12 -7 6 -20q-2 -5 -8 -7t-12 1
q-11 5 -16 12q-8 8 -12 16q-8 15 -13 33q-2 9 -3 17.5t-2 16.5t-1 16.5v17.5l1 2v1v-1v1v4v8v16v32l1 64l3 255q0 9 9 9t9 -9zM109 570q-7 0 -10 7q-2 9 7 12l252 90q8 3 12 -6t-6 -13l-252 -90h-3z" />
    <glyph glyph-name="ucircumflex" unicode="&#xfb;" horiz-adv-x="470" 
d="M390 64l-3 -3q0 -1 -2 -3q-1 -2 -2 -2.5t-2 -2.5q-2 -2 -5 -4.5t-5 -4.5q-5 -5 -10 -9t-10 -9q-20 -16 -46 -27q-12 -6 -25 -10t-27 -6q-7 -1 -13.5 -1.5t-13.5 -0.5h-6h-7q-3 0 -6 0.5t-7 0.5q-13 1 -26 2.5t-26 4.5q-14 4 -26 8.5t-24 12.5q-12 7 -22.5 15.5
t-19.5 18.5q-18 23 -28 46q-5 12 -9 24.5t-7 25.5t-4.5 26t-2.5 26q-1 6 -1 12.5v13.5v12v13v51l2 202q0 8 8 8t8 -8l2 -202v-51v-13v-12q1 -6 1 -12t1 -13q1 -12 2.5 -24t4.5 -24q6 -23 15 -46q5 -11 11.5 -21t14.5 -18q15 -18 36 -30q10 -6 21 -10t23 -7q22 -4 47 -6h13h6
h6q6 0 12 0.5t11 1.5q23 3 45 14q21 9 40 25q5 3 9.5 7t8.5 8l9 9q1 1 1.5 2t1.5 2l2 2l2 2q3 5 8.5 6t10.5 -3q10 -8 3 -19zM432 495l3 -255v-64l1 -32v-16v-8v-4v-1v-2v-1v-15t1 -15q1 -15 6 -30q4 -16 10 -25q2 -4 8 -10q2 -4 9 -7q12 -7 6 -20q-2 -5 -8 -7t-12 1
q-11 5 -16 12q-8 8 -12 16q-8 15 -13 33q-2 9 -3 17.5t-2 16.5t-1 16.5v17.5l1 2v1v-1v1v4v8v16v32l1 64l3 255q0 9 9 9t9 -9zM235 687q2 0 6 -2l132 -96q7 -5 2 -14q-5 -7 -14 -2l-126 92l-126 -92q-8 -6 -14 2q-5 9 2 14l132 96q4 2 6 2z" />
    <glyph glyph-name="Ucircumflex" unicode="&#xdb;" 
d="M22 708v-417v-13v-7v-3v-3q0 -6 0.5 -12.5t1.5 -12.5q1 -13 3.5 -25t5.5 -24q15 -50 45 -90q16 -20 34.5 -36.5t41.5 -27.5q20 -12 46 -18q22 -7 49 -7q13 0 25 1t24 4q23 6 47 17q44 22 77 63q32 39 47 88q7 22 10 49q2 6 2 12.5t1 12.5v13v13v417q0 10 10 10t10 -10
v-417v-13v-14q-1 -7 -1.5 -13t-1.5 -13q-3 -25 -11 -53q-8 -26 -21 -50t-30 -45q-34 -44 -83 -68q-24 -12 -51 -18t-54 -6q-14 0 -27.5 2t-26.5 5q-25 7 -51 20q-24 13 -44.5 31t-37.5 39q-33 43 -48 96q-4 13 -6 26t-4 27q-1 7 -1.5 13.5t-0.5 13.5v3v3v7v13v417
q0 10 10 10t10 -10zM265 887q2 0 6 -2l132 -96q7 -5 2 -14q-5 -7 -14 -2l-126 92l-126 -92q-8 -6 -14 2q-5 9 2 14l132 96q4 2 6 2z" />
    <glyph glyph-name="Udieresis" unicode="&#xdc;" 
d="M22 708v-417v-13v-7v-3v-3q0 -6 0.5 -12.5t1.5 -12.5q1 -13 3.5 -25t5.5 -24q15 -50 45 -90q16 -20 34.5 -36.5t41.5 -27.5q20 -12 46 -18q22 -7 49 -7q13 0 25 1t24 4q23 6 47 17q44 22 77 63q32 39 47 88q7 22 10 49q2 6 2 12.5t1 12.5v13v13v417q0 10 10 10t10 -10
v-417v-13v-14q-1 -7 -1.5 -13t-1.5 -13q-3 -25 -11 -53q-8 -26 -21 -50t-30 -45q-34 -44 -83 -68q-24 -12 -51 -18t-54 -6q-14 0 -27.5 2t-26.5 5q-25 7 -51 20q-24 13 -44.5 31t-37.5 39q-33 43 -48 96q-4 13 -6 26t-4 27q-1 7 -1.5 13.5t-0.5 13.5v3v3v7v13v417
q0 10 10 10t10 -10zM340 808q-10 0 -10 10v52q0 10 10 10t10 -10v-52q0 -10 -10 -10zM190 808q-10 0 -10 10v52q0 10 10 10t10 -10v-52q0 -10 -10 -10z" />
    <glyph glyph-name="udieresis" unicode="&#xfc;" horiz-adv-x="470" 
d="M390 64l-3 -3q0 -1 -2 -3q-1 -2 -2 -2.5t-2 -2.5q-2 -2 -5 -4.5t-5 -4.5q-5 -5 -10 -9t-10 -9q-20 -16 -46 -27q-12 -6 -25 -10t-27 -6q-7 -1 -13.5 -1.5t-13.5 -0.5h-6h-7q-3 0 -6 0.5t-7 0.5q-13 1 -26 2.5t-26 4.5q-14 4 -26 8.5t-24 12.5q-12 7 -22.5 15.5
t-19.5 18.5q-18 23 -28 46q-5 12 -9 24.5t-7 25.5t-4.5 26t-2.5 26q-1 6 -1 12.5v13.5v12v13v51l2 202q0 8 8 8t8 -8l2 -202v-51v-13v-12q1 -6 1 -12t1 -13q1 -12 2.5 -24t4.5 -24q6 -23 15 -46q5 -11 11.5 -21t14.5 -18q15 -18 36 -30q10 -6 21 -10t23 -7q22 -4 47 -6h13h6
h6q6 0 12 0.5t11 1.5q23 3 45 14q21 9 40 25q5 3 9.5 7t8.5 8l9 9q1 1 1.5 2t1.5 2l2 2l2 2q3 5 8.5 6t10.5 -3q10 -8 3 -19zM432 495l3 -255v-64l1 -32v-16v-8v-4v-1v-2v-1v-15t1 -15q1 -15 6 -30q4 -16 10 -25q2 -4 8 -10q2 -4 9 -7q12 -7 6 -20q-2 -5 -8 -7t-12 1
q-11 5 -16 12q-8 8 -12 16q-8 15 -13 33q-2 9 -3 17.5t-2 16.5t-1 16.5v17.5l1 2v1v-1v1v4v8v16v32l1 64l3 255q0 9 9 9t9 -9zM310 608q-10 0 -10 10v52q0 10 10 10t10 -10v-52q0 -10 -10 -10zM160 608q-10 0 -10 10v52q0 10 10 10t10 -10v-52q0 -10 -10 -10z" />
    <glyph glyph-name="yacute" unicode="&#xfd;" horiz-adv-x="407" 
d="M103 -244l18 47l18 46l37 94q9 23 18.5 46.5t18.5 46.5l37 93l38 93l19 47l9 23l10 23l37 93l20 47l9 23l10 23q3 9 11 5q9 -4 5 -11l-8 -24l-9 -23l-17 -47l-36 -94l-8 -24l-9 -23l-18 -47l-35 -94l-36 -94q-9 -23 -18 -47t-18 -47l-36 -93l-18 -47l-19 -47
q-2 -6 -8.5 -9t-12.5 0q-6 2 -9 8.5t0 12.5zM-2 506l29 -61l29 -62l57 -124l58 -124l28 -62l29 -62q3 -8 0.5 -15t-10.5 -11q-7 -3 -14.5 -0.5t-11.5 10.5l-26 63l-27 63l-52 126l-53 126l-26 63l-26 64q-3 7 5 11q8 2 11 -5zM77 570q-7 0 -10 7q-2 9 7 12l252 90q8 3 12 -6
t-6 -13l-252 -90h-3z" />
    <glyph glyph-name="Yacute" unicode="&#xdd;" horiz-adv-x="417" 
d="M-24 704l249 -393h-25l217 393q4 8 12 4q7 -5 4 -12l-208 -399q-7 -13 -19 -6q-4 1 -6 5l-238 399q-2 3 -1 6.5t4 5.5q8 4 11 -3zM212 -9q-6 0 -10 4.5t-4 10.5v298q0 14 14 14q6 0 10.5 -4t4.5 -10v-298q0 -6 -4.5 -10.5t-10.5 -4.5zM82 770q-7 0 -10 7q-2 9 7 12
l252 90q8 3 12 -6t-6 -13l-252 -90h-3z" />
    <glyph glyph-name="multiply" unicode="&#xd7;" horiz-adv-x="304" 
d="M232 405l-171 -171q-8 -6 -15 0q-6 7 0 15l171 171q7 6 15 0q6 -7 0 -15zM231 235q-8 -6 -14 0l-170 170q-6 6 0 14q3 3 7.5 2.5t6.5 -2.5l170 -170q7 -7 0 -14z" />
    <glyph glyph-name="divide" unicode="&#xf7;" horiz-adv-x="285" 
d="M133 0q-10 0 -10 10v56q0 10 10 10t10 -10v-56q0 -10 -10 -10zM132 392q-10 0 -10 10v54q0 10 10 10t10 -10v-54q0 -10 -10 -10zM256 225h-242q-10 0 -10 10t10 10h242q10 0 10 -10t-10 -10z" />
    <glyph glyph-name="onequarter" unicode="&#xbc;" horiz-adv-x="736" 
d="M-23 714l123 124q9 9 18 0q4 -4 4 -10l1 -698q0 -6 -4 -10.5t-10 -4.5t-10.5 4.5t-4.5 10.5l2 698l22 -10l-129 -117q-7 -5 -13 1q-5 6 1 12zM73 -40q-2 0 -6 2q-8 5 -2 14l552 750q5 7 14 2q8 -6 2 -14l-552 -750q-3 -4 -8 -4zM656 -140l6 704l16 -5l-315 -466l-11 21
l252 -6q7 0 7 -7q0 -8 -7 -8l-252 -5q-13 0 -13 12q0 6 2 8l323 461q4 8 12 2q4 -4 4 -7l5 -704q0 -6 -4 -10.5t-10 -4.5t-10.5 4.5t-4.5 10.5z" />
    <glyph glyph-name="onehalf" unicode="&#xbd;" horiz-adv-x="941" 
d="M-4 754l123 124q9 9 18 0q4 -4 4 -10l1 -698q0 -6 -4 -10.5t-10 -4.5t-10.5 4.5t-4.5 10.5l2 698l22 -10l-129 -117q-7 -5 -13 1q-5 6 1 12zM77 -40q-2 0 -6 2q-8 5 -2 14l552 750q5 7 14 2q8 -6 2 -14l-552 -750q-3 -4 -8 -4zM503 435q1 2 3 4q0 1 2 5q2 2 2.5 4t2.5 4
q2 4 5 7.5t6 7.5q6 8 12 15t13 13q30 28 65 40q9 4 18.5 6t18.5 4q22 3 38 2q39 0 75 -15q35 -13 65 -40q14 -14 25.5 -29.5t19.5 -32.5q9 -17 14.5 -35t9.5 -37q2 -10 2.5 -19t1.5 -19q0 -5 0.5 -9.5t0.5 -9.5q-1 -5 -1 -9.5v-9.5q-2 -19 -6 -37.5t-10 -36.5
q-12 -36 -30 -69q-17 -31 -41 -63q-11 -15 -23 -29.5t-25 -28.5q-49 -53 -109 -101q-14 -12 -28.5 -23t-30.5 -22q-15 -12 -30 -21q-4 -3 -8 -5.5t-8 -5.5l-8 -5l-4 -2l-4 -3l-7 27h365q14 0 14 -14q0 -6 -4 -10.5t-10 -4.5h-365q-6 0 -10.5 4.5t-4.5 10.5q0 8 7 12h1l3 3
l4 2l8 5l15 9l30 21q29 19 58 43q29 23 56 47t52 50q12 14 23.5 27.5t22.5 27.5t21 29t19 31q19 33 30 65q12 33 15 69q1 5 1 9v8v18q-1 9 -1.5 18t-2.5 17q-4 35 -21 67q-15 32 -40 57q-26 25 -59 38q-16 7 -33.5 10t-34.5 4q-9 1 -18 0.5t-17 -1.5q-17 -3 -34 -9
q-35 -13 -60 -36q-12 -11 -24 -26q-7 -7 -11 -14l-2 -4l-2 -4l-3 -3q0 -2 -2 -4q-2 -6 -9 -4q-6 3 -4 10z" />
    <glyph glyph-name="threequarters" unicode="&#xbe;" horiz-adv-x="914" 
d="M16 721q0 15 3 29q2 8 3.5 14.5t4.5 14.5q11 29 30 49q18 22 43 38q12 8 25 14t27 11t28.5 7t28.5 4q27 3 57 -2q29 -5 56 -15q14 -6 26.5 -13t23.5 -16t21.5 -19.5t18.5 -22.5q18 -26 25 -54q7 -27 4 -58q-5 -30 -18 -57q-14 -27 -36 -46q-11 -11 -22.5 -19t-24.5 -15
q-53 -27 -112 -27v22h7h4h4q10 0 15 -1q8 -1 14.5 -1.5t14.5 -2.5q28 -6 57 -20q28 -14 50 -33q11 -11 21 -22.5t18 -25.5q16 -28 20 -58q2 -15 2 -30.5t-4 -30.5q-3 -16 -9.5 -30t-14.5 -27q-18 -26 -42 -45q-11 -10 -24.5 -17.5t-27.5 -13.5q-28 -13 -58 -17
q-8 -2 -15 -2.5t-15 -1.5h-7h-4h-4h-7q-2 0 -4 0.5t-4 0.5q-29 1 -59 11q-30 9 -56 25q-13 8 -24.5 18t-21.5 22q-20 22 -33 52q-5 15 -8.5 30.5t-3.5 31.5q0 6 4.5 10t10.5 4q14 0 14 -14t2.5 -26.5t7.5 -24.5t12 -23t15 -22q9 -10 19 -18.5t21 -15.5q23 -15 49 -23
q53 -17 107 -8q29 5 52 15q24 10 46 27q23 18 37 39q7 11 12.5 23t8.5 25q6 27 2 53q-2 13 -6 25.5t-11 23.5q-14 25 -34 42q-19 17 -44 30q-23 12 -52 18q-6 2 -12.5 3t-14.5 1q-3 1 -6.5 1h-6.5l-4 1h-3h-7q-11 0 -11 11t11 11q55 0 102 24q25 13 43 30q10 9 17.5 19.5
t14.5 21.5q11 21 16 49q3 26 -3 52q-8 26 -22 47q-16 22 -36 38q-21 16 -45 27q-13 5 -25.5 8.5t-26.5 5.5q-52 9 -105 -8q-13 -4 -25.5 -9.5t-23.5 -12.5q-23 -16 -40 -35q-8 -10 -15 -21t-12 -23q-10 -24 -10 -52q0 -7 -8 -7t-8 7zM269 -40q-2 0 -6 2q-8 5 -2 14l552 750
q5 7 14 2q8 -6 2 -14l-552 -750q-3 -4 -8 -4zM816 -124l6 704l16 -5l-315 -466l-11 21l252 -6q7 0 7 -7q0 -8 -7 -8l-252 -5q-13 0 -13 12q0 6 2 8l323 461q4 8 12 2q4 -4 4 -7l5 -704q0 -6 -4 -10.5t-10 -4.5t-10.5 4.5t-4.5 10.5z" />
    <glyph glyph-name="onesuperior" unicode="&#xb9;" horiz-adv-x="222" 
d="M53.4141 674.993l70.5156 37.3037q5.16016 2.70801 10.3193 0q2.29395 -1.20312 2.29395 -3.00781l0.573242 -209.988q0 -1.80469 -2.29395 -3.15918q-2.29297 -1.35352 -5.73242 -1.35352q-3.44043 0 -6.01953 1.35352q-2.58008 1.35449 -2.58008 3.15918
l1.14648 209.988l12.6123 -3.00879l-73.9561 -35.1982q-4.0127 -1.50488 -7.45312 0.300781q-2.86621 1.80469 0.574219 3.61035z" />
    <glyph glyph-name="ordmasculine" unicode="&#xba;" horiz-adv-x="269" 
d="M125.506 514.583q-20.7666 0 -39.5449 6.66309q-18.7773 6.66211 -32.916 19.6465q-14.5811 12.6416 -22.3125 28.7002q-7.73242 16.0586 -7.73242 33.8262q0 18.1084 7.73242 34.167q7.73145 16.0586 22.3125 28.7012q14.1387 12.9834 32.916 19.6465
q18.7783 6.66211 39.5449 6.66211q20.7656 0 39.5439 -6.66211q18.7773 -6.66309 32.916 -19.6465q14.5811 -12.6426 22.3125 -28.7012q7.73242 -16.0586 7.73242 -34.167q0 -17.7676 -7.73242 -33.8262q-7.73145 -16.0586 -22.3125 -28.7002
q-14.1387 -12.9844 -32.916 -19.6465q-18.7783 -6.66309 -39.5439 -6.66309zM125.506 685.763q-19.4414 0 -36.4521 -6.49219q-17.0098 -6.49219 -29.8232 -17.5967q-12.8135 -11.1035 -20.1035 -26.1377t-7.29004 -32.1172q0 -17.084 7.29004 -31.9473
q7.29004 -14.8623 20.1035 -25.9668t29.8232 -17.5967q17.0107 -6.49121 36.4521 -6.49121q19.4404 0 36.4512 6.49121q17.0098 6.49219 29.8232 17.5967t20.1035 25.9668q7.29004 14.8633 7.29004 31.9473q0 17.083 -7.29004 32.1172t-20.1035 26.1377
q-12.8135 11.1045 -29.8232 17.5967q-17.0107 6.49219 -36.4512 6.49219z" />
    <glyph glyph-name="twosuperior" unicode="&#xb2;" horiz-adv-x="273" 
d="M48.4814 679.473q0.439453 0.575195 1.31934 1.15039q0 0.287109 0.879883 1.4375q0.879883 0.574219 1.09961 1.14941t1.09961 1.15039q0.879883 1.14941 2.19922 2.15625q1.31934 1.00586 2.63867 2.15527q2.63867 2.2998 5.27734 4.3125
q2.63965 2.0127 5.71777 3.7373q13.1953 8.04883 28.5889 11.499q3.95801 1.14941 8.13672 1.72461q4.17773 0.575195 8.13574 1.15039q9.67676 0.862305 16.7139 0.574219q17.1523 0 32.9863 -4.31152q15.3936 -3.7373 28.5879 -11.499q6.15723 -4.02539 11.2158 -8.48047
q5.05762 -4.45605 8.57617 -9.34375q3.95898 -4.88672 6.37793 -10.0615q2.41895 -5.17383 4.17773 -10.6357q0.879883 -2.875 1.09961 -5.46289q0.219727 -2.58691 0.660156 -5.46191q0 -1.4375 0.219727 -2.73047q0.219727 -1.29395 0.219727 -2.73145
q-0.439453 -1.4375 -0.439453 -2.73047v-2.73145q-0.879883 -5.46191 -2.63965 -10.7803q-1.75879 -5.31836 -4.39746 -10.4932q-5.27832 -10.3486 -13.1953 -19.8359q-7.47656 -8.91113 -18.0322 -18.1104q-4.83789 -4.3125 -10.1162 -8.48047
q-5.27734 -4.16895 -10.9951 -8.19336q-21.5508 -15.2363 -47.9404 -29.0352q-6.15723 -3.44922 -12.5352 -6.61133q-6.37695 -3.16309 -13.4141 -6.3252q-6.59766 -3.44922 -13.1943 -6.03711q-1.75977 -0.862305 -3.51855 -1.58105q-1.75977 -0.71875 -3.51855 -1.58105
l-3.51855 -1.4375l-1.75977 -0.574219l-1.75879 -0.862305l-3.0791 7.76172h160.534q6.15723 0 6.15723 -4.02539q0 -1.72461 -1.75879 -3.01855q-1.75977 -1.29297 -4.39844 -1.29297h-160.534q-2.63867 0 -4.61816 1.29297q-1.97852 1.29395 -1.97852 3.01855
q0 2.2998 3.07812 3.4502h0.439453l1.32031 0.862305l1.75879 0.575195l3.51855 1.4375l6.59766 2.58691l13.1943 6.03711q12.7549 5.46191 25.5098 12.3613q12.7549 6.6123 24.6299 13.5117t22.8701 14.373q5.27832 4.02539 10.3359 7.90625t9.89551 7.90527
q4.83887 4.02441 9.23633 8.33691q4.39844 4.3125 8.35742 8.91211q8.35645 9.48633 13.1943 18.6855q5.27734 9.48633 6.59668 19.8359q0.44043 1.4375 0.44043 2.58691v2.2998v5.1748q-0.44043 2.58691 -0.660156 5.1748q-0.219727 2.58691 -1.09961 4.88672
q-1.75879 10.0615 -9.23633 19.2607q-6.59668 9.19922 -17.5928 16.3857q-11.4346 7.1875 -25.9492 10.9248q-7.03711 2.01172 -14.7334 2.87402q-7.69727 0.863281 -15.1738 1.15039q-3.95898 0.287109 -7.91699 0.143555t-7.47656 -0.430664
q-7.47754 -0.863281 -14.9541 -2.58789q-15.3936 -3.7373 -26.3896 -10.3486q-5.27734 -3.16211 -10.5557 -7.47461q-3.07812 -2.0127 -4.83789 -4.02441q-0.439453 -0.575195 -0.879883 -1.15039q-0.439453 -0.574219 -0.878906 -1.14941l-1.31934 -0.862305
q0 -0.575195 -0.879883 -1.15039q-0.879883 -1.72461 -3.95898 -1.14941q-2.63867 0.862305 -1.75879 2.87402z" />
    <glyph glyph-name="threesuperior" unicode="&#xb3;" horiz-adv-x="266" 
d="M53.7559 657.816q0 4.39844 1.05469 8.50293q0.702148 2.3457 1.22852 4.25195q0.527344 1.90527 1.58105 4.25098q3.86426 8.50391 10.5381 14.3682q6.32227 6.4502 15.1035 11.1416q4.21484 2.3457 8.78125 4.10547q4.56641 1.75879 9.48438 3.22461
q4.91797 1.4668 10.0107 2.05273q5.09277 0.586914 10.0107 1.17285q9.48438 0.879883 20.0215 -0.585938q10.1865 -1.46582 19.6709 -4.39844q4.91699 -1.75879 9.30859 -3.81152q4.39062 -2.05273 8.25391 -4.69141q3.86426 -2.63867 7.55176 -5.71777
q3.68848 -3.0791 6.49902 -6.59766q6.32227 -7.62305 8.78125 -15.833q2.45898 -7.91699 1.40527 -17.0068q-1.75684 -8.7959 -6.32324 -16.7129q-4.91699 -7.91699 -12.6455 -13.4873q-3.86328 -3.22559 -7.90234 -5.57129q-4.04004 -2.3457 -8.60645 -4.39844
q-18.6162 -7.91699 -39.3408 -7.91699v6.45117h2.45898h1.40527h1.40527q3.51172 0 5.26855 -0.292969q2.80957 -0.293945 5.09277 -0.44043t5.09375 -0.733398q9.83496 -1.75879 20.0215 -5.86328q9.83496 -4.10547 17.5625 -9.67676q3.86426 -3.22559 7.37695 -6.59668
q3.5127 -3.37207 6.32227 -7.47754q5.62012 -8.20996 7.02539 -17.0059q0.702148 -4.39844 0.702148 -8.94336t-1.40527 -8.94238q-1.05371 -4.69141 -3.33691 -8.79688q-2.28223 -4.10547 -5.09277 -7.91699q-6.32227 -7.62305 -14.7529 -13.1943
q-3.86328 -2.93164 -8.60547 -5.13086t-9.66016 -3.95898q-9.83496 -3.81152 -20.3721 -4.98438q-2.81055 -0.585938 -5.26953 -0.733398q-2.45898 -0.146484 -5.26855 -0.439453h-2.45898h-1.40527h-1.4043h-2.45898q-0.703125 0 -1.40527 0.146484t-1.40527 0.146484
q-10.1865 0.293945 -20.7236 3.22559q-10.5381 2.63867 -19.6709 7.33008q-4.56641 2.3457 -8.60547 5.27832q-4.04004 2.93164 -7.55176 6.4502q-7.02539 6.45117 -11.5918 15.2471q-1.75684 4.39844 -2.98535 8.94336q-1.22949 4.54492 -1.22949 9.23633
q0 1.75879 1.58008 2.93164q1.58105 1.17285 3.68848 1.17285q4.91797 0 4.91797 -4.10449q0 -4.10547 0.87793 -7.77051t2.63379 -7.18359q1.75684 -3.51855 4.21582 -6.74414q2.45801 -3.22461 5.26855 -6.4502q3.16113 -2.93262 6.67383 -5.4248t7.37695 -4.54492
q8.07812 -4.39844 17.2109 -6.74414q18.6172 -4.98438 37.585 -2.3457q10.1865 1.4668 18.2646 4.39844q8.43066 2.93262 16.1582 7.91699q8.0791 5.27832 12.9971 11.4355q2.45801 3.22559 4.39062 6.74316q1.93164 3.51953 2.98535 7.33105
q2.10742 7.91699 0.702148 15.54q-0.702148 3.81152 -2.10742 7.47656q-1.40527 3.66602 -3.86328 6.89062q-4.91797 7.33008 -11.9434 12.3154q-6.67383 4.98438 -15.4551 8.7959q-8.0791 3.51855 -18.2656 5.27832q-2.10742 0.585938 -4.39062 0.879883
q-2.2832 0.292969 -5.09277 0.292969q-1.05371 0.292969 -2.2832 0.292969h-2.2832l-1.40527 0.292969h-1.05371h-2.45898q-3.86328 0 -3.86328 3.22559t3.86328 3.22559q19.3193 0 35.8281 7.03711q8.78125 3.81152 15.1045 8.7959q3.5127 2.63965 6.14648 5.71777
q2.63477 3.0791 5.09375 6.30469q3.86328 6.15723 5.62012 14.3672q1.05371 7.62305 -1.05371 15.2471q-2.81055 7.62305 -7.72754 13.7803q-5.62012 6.45117 -12.6455 11.1426q-7.37598 4.69141 -15.8066 7.91699q-4.56641 1.46582 -8.95703 2.49219t-9.30859 1.6123
q-18.2646 2.63867 -36.8818 -2.3457q-4.56641 -1.17285 -8.95703 -2.78516q-4.39062 -1.61328 -8.25488 -3.66504q-8.07812 -4.69141 -14.0498 -10.2627q-2.81055 -2.93164 -5.26855 -6.15723q-2.45898 -3.22559 -4.21582 -6.74414q-3.5127 -7.03711 -3.5127 -15.2471
q0 -2.05273 -2.80957 -2.05273q-2.81055 0 -2.81055 2.05273z" />
    <glyph glyph-name="macron" unicode="&#xaf;" horiz-adv-x="428" 
d="M349 586h-310q-10 0 -10 10t10 10h310q10 0 10 -10t-10 -10z" />
    <glyph glyph-name="macron" unicode="&#x2c9;" horiz-adv-x="428" 
d="M349 586h-310q-10 0 -10 10t10 10h310q10 0 10 -10t-10 -10z" />
    <glyph glyph-name="paragraph" unicode="&#xb6;" horiz-adv-x="253" 
d="M55 639l192 3v-21h-62v-647q0 -10 -10 -10t-10 10v647h-100v-647q0 -10 -10 -10t-10 10v647h-33zM-46 541q0 19 7.5 36.5t20.5 30.5t30 20.5t37 7.5v-189q-20 0 -37 7.5t-30 20t-20.5 29.5t-7.5 37z" />
    <glyph glyph-name="Aogonek" unicode="&#x104;" horiz-adv-x="484" 
d="M-24 2l244 703q1 3 4 5t7 0q5 -2 5 -5l243 -700q5 -14 -9 -19q-5 -2 -10.5 0.5t-7.5 8.5l-232 704h16l-233 -707q-2 -5 -7.5 -8t-10.5 -1q-14 5 -9 18v1zM411 141l-318 6q-8 0 -8 9t8 9l318 5q6 1 10.5 -3.5t4.5 -10.5q0 -13 -14 -15h-1zM472 -188q-32 0 -55 14
q-27 16 -27 44q0 44 38 64q15 8 29 10v59q0 4 3 7t6 3q9 0 9 -10v-67q0 -3 -2 -6t-6 -3q-4 -1 -9 -2t-10.5 -3t-10.5 -4q-28 -15 -28 -48q0 -19 20 -29t43 -10q25 0 41 10t16 29q0 3 3 6t7 3t6.5 -3t2.5 -6q0 -29 -25 -45q-23 -13 -51 -13z" />
    <glyph glyph-name="uni00AD" unicode="&#xad;" horiz-adv-x="367" 
d="M34 316h282v-27h-282v27z" />
    <glyph glyph-name="Lcaron" unicode="&#x13d;" horiz-adv-x="360" 
d="M22 702l4 -702l-13 12l348 2q6 0 10.5 -4t4.5 -10t-4 -10.5t-10 -4.5h-1l-348 2q-12 0 -12 13l4 702q0 9 8 9q9 0 9 -9zM180 648q-10 0 -10 10v174q0 10 10 10t10 -10v-174q0 -10 -10 -10z" />
    <glyph glyph-name="Sacute" unicode="&#x15a;" horiz-adv-x="433" 
d="M390 525q0 27 -9 51q-5 12 -11 23.5t-14 22.5q-16 21 -37 36q-20 14 -46 24q-52 17 -103 7q-13 -2 -25 -6.5t-24 -9.5q-11 -6 -22 -13.5t-20 -16.5q-21 -19 -32 -40q-14 -23 -18 -48q-1 -7 -1.5 -13t-1.5 -13v-3v-3q0 -5 1 -7v-13q2 -13 4.5 -25.5t7.5 -24.5
q2 -5 5 -10.5t7 -10.5t8 -9.5t9 -8.5q9 -8 20.5 -14t23.5 -10q12 -5 25 -8t26 -5q14 -2 27 -4t27 -4q29 -3 55 -10q29 -7 53 -19q14 -8 25 -16q12 -9 21 -21q9 -10 17 -25q3 -7 6 -13.5t5 -13.5q5 -14 6.5 -28t3.5 -28q0 -10 1 -14v-15q-1 -7 -1.5 -14t-2.5 -15
q-5 -29 -20 -55q-7 -13 -16 -24t-20 -21t-22.5 -18.5t-24.5 -14.5q-26 -13 -55 -19q-8 -2 -14.5 -2.5t-14.5 -1.5h-7h-4h-4h-7q-5 0 -7 1q-30 2 -57 12q-14 5 -27 11.5t-24 15.5q-26 18 -42 40q-9 12 -16 25t-12 27q-10 27 -10 58q0 6 4 10.5t10 4.5t10.5 -4.5t4.5 -10.5
q0 -12 1.5 -24.5t6.5 -24.5q7 -22 23 -44q16 -21 36 -35q10 -8 21.5 -13.5t22.5 -10.5q50 -17 101 -8q12 2 24.5 6t23.5 10q21 10 42 29q20 18 31 39q14 23 18 47q3 12 3 25v13v6.5t-1 6.5q-1 14 -2.5 26.5t-5.5 24.5q-7 24 -23 44q-14 18 -38 31q-22 12 -49 18
q-13 3 -26 5.5t-26 4.5q-14 2 -27.5 4.5t-27.5 4.5t-27 5.5t-27 8.5q-7 2 -13.5 4.5t-13.5 6.5l-12 8t-12 9q-12 11 -20 22q-10 14 -14 25q-6 14 -8.5 28.5t-4.5 28.5v6.5t-1 7.5v7v3v4q1 8 1.5 14.5t2.5 14.5q4 28 20 53q15 25 36 45q22 20 47 32q25 13 54 18q28 6 56 3
q29 -2 56 -12q28 -11 50 -27q11 -8 21.5 -18t18.5 -22q18 -22 27 -50q9 -27 9 -56q0 -8 -8 -8q-7 0 -7 8zM90 770q-7 0 -10 7q-2 9 7 12l252 90q8 3 12 -6t-6 -13l-252 -90h-3z" />
    <glyph glyph-name="Scommaaccent" unicode="&#x218;" horiz-adv-x="433" 
d="M390 525q0 27 -9 51q-5 12 -11 23.5t-14 22.5q-16 21 -37 36q-20 14 -46 24q-52 17 -103 7q-13 -2 -25 -6.5t-24 -9.5q-11 -6 -22 -13.5t-20 -16.5q-21 -19 -32 -40q-14 -23 -18 -48q-1 -7 -1.5 -13t-1.5 -13v-3v-3q0 -5 1 -7v-13q2 -13 4.5 -25.5t7.5 -24.5
q2 -5 5 -10.5t7 -10.5t8 -9.5t9 -8.5q9 -8 20.5 -14t23.5 -10q12 -5 25 -8t26 -5q14 -2 27 -4t27 -4q29 -3 55 -10q29 -7 53 -19q14 -8 25 -16q12 -9 21 -21q9 -10 17 -25q3 -7 6 -13.5t5 -13.5q5 -14 6.5 -28t3.5 -28q0 -10 1 -14v-15q-1 -7 -1.5 -14t-2.5 -15
q-5 -29 -20 -55q-7 -13 -16 -24t-20 -21t-22.5 -18.5t-24.5 -14.5q-26 -13 -55 -19q-8 -2 -14.5 -2.5t-14.5 -1.5h-7h-4h-4h-7q-5 0 -7 1q-30 2 -57 12q-14 5 -27 11.5t-24 15.5q-26 18 -42 40q-9 12 -16 25t-12 27q-10 27 -10 58q0 6 4 10.5t10 4.5t10.5 -4.5t4.5 -10.5
q0 -12 1.5 -24.5t6.5 -24.5q7 -22 23 -44q16 -21 36 -35q10 -8 21.5 -13.5t22.5 -10.5q50 -17 101 -8q12 2 24.5 6t23.5 10q21 10 42 29q20 18 31 39q14 23 18 47q3 12 3 25v13v6.5t-1 6.5q-1 14 -2.5 26.5t-5.5 24.5q-7 24 -23 44q-14 18 -38 31q-22 12 -49 18
q-13 3 -26 5.5t-26 4.5q-14 2 -27.5 4.5t-27.5 4.5t-27 5.5t-27 8.5q-7 2 -13.5 4.5t-13.5 6.5l-12 8t-12 9q-12 11 -20 22q-10 14 -14 25q-6 14 -8.5 28.5t-4.5 28.5v6.5t-1 7.5v7v3v4q1 8 1.5 14.5t2.5 14.5q4 28 20 53q15 25 36 45q22 20 47 32q25 13 54 18q28 6 56 3
q29 -2 56 -12q28 -11 50 -27q11 -8 21.5 -18t18.5 -22q18 -22 27 -50q9 -27 9 -56q0 -8 -8 -8q-7 0 -7 8zM220 -261q-10 0 -10 10v174q0 10 10 10t10 -10v-174q0 -10 -10 -10z" />
    <glyph glyph-name="Tcaron" unicode="&#x164;" horiz-adv-x="371" 
d="M194 702l5 -702q0 -6 -4 -10.5t-10 -4.5t-10.5 4.5t-4.5 10.5l6 702q0 9 9 9t9 -9zM367 692h-380q-10 0 -10 10t10 10h380q10 0 10 -10t-10 -10zM185 771q-2 0 -6 2l-132 96q-7 5 -2 14q5 7 14 2l126 -92l126 92q8 6 14 -2q5 -9 -2 -14l-132 -96q-4 -2 -6 -2z" />
    <glyph glyph-name="Zacute" unicode="&#x179;" horiz-adv-x="458" 
d="M24 709l395 2q9 0 9 -9q0 -3 -1 -5l-406 -697l-11 18l438 2q14 0 14 -14q0 -6 -4 -10.5t-10 -4.5l-438 2q-13 0 -13 13q0 2 2 6l413 694l7 -13l-395 2q-7 0 -7 7t7 7zM103 770q-7 0 -10 7q-2 9 7 12l252 90q8 3 12 -6t-6 -13l-252 -90h-3z" />
    <glyph glyph-name="Ecaron" unicode="&#x11a;" horiz-adv-x="350" 
d="M301 693l-288 -1l10 10l4 -702l-14 13l315 1q6 0 10.5 -4t4.5 -10t-4 -10.5t-10 -4.5h-1l-315 2q-13 0 -13 13l3 702q0 10 10 10l288 -1q9 0 9 -9t-9 -9zM164 356h-149q-10 0 -10 10t10 10h149q10 0 10 -10t-10 -10zM175 771q-2 0 -6 2l-132 96q-7 5 -2 14q5 7 14 2
l126 -92l126 92q8 6 14 -2q5 -9 -2 -14l-132 -96q-4 -2 -6 -2z" />
    <glyph glyph-name="ecaron" unicode="&#x11b;" horiz-adv-x="482" 
d="M386 56l-2 -2l-2 -2l-3 -3l-4 -4l-4 -4q-4 -3 -8 -6.5t-9 -6.5q-15 -12 -36 -22q-37 -19 -82 -21q-43 -3 -83 14q-20 8 -38 19.5t-33 25.5q-16 14 -28.5 31t-22.5 35q-20 37 -27 78q-9 43 -5 83q2 20 5.5 40.5t11.5 39.5q8 20 17.5 38t22.5 35q27 33 62 55q35 23 78 29
q41 6 82 -5q39 -10 74 -37q17 -13 30.5 -28.5t24.5 -32.5q22 -35 33 -75q6 -20 8.5 -40t2.5 -40v-1q0 -7 -7 -7l-337 3q-4 0 -4 5q0 4 4 4l337 3l-7 -8v1q0 37 -11 76q-11 38 -32 70q-21 33 -52 56q-30 23 -68 34q-19 5 -38 6t-37 -3q-38 -6 -71 -27q-31 -19 -55 -51
q-12 -15 -21 -32t-16 -35q-13 -36 -15.5 -74.5t5.5 -76.5q9 -38 27 -71q19 -35 46 -59q30 -27 63 -40q36 -14 73 -11q36 1 71 19q8 4 15.5 9t15.5 11q8 5 14 12q3 2 7 6l3 3l2 2l2 2q9 10 20 1q10 -10 1 -21zM241 571q-2 0 -6 2l-132 96q-7 5 -2 14q5 7 14 2l126 -92l126 92
q8 6 14 -2q5 -9 -2 -14l-132 -96q-4 -2 -6 -2z" />
    <glyph glyph-name="eogonek" unicode="&#x119;" horiz-adv-x="482" 
d="M386 56l-2 -2l-2 -2l-3 -3l-4 -4l-4 -4q-4 -3 -8 -6.5t-9 -6.5q-15 -12 -36 -22q-37 -19 -82 -21q-43 -3 -83 14q-20 8 -38 19.5t-33 25.5q-16 14 -28.5 31t-22.5 35q-20 37 -27 78q-9 43 -5 83q2 20 5.5 40.5t11.5 39.5q8 20 17.5 38t22.5 35q27 33 62 55q35 23 78 29
q41 6 82 -5q39 -10 74 -37q17 -13 30.5 -28.5t24.5 -32.5q22 -35 33 -75q6 -20 8.5 -40t2.5 -40v-1q0 -7 -7 -7l-337 3q-4 0 -4 5q0 4 4 4l337 3l-7 -8v1q0 37 -11 76q-11 38 -32 70q-21 33 -52 56q-30 23 -68 34q-19 5 -38 6t-37 -3q-38 -6 -71 -27q-31 -19 -55 -51
q-12 -15 -21 -32t-16 -35q-13 -36 -15.5 -74.5t5.5 -76.5q9 -38 27 -71q19 -35 46 -59q30 -27 63 -40q36 -14 73 -11q36 1 71 19q8 4 15.5 9t15.5 11q8 5 14 12q3 2 7 6l3 3l2 2l2 2q9 10 20 1q10 -10 1 -21zM233 -195q-32 0 -55 14q-27 16 -27 44q0 44 38 64q15 8 29 10v59
q0 4 3 7t6 3q9 0 9 -10v-67q0 -3 -2 -6t-6 -3q-4 -1 -9 -2t-10.5 -3t-10.5 -4q-28 -15 -28 -48q0 -19 20 -29t43 -10q25 0 41 10t16 29q0 3 3 6t7 3t6.5 -3t2.5 -6q0 -29 -25 -45q-23 -13 -51 -13z" />
    <glyph glyph-name="Eogonek" unicode="&#x118;" horiz-adv-x="350" 
d="M301 693l-288 -1l10 10l4 -702l-14 13l315 1q6 0 10.5 -4t4.5 -10t-4 -10.5t-10 -4.5h-1l-315 2q-13 0 -13 13l3 702q0 10 10 10l288 -1q9 0 9 -9t-9 -9zM164 356h-149q-10 0 -10 10t10 10h149q10 0 10 -10t-10 -10zM188 -198q-32 0 -55 14q-27 16 -27 44q0 44 38 64
q15 8 29 10v59q0 4 3 7t6 3q9 0 9 -10v-67q0 -3 -2 -6t-6 -3q-4 -1 -9 -2t-10.5 -3t-10.5 -4q-28 -15 -28 -48q0 -19 20 -29t43 -10q25 0 41 10t16 29q0 3 3 6t7 3t6.5 -3t2.5 -6q0 -29 -25 -45q-23 -13 -51 -13z" />
    <glyph glyph-name="Ccaron" unicode="&#x10c;" horiz-adv-x="536" 
d="M497 83q-32 -36 -72 -60q-40 -25 -88 -33q-46 -9 -94 2q-45 10 -86 37q-20 13 -37.5 29t-32.5 34q-30 37 -49 80q-40 87 -38 182q0 49 10 93q9 47 30 89q20 44 51 79q29 37 71 63q40 25 89 36q12 2 24 3t24 1t24 -1t24 -3q49 -11 89 -36q20 -13 38 -29t34 -34
q4 -5 3.5 -11t-5.5 -10q-11 -9 -20 2q-27 33 -65 58q-36 24 -79 33q-11 2 -21.5 3t-21.5 2q-11 0 -21.5 -1t-21.5 -3q-42 -7 -81 -32q-38 -24 -66 -56q-28 -34 -48 -74q-20 -42 -29 -84q-5 -22 -7.5 -44t-3.5 -44q0 -23 1.5 -45t6.5 -44q9 -45 27 -85q9 -20 20.5 -39.5
t25.5 -36.5t30 -32t35 -28q18 -12 38 -21t42 -14q44 -11 88 -3q22 3 42.5 11t39.5 19q38 22 69 56q5 5 10 1q5 -5 1 -10zM268 771q-2 0 -6 2l-132 96q-7 5 -2 14q5 7 14 2l126 -92l126 92q8 6 14 -2q5 -9 -2 -14l-132 -96q-4 -2 -6 -2z" />
    <glyph glyph-name="ccaron" unicode="&#x10d;" horiz-adv-x="428" 
d="M384 59q-12 -13 -25.5 -24t-28.5 -19q-33 -17 -66 -23q-18 -3 -35 -3t-35 3q-17 3 -33.5 9.5t-32.5 14.5q-29 17 -54 44q-23 24 -40 57q-17 32 -24.5 66t-7.5 69t8 69t25 66q18 32 41 57q24 26 56 44q33 17 68 23q16 3 35 3q10 0 18.5 -1t17.5 -3q35 -6 67 -25
q16 -9 30 -20.5t26 -24.5q9 -11 -1 -21q-11 -9 -21 1q-22 25 -48 41q-29 16 -58 22q-8 2 -15.5 3t-15.5 1h-15.5t-15.5 -2q-30 -4 -60 -20q-27 -15 -50 -38q-22 -22 -38 -51q-32 -58 -32 -124q-2 -33 6 -65t22 -61q14 -30 36 -53q21 -24 49 -41q30 -17 60 -23q8 -2 16 -2.5
t16 -1.5q17 0 32 3q31 4 61 20q14 8 27.5 18t24.5 22q4 6 10 0q5 -5 0 -10zM214 571q-2 0 -6 2l-132 96q-7 5 -2 14q5 7 14 2l126 -92l126 92q8 6 14 -2q5 -9 -2 -14l-132 -96q-4 -2 -6 -2z" />
    <glyph glyph-name="cacute" unicode="&#x107;" horiz-adv-x="428" 
d="M384 59q-12 -13 -25.5 -24t-28.5 -19q-33 -17 -66 -23q-18 -3 -35 -3t-35 3q-17 3 -33.5 9.5t-32.5 14.5q-29 17 -54 44q-23 24 -40 57q-17 32 -24.5 66t-7.5 69t8 69t25 66q18 32 41 57q24 26 56 44q33 17 68 23q16 3 35 3q10 0 18.5 -1t17.5 -3q35 -6 67 -25
q16 -9 30 -20.5t26 -24.5q9 -11 -1 -21q-11 -9 -21 1q-22 25 -48 41q-29 16 -58 22q-8 2 -15.5 3t-15.5 1h-15.5t-15.5 -2q-30 -4 -60 -20q-27 -15 -50 -38q-22 -22 -38 -51q-32 -58 -32 -124q-2 -33 6 -65t22 -61q14 -30 36 -53q21 -24 49 -41q30 -17 60 -23q8 -2 16 -2.5
t16 -1.5q17 0 32 3q31 4 61 20q14 8 27.5 18t24.5 22q4 6 10 0q5 -5 0 -10zM88 570q-7 0 -10 7q-2 9 7 12l252 90q8 3 12 -6t-6 -13l-252 -90h-3z" />
    <glyph glyph-name="Cacute" unicode="&#x106;" horiz-adv-x="536" 
d="M497 83q-32 -36 -72 -60q-40 -25 -88 -33q-46 -9 -94 2q-45 10 -86 37q-20 13 -37.5 29t-32.5 34q-30 37 -49 80q-40 87 -38 182q0 49 10 93q9 47 30 89q20 44 51 79q29 37 71 63q40 25 89 36q12 2 24 3t24 1t24 -1t24 -3q49 -11 89 -36q20 -13 38 -29t34 -34
q4 -5 3.5 -11t-5.5 -10q-11 -9 -20 2q-27 33 -65 58q-36 24 -79 33q-11 2 -21.5 3t-21.5 2q-11 0 -21.5 -1t-21.5 -3q-42 -7 -81 -32q-38 -24 -66 -56q-28 -34 -48 -74q-20 -42 -29 -84q-5 -22 -7.5 -44t-3.5 -44q0 -23 1.5 -45t6.5 -44q9 -45 27 -85q9 -20 20.5 -39.5
t25.5 -36.5t30 -32t35 -28q18 -12 38 -21t42 -14q44 -11 88 -3q22 3 42.5 11t39.5 19q38 22 69 56q5 5 10 1q5 -5 1 -10zM142 770q-7 0 -10 7q-2 9 7 12l252 90q8 3 12 -6t-6 -13l-252 -90h-3z" />
    <glyph glyph-name="Lacute" unicode="&#x139;" horiz-adv-x="360" 
d="M22 702l4 -702l-13 12l348 2q6 0 10.5 -4t4.5 -10t-4 -10.5t-10 -4.5h-1l-348 2q-12 0 -12 13l4 702q0 9 8 9q9 0 9 -9zM54 770q-7 0 -10 7q-2 9 7 12l252 90q8 3 12 -6t-6 -13l-252 -90h-3z" />
    <glyph glyph-name="lacute" unicode="&#x13a;" horiz-adv-x="94" 
d="M26 0l4 351l2 176l1 44v22v5v2v-1v1v1v2q-1 4 -1 11q-2 11 -3.5 21.5t-3.5 20.5q-2 5 -3 10.5t-3 10.5q-2 6 -4 9q-2 4 -5 7q-5 5 0 10t10 0q4 -4 8 -10q2 -3 2.5 -6t2.5 -5q2 -5 3.5 -11t3.5 -11l4 -22l4 -22q0 -8 1 -11v-3v-1v-1v-2v-5v-22l1 -44l2 -176l3 -351
q1 -6 -3.5 -10.5t-10.5 -4.5t-10 4.5t-5 10.5zM-78 753q-7 0 -10 7q-2 9 7 12l252 90q8 3 12 -6t-6 -13l-252 -90h-3z" />
    <glyph glyph-name="abreve" unicode="&#x103;" horiz-adv-x="379" 
d="M270 320q-25 -1 -49.5 -1.5t-48.5 -4.5q-22 -3 -47 -11q-24 -8 -42 -19q-5 -4 -9.5 -7t-9.5 -7q-2 -2 -4.5 -4t-4.5 -4l-2 -2l-2 -2q-1 -2 -2 -2.5t-2 -2.5q-8 -8 -13.5 -18t-10.5 -21q-17 -44 -6 -91q5 -25 16 -43q3 -5 6 -9.5t7 -8.5q2 -2 4 -4.5t4 -4.5l1 -1q1 0 1 -1
h1l1 -1q1 -2 2 -2.5t2 -1.5q17 -13 40 -21q20 -7 46 -10q22 -3 47 -3q25 2 47 6q26 5 45 13q10 4 20 10q10 7 16 14q10 9 21 0q10 -11 0 -21q-9 -9 -22 -17q-12 -8 -24 -12q-13 -5 -25.5 -8.5t-25.5 -5.5q-28 -5 -51 -5q-13 -1 -26 0t-26 3t-25.5 4.5t-24.5 7.5
q-25 9 -47 26q-3 2 -5 5l-2 1l-1 1l-1 1l-1 1q-3 3 -5 5.5t-4 4.5q-8 10 -15 23q-7 11 -11.5 23.5t-7.5 25.5q-9 55 10 104q10 23 28 44q2 2 2.5 3t2.5 2q1 1 1 1.5t1 1.5l3 2q6 6 9 8q11 10 22 15q22 13 47 21q23 7 50 10q26 3 50.5 3.5t49.5 0.5q7 0 7 -7t-7 -7zM24 461
q1 1 1.5 1t1.5 1l2 2q2 1 5 4q2 2 5 3.5t5 3.5q5 3 10.5 6t11.5 6q11 5 22.5 9t23.5 7q11 3 23.5 4.5t24.5 2.5t24 1t24 -2q25 -3 48 -12t43 -27t30 -40q6 -11 10 -23t7 -24q2 -12 3 -24.5t1 -24.5l1 -47l1 -95l1 -188q1 -6 -3.5 -10.5t-10.5 -4.5t-10 4.5t-5 10.5l2 188
l1 95l1 47q0 25 -4 45q-2 11 -5 21t-8 21q-5 10 -11.5 18.5t-14.5 16.5q-15 13 -36 23q-21 9 -43 12q-25 3 -45 2q-23 -1 -46 -6q-21 -4 -43 -14q-5 -2 -10 -5l-10 -6l-9 -6q-2 -1 -4 -3q-1 -1 -1.5 -1t-1.5 -1q0 -1 -0.5 -1t-0.5 -1h-1q-2 -2 -5 -1.5t-5 2.5q-4 4 0 10z
M189 565q-23 0 -42.5 8.5t-34.5 23.5t-23.5 34.5t-8.5 42.5q0 10 10 10t10 -10q0 -37 26 -63t63 -26t63 26t26 63q0 10 10 10t10 -10q0 -23 -8.5 -42.5t-23.5 -34.5t-35 -23.5t-42 -8.5z" />
    <glyph glyph-name="Abreve" unicode="&#x102;" horiz-adv-x="484" 
d="M-24 2l244 703q1 3 4 5t7 0q5 -2 5 -5l243 -700q5 -14 -9 -19q-5 -2 -10.5 0.5t-7.5 8.5l-232 704h16l-233 -707q-2 -5 -7.5 -8t-10.5 -1q-14 5 -9 18v1zM411 141l-318 6q-8 0 -8 9t8 9l318 5q6 1 10.5 -3.5t4.5 -10.5q0 -13 -14 -15h-1zM242 765q-23 0 -42.5 8.5
t-34.5 23.5t-23.5 34.5t-8.5 42.5q0 10 10 10t10 -10q0 -37 26 -63t63 -26t63 26t26 63q0 10 10 10t10 -10q0 -23 -8.5 -42.5t-23.5 -34.5t-35 -23.5t-42 -8.5z" />
    <glyph glyph-name="Racute" unicode="&#x154;" horiz-adv-x="407" 
d="M2 0l-2 702q0 8 8 10l3 1l4 1l6 1q3 1 6 1t7 1q6 1 12.5 1.5t12.5 1.5q13 2 25.5 2.5t26.5 1.5h25.5t25.5 -2q29 -2 52 -7q13 -3 25.5 -7t24.5 -9q24 -11 45 -27q22 -19 36 -41q14 -23 20 -49t6 -52q0 -13 -1 -26t-3 -26t-6.5 -25.5t-9.5 -24.5q-13 -25 -30 -44
q-19 -19 -43 -31t-49 -18q-25 -4 -52 -6h-26q-8 0 -13 1q-4 0 -6 1h-3h-4l7 11l276 -335q9 -10 -2 -21q-5 -4 -11 -3.5t-10 5.5v1l-264 345q-4 6 1 9q4 2 5 1h3h3q2 -1 7 -1q8 0 12 -1h12t13 1q12 0 24.5 2t23.5 4q24 6 46 17q24 13 39 29q8 8 15 18t12 21t8 23t5 24t3 24
t1 25q0 24 -6 48q-6 26 -19 44q-12 19 -31 35q-18 14 -42 25q-11 5 -22.5 8t-23.5 6q-24 4 -49 6q-13 1 -25 1.5t-25 -0.5q-12 0 -24.5 -1t-24.5 -3q-7 -1 -13 -1.5t-12 -1.5q-8 -2 -12 -2l-6 -1l-3 -1l-3 -1l8 11l-2 -702q0 -9 -9 -9q-8 0 -8 9zM77 770q-7 0 -10 7
q-2 9 7 12l252 90q8 3 12 -6t-6 -13l-252 -90h-3z" />
    <glyph glyph-name="racute" unicode="&#x155;" horiz-adv-x="257" 
d="M49 376q0 3 1 5v4q1 2 1 4t1 4q1 5 2 8.5t3 7.5q6 15 17 30q10 15 23 25q6 6 12.5 10.5t14.5 9.5q29 16 64 24q16 3 32.5 5t33.5 2v1q6 0 10.5 -4.5t4.5 -10.5q0 -13 -14 -15h-1q-32 2 -62 -3q-15 -2 -29.5 -6t-28.5 -11t-26 -16t-22 -21t-16 -25q-2 -4 -3 -7t-3 -7
q0 -2 -2 -8q0 -2 -1 -3v-4q-2 -5 -7 -5q-5 2 -5 6zM38 0l3 255l1 64l1 32v16v8v4v1v1v2q1 8 0.5 15.5t-0.5 15.5q-1 8 -2 15t-3 15t-4.5 14.5t-5.5 12.5q-7 12 -19 20q-8 4 -3 11q4 8 11 3q9 -4 15 -11t11 -14q8 -13 13 -32q4 -15 6 -32q1 -8 1 -16.5v-16.5v-3v-1v-4v-8v-16
l1 -32l1 -64l2 -255q1 -6 -3.5 -10.5t-10.5 -4.5t-10 4.5t-5 10.5zM4 570q-7 0 -10 7q-2 9 7 12l252 90q8 3 12 -6t-6 -13l-252 -90h-3z" />
    <glyph glyph-name="dcaron" unicode="&#x10f;" horiz-adv-x="498" 
d="M367 0l4 351l2 176l1 44v22v5v2v-1v1v1v2q-1 4 -1 11q-2 11 -3.5 21.5t-3.5 20.5q-2 5 -3 10.5t-3 10.5q-2 6 -4 9q-2 4 -5 7q-5 5 0 10t10 0q4 -4 8 -10q2 -3 2.5 -6t2.5 -5q2 -5 3.5 -11t3.5 -11l4 -22l4 -22q0 -8 1 -11v-3v-1v-1v-2v-5v-22l1 -44l2 -176l3 -351
q1 -6 -3.5 -10.5t-10.5 -4.5t-10 4.5t-5 10.5zM300 492l-50 -1h-26h-12h-6h-2h-1h-3q-6 -1 -12 -1.5t-12 -2.5t-12 -3.5t-11 -3.5q-12 -4 -22.5 -9.5t-20.5 -12.5q-11 -7 -19.5 -15t-16.5 -17q-16 -19 -26 -41q-10 -19 -16 -45q-6 -24 -9 -48q-2 -13 -2 -25v-25q0 -24 3 -49
q2 -12 4.5 -24t6.5 -23q3 -11 8 -22l10 -22q11 -19 29 -37t38 -28q11 -5 22 -9.5t22 -6.5q6 -2 12 -2.5t11 -1.5q4 -1 12 -1h6h3h1h1h2h3l2 -1h5h11h10.5t10.5 1q22 2 41 6q21 4 39 12q19 7 35 20q13 7 21 -3q8 -12 -3 -21q-18 -12 -42 -22q-11 -5 -22 -8t-22 -5
q-23 -5 -46 -6h-22h-12q-2 0 -2.5 0.5t-2.5 0.5h-3h-2h-1h2h-2h-2h-3h-7q-4 1 -7 1t-7 1q-6 1 -12.5 1.5t-13.5 2.5q-13 4 -25.5 8.5t-24.5 11.5q-11 7 -22 14.5t-20 17.5q-19 19 -32 43q-7 12 -11.5 24t-8.5 25q-7 23 -10 51q-3 25 -3 51t3 52q3 28 10 51q4 12 8.5 24.5
t10.5 23.5q5 12 12.5 22.5t16.5 21.5q8 10 18 18.5t21 15.5q22 16 47 23q6 2 12 3.5t13 3.5q6 2 12.5 2.5t13.5 1.5h3h2h2h6h12h26l50 -1q6 0 6 -6t-6 -6zM456 479q-10 0 -10 10v174q0 10 10 10t10 -10v-174q0 -10 -10 -10z" />
    <glyph glyph-name="Dcaron" unicode="&#x10e;" horiz-adv-x="474" 
d="M19 699l2 -702l-9 11l3 -1h2l5 -1q2 0 4.5 -0.5t4.5 -0.5q5 -1 9.5 -1t9.5 -1q9 -1 18.5 -1h19.5q39 0 75 6q19 3 37.5 7.5t35.5 11.5t34 16t32 20q30 22 52 52q24 32 37 65q8 17 12.5 35t8.5 37t5.5 37.5t2.5 37.5t0 39v18.5t-1 19.5q-2 19 -4 37.5t-7 37.5
q-8 38 -23 71q-15 34 -39 63q-25 28 -56 46q-16 10 -33 16t-35 11q-19 4 -37 6t-37 1h-19t-19 -2q-5 -1 -9 -1t-9 -2q-2 0 -4.5 -0.5t-4.5 -0.5q-2 -1 -5 -1l-2 -1h-2q-6 -2 -11 1.5t-7 8.5q-2 6 1.5 11t9.5 7h1l1 1h3q2 1 5 1q2 1 5 1t5 1q5 1 10 1.5t10 1.5q10 1 20 1.5
t20 0.5q40 0 81 -9t76 -30t63 -53q25 -32 42 -69q16 -36 25 -77q4 -20 6.5 -39t4.5 -39q0 -11 0.5 -20.5t0.5 -19.5v-40q-2 -20 -3.5 -39.5t-6.5 -39.5q-4 -20 -9 -39t-13 -38q-8 -18 -18 -35.5t-22 -34.5q-25 -31 -58 -56q-34 -25 -71 -38q-20 -8 -39 -12.5t-39 -8.5
q-39 -6 -79 -6q-10 0 -20 0.5t-20 1.5q-5 1 -10 1t-10 1q-2 1 -4.5 1t-5.5 1h-5l-2 1h-3q-9 2 -9 11h1l2 702q0 9 8 9q9 0 9 -9zM237 771q-2 0 -6 2l-132 96q-7 5 -2 14q5 7 14 2l126 -92l126 92q8 6 14 -2q5 -9 -2 -14l-132 -96q-4 -2 -6 -2z" />
    <glyph glyph-name="Zdotaccent" unicode="&#x17b;" horiz-adv-x="458" 
d="M24 709l395 2q9 0 9 -9q0 -3 -1 -5l-406 -697l-11 18l438 2q14 0 14 -14q0 -6 -4 -10.5t-10 -4.5l-438 2q-13 0 -13 13q0 2 2 6l413 694l7 -13l-395 2q-7 0 -7 7t7 7zM229 806q-10 0 -10 10v54q0 10 10 10t10 -10v-54q0 -10 -10 -10z" />
    <glyph glyph-name="Dcroat" unicode="&#x110;" horiz-adv-x="474" 
d="M19 699l2 -702l-9 11l3 -1h2l5 -1q2 0 4.5 -0.5t4.5 -0.5q5 -1 9.5 -1t9.5 -1q9 -1 18.5 -1h19.5q39 0 75 6q19 3 37.5 7.5t35.5 11.5t34 16t32 20q30 22 52 52q24 32 37 65q8 17 12.5 35t8.5 37t5.5 37.5t2.5 37.5t0 39v18.5t-1 19.5q-2 19 -4 37.5t-7 37.5
q-8 38 -23 71q-15 34 -39 63q-25 28 -56 46q-16 10 -33 16t-35 11q-19 4 -37 6t-37 1h-19t-19 -2q-5 -1 -9 -1t-9 -2q-2 0 -4.5 -0.5t-4.5 -0.5q-2 -1 -5 -1l-2 -1h-2q-6 -2 -11 1.5t-7 8.5q-2 6 1.5 11t9.5 7h1l1 1h3q2 1 5 1q2 1 5 1t5 1q5 1 10 1.5t10 1.5q10 1 20 1.5
t20 0.5q40 0 81 -9t76 -30t63 -53q25 -32 42 -69q16 -36 25 -77q4 -20 6.5 -39t4.5 -39q0 -11 0.5 -20.5t0.5 -19.5v-40q-2 -20 -3.5 -39.5t-6.5 -39.5q-4 -20 -9 -39t-13 -38q-8 -18 -18 -35.5t-22 -34.5q-25 -31 -58 -56q-34 -25 -71 -38q-20 -8 -39 -12.5t-39 -8.5
q-39 -6 -79 -6q-10 0 -20 0.5t-20 1.5q-5 1 -10 1t-10 1q-2 1 -4.5 1t-5.5 1h-5l-2 1h-3q-9 2 -9 11h1l2 702q0 9 8 9q9 0 9 -9zM255 366h-310q-10 0 -10 10t10 10h310q10 0 10 -10t-10 -10z" />
    <glyph glyph-name="dcroat" unicode="&#x111;" horiz-adv-x="417" 
d="M367 0l4 351l2 176l1 44v22v5v2v-1v1v1v2q-1 4 -1 11q-2 11 -3.5 21.5t-3.5 20.5q-2 5 -3 10.5t-3 10.5q-2 6 -4 9q-2 4 -5 7q-5 5 0 10t10 0q4 -4 8 -10q2 -3 2.5 -6t2.5 -5q2 -5 3.5 -11t3.5 -11l4 -22l4 -22q0 -8 1 -11v-3v-1v-1v-2v-5v-22l1 -44l2 -176l3 -351
q1 -6 -3.5 -10.5t-10.5 -4.5t-10 4.5t-5 10.5zM300 492l-50 -1h-26h-12h-6h-2h-1h-3q-6 -1 -12 -1.5t-12 -2.5t-12 -3.5t-11 -3.5q-12 -4 -22.5 -9.5t-20.5 -12.5q-11 -7 -19.5 -15t-16.5 -17q-16 -19 -26 -41q-10 -19 -16 -45q-6 -24 -9 -48q-2 -13 -2 -25v-25q0 -24 3 -49
q2 -12 4.5 -24t6.5 -23q3 -11 8 -22l10 -22q11 -19 29 -37t38 -28q11 -5 22 -9.5t22 -6.5q6 -2 12 -2.5t11 -1.5q4 -1 12 -1h6h3h1h1h2h3l2 -1h5h11h10.5t10.5 1q22 2 41 6q21 4 39 12q19 7 35 20q13 7 21 -3q8 -12 -3 -21q-18 -12 -42 -22q-11 -5 -22 -8t-22 -5
q-23 -5 -46 -6h-22h-12q-2 0 -2.5 0.5t-2.5 0.5h-3h-2h-1h2h-2h-2h-3h-7q-4 1 -7 1t-7 1q-6 1 -12.5 1.5t-13.5 2.5q-13 4 -25.5 8.5t-24.5 11.5q-11 7 -22 14.5t-20 17.5q-19 19 -32 43q-7 12 -11.5 24t-8.5 25q-7 23 -10 51q-3 25 -3 51t3 52q3 28 10 51q4 12 8.5 24.5
t10.5 23.5q5 12 12.5 22.5t16.5 21.5q8 10 18 18.5t21 15.5q22 16 47 23q6 2 12 3.5t13 3.5q6 2 12.5 2.5t13.5 1.5h3h2h2h6h12h26l50 -1q6 0 6 -6t-6 -6zM504 562h-242q-10 0 -10 10t10 10h242q10 0 10 -10t-10 -10z" />
    <glyph glyph-name="aogonek" unicode="&#x105;" horiz-adv-x="379" 
d="M270 320q-25 -1 -49.5 -1.5t-48.5 -4.5q-22 -3 -47 -11q-24 -8 -42 -19q-5 -4 -9.5 -7t-9.5 -7q-2 -2 -4.5 -4t-4.5 -4l-2 -2l-2 -2q-1 -2 -2 -2.5t-2 -2.5q-8 -8 -13.5 -18t-10.5 -21q-17 -44 -6 -91q5 -25 16 -43q3 -5 6 -9.5t7 -8.5q2 -2 4 -4.5t4 -4.5l1 -1q1 0 1 -1
h1l1 -1q1 -2 2 -2.5t2 -1.5q17 -13 40 -21q20 -7 46 -10q22 -3 47 -3q25 2 47 6q26 5 45 13q10 4 20 10q10 7 16 14q10 9 21 0q10 -11 0 -21q-9 -9 -22 -17q-12 -8 -24 -12q-13 -5 -25.5 -8.5t-25.5 -5.5q-28 -5 -51 -5q-13 -1 -26 0t-26 3t-25.5 4.5t-24.5 7.5
q-25 9 -47 26q-3 2 -5 5l-2 1l-1 1l-1 1l-1 1q-3 3 -5 5.5t-4 4.5q-8 10 -15 23q-7 11 -11.5 23.5t-7.5 25.5q-9 55 10 104q10 23 28 44q2 2 2.5 3t2.5 2q1 1 1 1.5t1 1.5l3 2q6 6 9 8q11 10 22 15q22 13 47 21q23 7 50 10q26 3 50.5 3.5t49.5 0.5q7 0 7 -7t-7 -7zM24 461
q1 1 1.5 1t1.5 1l2 2q2 1 5 4q2 2 5 3.5t5 3.5q5 3 10.5 6t11.5 6q11 5 22.5 9t23.5 7q11 3 23.5 4.5t24.5 2.5t24 1t24 -2q25 -3 48 -12t43 -27t30 -40q6 -11 10 -23t7 -24q2 -12 3 -24.5t1 -24.5l1 -47l1 -95l1 -188q1 -6 -3.5 -10.5t-10.5 -4.5t-10 4.5t-5 10.5l2 188
l1 95l1 47q0 25 -4 45q-2 11 -5 21t-8 21q-5 10 -11.5 18.5t-14.5 16.5q-15 13 -36 23q-21 9 -43 12q-25 3 -45 2q-23 -1 -46 -6q-21 -4 -43 -14q-5 -2 -10 -5l-10 -6l-9 -6q-2 -1 -4 -3q-1 -1 -1.5 -1t-1.5 -1q0 -1 -0.5 -1t-0.5 -1h-1q-2 -2 -5 -1.5t-5 2.5q-4 4 0 10z
M339 -178q-32 0 -55 14q-27 16 -27 44q0 44 38 64q15 8 29 10v59q0 4 3 7t6 3q9 0 9 -10v-67q0 -3 -2 -6t-6 -3q-4 -1 -9 -2t-10.5 -3t-10.5 -4q-28 -15 -28 -48q0 -19 20 -29t43 -10q25 0 41 10t16 29q0 3 3 6t7 3t6.5 -3t2.5 -6q0 -29 -25 -45q-23 -13 -51 -13z" />
    <glyph glyph-name="Nacute" unicode="&#x143;" horiz-adv-x="433" 
d="M1 0l-2 702q0 11 10 11q6 0 10 -6l386 -701l-24 -6l5 702q0 7 7 7q8 0 8 -7l5 -702q0 -13 -13 -13q-8 0 -11 7l-382 703l20 5l-2 -702q0 -9 -9 -9q-8 0 -8 9zM90 770q-7 0 -10 7q-2 9 7 12l252 90q8 3 12 -6t-6 -13l-252 -90h-3z" />
    <glyph glyph-name="nacute" unicode="&#x144;" horiz-adv-x="489" 
d="M86 427q2 1 2.5 2t2.5 3q1 1 1.5 2t2.5 3l9 9q5 5 9.5 9t9.5 8q20 16 44 27q22 11 50 16q7 1 13.5 1.5t12.5 0.5h26q13 -1 26 -2.5t26 -4.5q26 -6 49 -19q11 -6 21.5 -14.5t19.5 -18.5q17 -20 28 -45q6 -12 10 -24.5t7 -25.5t4.5 -25.5t3.5 -25.5q0 -7 0.5 -13t0.5 -13
v-13v-13l1 -50l2 -202q1 -6 -3.5 -10.5t-10.5 -4.5t-10 4.5t-5 10.5l3 202l1 50v13v13q0 6 -0.5 12t-0.5 12q-1 25 -6 49q-3 12 -6 23.5t-8 22.5t-11 21.5t-14 19.5q-14 17 -36 31q-21 12 -44 18q-22 5 -49 7q-6 1 -12 1h-12q-7 0 -13 -0.5t-12 -1.5q-22 -3 -46 -14
q-11 -5 -21.5 -11t-20.5 -14q-11 -8 -19 -16l-4 -4l-4 -4l-5 -5q-1 -1 -3 -5q-4 -4 -9 -1q-4 4 -1 9zM32 0l3 255l1 64l1 32v16v8v4v1v1v2q1 8 0.5 15.5t-0.5 15.5q-1 8 -2 15t-3 15t-4.5 14.5t-5.5 12.5q-7 12 -19 20q-8 4 -3 11q4 8 11 3q9 -4 15 -11t11 -14q8 -13 13 -32
q4 -15 6 -32q1 -8 1 -16.5v-16.5v-3v-1v-4v-8v-16l1 -32l1 -64l2 -255q1 -6 -3.5 -10.5t-10.5 -4.5t-10 4.5t-5 10.5zM118 570q-7 0 -10 7q-2 9 7 12l252 90q8 3 12 -6t-6 -13l-252 -90h-3z" />
    <glyph glyph-name="ncaron" unicode="&#x148;" horiz-adv-x="489" 
d="M86 427q2 1 2.5 2t2.5 3q1 1 1.5 2t2.5 3l9 9q5 5 9.5 9t9.5 8q20 16 44 27q22 11 50 16q7 1 13.5 1.5t12.5 0.5h26q13 -1 26 -2.5t26 -4.5q26 -6 49 -19q11 -6 21.5 -14.5t19.5 -18.5q17 -20 28 -45q6 -12 10 -24.5t7 -25.5t4.5 -25.5t3.5 -25.5q0 -7 0.5 -13t0.5 -13
v-13v-13l1 -50l2 -202q1 -6 -3.5 -10.5t-10.5 -4.5t-10 4.5t-5 10.5l3 202l1 50v13v13q0 6 -0.5 12t-0.5 12q-1 25 -6 49q-3 12 -6 23.5t-8 22.5t-11 21.5t-14 19.5q-14 17 -36 31q-21 12 -44 18q-22 5 -49 7q-6 1 -12 1h-12q-7 0 -13 -0.5t-12 -1.5q-22 -3 -46 -14
q-11 -5 -21.5 -11t-20.5 -14q-11 -8 -19 -16l-4 -4l-4 -4l-5 -5q-1 -1 -3 -5q-4 -4 -9 -1q-4 4 -1 9zM32 0l3 255l1 64l1 32v16v8v4v1v1v2q1 8 0.5 15.5t-0.5 15.5q-1 8 -2 15t-3 15t-4.5 14.5t-5.5 12.5q-7 12 -19 20q-8 4 -3 11q4 8 11 3q9 -4 15 -11t11 -14q8 -13 13 -32
q4 -15 6 -32q1 -8 1 -16.5v-16.5v-3v-1v-4v-8v-16l1 -32l1 -64l2 -255q1 -6 -3.5 -10.5t-10.5 -4.5t-10 4.5t-5 10.5zM244 571q-2 0 -6 2l-132 96q-7 5 -2 14q5 7 14 2l126 -92l126 92q8 6 14 -2q5 -9 -2 -14l-132 -96q-4 -2 -6 -2z" />
    <glyph glyph-name="Ncaron" unicode="&#x147;" horiz-adv-x="433" 
d="M1 0l-2 702q0 11 10 11q6 0 10 -6l386 -701l-24 -6l5 702q0 7 7 7q8 0 8 -7l5 -702q0 -13 -13 -13q-8 0 -11 7l-382 703l20 5l-2 -702q0 -9 -9 -9q-8 0 -8 9zM216 771q-2 0 -6 2l-132 96q-7 5 -2 14q5 7 14 2l126 -92l126 92q8 6 14 -2q5 -9 -2 -14l-132 -96q-4 -2 -6 -2
z" />
    <glyph glyph-name="Ohungarumlaut" unicode="&#x150;" 
d="M253 -12q-52 0 -101 29q-23 14 -43 33.5t-38 44.5q-35 51 -54.5 117t-19.5 138t19.5 137.5t54.5 117.5q36 49 81 78q49 29 101 29t101 -29q46 -28 82 -78q35 -52 54 -117.5t19 -137.5t-19 -138t-54 -117q-18 -25 -38.5 -44.5t-43.5 -33.5q-49 -29 -101 -29zM253 692
q-49 0 -92 -27t-75 -73.5t-50.5 -109t-18.5 -132.5q0 -71 18.5 -133t50.5 -108.5t75 -73.5t92 -27t92 27t75 73.5t50.5 108.5t18.5 133q0 70 -18.5 132.5t-50.5 109t-75 73.5t-92 27zM29 770q-7 0 -10 7q-2 9 7 12l252 90q8 3 12 -6t-6 -13l-252 -90h-3zM248 770q-7 0 -10 7
q-2 9 7 12l252 90q8 3 12 -6t-6 -13l-252 -90h-3z" />
    <glyph glyph-name="ohungarumlaut" unicode="&#x151;" horiz-adv-x="489" 
d="M232 -10q-47 0 -89.5 19.5t-74.5 57.5q-33 37 -50.5 84t-17.5 99q0 53 17.5 100t50.5 84q32 38 74.5 57.5t89.5 19.5t89.5 -19.5t74.5 -57.5q33 -37 50.5 -84t17.5 -100q0 -52 -17.5 -99t-50.5 -84q-32 -38 -74.5 -57.5t-89.5 -19.5zM232 491q-44 0 -82.5 -19
t-67.5 -51.5t-45.5 -76.5t-16.5 -94t16.5 -93.5t45.5 -76t67.5 -51.5t82.5 -19t82.5 19t67.5 51.5t45.5 76t16.5 93.5t-16.5 94t-45.5 76.5t-67.5 51.5t-82.5 19zM10 570q-7 0 -10 7q-2 9 7 12l252 90q8 3 12 -6t-6 -13l-252 -90h-3zM229 570q-7 0 -10 7q-2 9 7 12l252 90
q8 3 12 -6t-6 -13l-252 -90h-3z" />
    <glyph glyph-name="lcaron" unicode="&#x13e;" horiz-adv-x="175" 
d="M26 0l4 351l2 176l1 44v22v5v2v-1v1v1v2q-1 4 -1 11q-2 11 -3.5 21.5t-3.5 20.5q-2 5 -3 10.5t-3 10.5q-2 6 -4 9q-2 4 -5 7q-5 5 0 10t10 0q4 -4 8 -10q2 -3 2.5 -6t2.5 -5q2 -5 3.5 -11t3.5 -11l4 -22l4 -22q0 -8 1 -11v-3v-1v-1v-2v-5v-22l1 -44l2 -176l3 -351
q1 -6 -3.5 -10.5t-10.5 -4.5t-10 4.5t-5 10.5zM108 448q-10 0 -10 10v174q0 10 10 10t10 -10v-174q0 -10 -10 -10z" />
    <glyph glyph-name="sacute" unicode="&#x15b;" horiz-adv-x="432" 
d="M382 375v2v1v2q0 4 -1 6q0 4 -2 10q-3 12 -8 20q-5 9 -12.5 17t-15.5 16q-17 14 -38 23q-21 10 -42 14q-43 10 -89 4l-22 -4t-22 -6q-23 -7 -40 -18q-21 -11 -34 -27q-15 -17 -21 -36q-2 -5 -3 -10t-1 -10v-11t1 -11q1 -9 5 -20q5 -12 10 -18q11 -15 33 -25
q9 -5 19.5 -8.5t21.5 -5.5t22.5 -3.5t22.5 -3.5t23 -3t23 -2q12 -2 23.5 -3t23.5 -3t23.5 -4.5t23.5 -6.5q24 -6 45 -20q10 -8 20 -17q5 -5 8.5 -10.5t6.5 -10.5q3 -6 5.5 -12t4.5 -12t3 -12.5t2 -12.5q1 -4 1 -12v-6v-2v-2v-1v-2q0 -7 -1 -13.5t-3 -12.5q-9 -25 -26 -44
q-9 -10 -18.5 -17.5t-20.5 -14.5q-25 -13 -45 -20q-12 -4 -24 -6.5t-24 -4.5q-6 -1 -12 -1t-12 -1h-12h-13q-12 1 -24 2.5t-24 4.5t-24 7t-23 9q-21 9 -42 26q-10 8 -18.5 18t-15.5 21q-5 10 -10 25q-2 6 -2.5 12.5t-1.5 13.5q0 6 4.5 10.5t10.5 4.5q14 0 14 -14v-1
q0 -17 10 -37q10 -17 27 -31q8 -8 17 -13t19 -10q21 -10 41 -14q45 -11 88 -5q22 2 43 9q11 3 20.5 7.5t19.5 9.5q9 6 17.5 12.5t15.5 14.5q15 15 21 35q2 5 2.5 9.5t1.5 9.5v1v1v1v1v1v6q-1 3 -1 10q-2 11 -4.5 21t-7.5 19q-5 10 -12 17q-5 6 -15 13q-18 12 -39 18
q-11 4 -22 6l-22 4t-22.5 3.5t-22.5 3.5q-12 1 -23.5 2t-23.5 3q-11 2 -23 4t-23 4q-12 3 -24 6.5t-23 9.5q-5 2 -10.5 5.5t-10.5 7.5t-9.5 9t-8.5 10t-7.5 11t-5.5 12q-5 12 -6 24q0 4 -0.5 7t-0.5 6v3v3v2v1v3q1 7 2 13.5t3 12.5q7 24 25 43q17 17 39 31q11 6 22 10.5
t22 8.5q12 4 24 6l24 4q11 2 23 2t24 -1q12 0 24 -2l24 -4q26 -7 45 -16q11 -5 21.5 -11.5t20.5 -14.5q19 -16 31 -38q3 -5 5.5 -11t4.5 -12q1 -3 1 -6t1 -6q0 -4 1 -7v-3v-1v-2q0 -8 -8 -8t-8 8zM90 570q-7 0 -10 7q-2 9 7 12l252 90q8 3 12 -6t-6 -13l-252 -90h-3z" />
    <glyph glyph-name="Rcaron" unicode="&#x158;" horiz-adv-x="407" 
d="M2 0l-2 702q0 8 8 10l3 1l4 1l6 1q3 1 6 1t7 1q6 1 12.5 1.5t12.5 1.5q13 2 25.5 2.5t26.5 1.5h25.5t25.5 -2q29 -2 52 -7q13 -3 25.5 -7t24.5 -9q24 -11 45 -27q22 -19 36 -41q14 -23 20 -49t6 -52q0 -13 -1 -26t-3 -26t-6.5 -25.5t-9.5 -24.5q-13 -25 -30 -44
q-19 -19 -43 -31t-49 -18q-25 -4 -52 -6h-26q-8 0 -13 1q-4 0 -6 1h-3h-4l7 11l276 -335q9 -10 -2 -21q-5 -4 -11 -3.5t-10 5.5v1l-264 345q-4 6 1 9q4 2 5 1h3h3q2 -1 7 -1q8 0 12 -1h12t13 1q12 0 24.5 2t23.5 4q24 6 46 17q24 13 39 29q8 8 15 18t12 21t8 23t5 24t3 24
t1 25q0 24 -6 48q-6 26 -19 44q-12 19 -31 35q-18 14 -42 25q-11 5 -22.5 8t-23.5 6q-24 4 -49 6q-13 1 -25 1.5t-25 -0.5q-12 0 -24.5 -1t-24.5 -3q-7 -1 -13 -1.5t-12 -1.5q-8 -2 -12 -2l-6 -1l-3 -1l-3 -1l8 11l-2 -702q0 -9 -9 -9q-8 0 -8 9zM203 771q-2 0 -6 2l-132 96
q-7 5 -2 14q5 7 14 2l126 -92l126 92q8 6 14 -2q5 -9 -2 -14l-132 -96q-4 -2 -6 -2z" />
    <glyph glyph-name="rcaron" unicode="&#x159;" horiz-adv-x="257" 
d="M49 376q0 3 1 5v4q1 2 1 4t1 4q1 5 2 8.5t3 7.5q6 15 17 30q10 15 23 25q6 6 12.5 10.5t14.5 9.5q29 16 64 24q16 3 32.5 5t33.5 2v1q6 0 10.5 -4.5t4.5 -10.5q0 -13 -14 -15h-1q-32 2 -62 -3q-15 -2 -29.5 -6t-28.5 -11t-26 -16t-22 -21t-16 -25q-2 -4 -3 -7t-3 -7
q0 -2 -2 -8q0 -2 -1 -3v-4q-2 -5 -7 -5q-5 2 -5 6zM38 0l3 255l1 64l1 32v16v8v4v1v1v2q1 8 0.5 15.5t-0.5 15.5q-1 8 -2 15t-3 15t-4.5 14.5t-5.5 12.5q-7 12 -19 20q-8 4 -3 11q4 8 11 3q9 -4 15 -11t11 -14q8 -13 13 -32q4 -15 6 -32q1 -8 1 -16.5v-16.5v-3v-1v-4v-8v-16
l1 -32l1 -64l2 -255q1 -6 -3.5 -10.5t-10.5 -4.5t-10 4.5t-5 10.5zM130 571q-2 0 -6 2l-132 96q-7 5 -2 14q5 7 14 2l126 -92l126 92q8 6 14 -2q5 -9 -2 -14l-132 -96q-4 -2 -6 -2z" />
    <glyph glyph-name="uring" unicode="&#x16f;" horiz-adv-x="470" 
d="M390 64l-3 -3q0 -1 -2 -3q-1 -2 -2 -2.5t-2 -2.5q-2 -2 -5 -4.5t-5 -4.5q-5 -5 -10 -9t-10 -9q-20 -16 -46 -27q-12 -6 -25 -10t-27 -6q-7 -1 -13.5 -1.5t-13.5 -0.5h-6h-7q-3 0 -6 0.5t-7 0.5q-13 1 -26 2.5t-26 4.5q-14 4 -26 8.5t-24 12.5q-12 7 -22.5 15.5
t-19.5 18.5q-18 23 -28 46q-5 12 -9 24.5t-7 25.5t-4.5 26t-2.5 26q-1 6 -1 12.5v13.5v12v13v51l2 202q0 8 8 8t8 -8l2 -202v-51v-13v-12q1 -6 1 -12t1 -13q1 -12 2.5 -24t4.5 -24q6 -23 15 -46q5 -11 11.5 -21t14.5 -18q15 -18 36 -30q10 -6 21 -10t23 -7q22 -4 47 -6h13h6
h6q6 0 12 0.5t11 1.5q23 3 45 14q21 9 40 25q5 3 9.5 7t8.5 8l9 9q1 1 1.5 2t1.5 2l2 2l2 2q3 5 8.5 6t10.5 -3q10 -8 3 -19zM432 495l3 -255v-64l1 -32v-16v-8v-4v-1v-2v-1v-15t1 -15q1 -15 6 -30q4 -16 10 -25q2 -4 8 -10q2 -4 9 -7q12 -7 6 -20q-2 -5 -8 -7t-12 1
q-11 5 -16 12q-8 8 -12 16q-8 15 -13 33q-2 9 -3 17.5t-2 16.5t-1 16.5v17.5l1 2v1v-1v1v4v8v16v32l1 64l3 255q0 9 9 9t9 -9zM235 553q-35 0 -60 25t-25 60t25 60t60 25t60 -25t25 -60t-25 -60t-60 -25zM235 703q-27 0 -46 -19t-19 -46t19 -46t46 -19t46 19t19 46t-19 46
t-46 19z" />
    <glyph glyph-name="Uring" unicode="&#x16e;" 
d="M22 708v-417v-13v-7v-3v-3q0 -6 0.5 -12.5t1.5 -12.5q1 -13 3.5 -25t5.5 -24q15 -50 45 -90q16 -20 34.5 -36.5t41.5 -27.5q20 -12 46 -18q22 -7 49 -7q13 0 25 1t24 4q23 6 47 17q44 22 77 63q32 39 47 88q7 22 10 49q2 6 2 12.5t1 12.5v13v13v417q0 10 10 10t10 -10
v-417v-13v-14q-1 -7 -1.5 -13t-1.5 -13q-3 -25 -11 -53q-8 -26 -21 -50t-30 -45q-34 -44 -83 -68q-24 -12 -51 -18t-54 -6q-14 0 -27.5 2t-26.5 5q-25 7 -51 20q-24 13 -44.5 31t-37.5 39q-33 43 -48 96q-4 13 -6 26t-4 27q-1 7 -1.5 13.5t-0.5 13.5v3v3v7v13v417
q0 10 10 10t10 -10zM265 753q-35 0 -60 25t-25 60t25 60t60 25t60 -25t25 -60t-25 -60t-60 -25zM265 903q-27 0 -46 -19t-19 -46t19 -46t46 -19t46 19t19 46t-19 46t-46 19z" />
    <glyph glyph-name="Uhungarumlaut" unicode="&#x170;" 
d="M22 708v-417v-13v-7v-3v-3q0 -6 0.5 -12.5t1.5 -12.5q1 -13 3.5 -25t5.5 -24q15 -50 45 -90q16 -20 34.5 -36.5t41.5 -27.5q20 -12 46 -18q22 -7 49 -7q13 0 25 1t24 4q23 6 47 17q44 22 77 63q32 39 47 88q7 22 10 49q2 6 2 12.5t1 12.5v13v13v417q0 10 10 10t10 -10
v-417v-13v-14q-1 -7 -1.5 -13t-1.5 -13q-3 -25 -11 -53q-8 -26 -21 -50t-30 -45q-34 -44 -83 -68q-24 -12 -51 -18t-54 -6q-14 0 -27.5 2t-26.5 5q-25 7 -51 20q-24 13 -44.5 31t-37.5 39q-33 43 -48 96q-4 13 -6 26t-4 27q-1 7 -1.5 13.5t-0.5 13.5v3v3v7v13v417
q0 10 10 10t10 -10zM29 770q-7 0 -10 7q-2 9 7 12l252 90q8 3 12 -6t-6 -13l-252 -90h-3zM248 770q-7 0 -10 7q-2 9 7 12l252 90q8 3 12 -6t-6 -13l-252 -90h-3z" />
    <glyph glyph-name="uhungarumlaut" unicode="&#x171;" horiz-adv-x="470" 
d="M390 64l-3 -3q0 -1 -2 -3q-1 -2 -2 -2.5t-2 -2.5q-2 -2 -5 -4.5t-5 -4.5q-5 -5 -10 -9t-10 -9q-20 -16 -46 -27q-12 -6 -25 -10t-27 -6q-7 -1 -13.5 -1.5t-13.5 -0.5h-6h-7q-3 0 -6 0.5t-7 0.5q-13 1 -26 2.5t-26 4.5q-14 4 -26 8.5t-24 12.5q-12 7 -22.5 15.5
t-19.5 18.5q-18 23 -28 46q-5 12 -9 24.5t-7 25.5t-4.5 26t-2.5 26q-1 6 -1 12.5v13.5v12v13v51l2 202q0 8 8 8t8 -8l2 -202v-51v-13v-12q1 -6 1 -12t1 -13q1 -12 2.5 -24t4.5 -24q6 -23 15 -46q5 -11 11.5 -21t14.5 -18q15 -18 36 -30q10 -6 21 -10t23 -7q22 -4 47 -6h13h6
h6q6 0 12 0.5t11 1.5q23 3 45 14q21 9 40 25q5 3 9.5 7t8.5 8l9 9q1 1 1.5 2t1.5 2l2 2l2 2q3 5 8.5 6t10.5 -3q10 -8 3 -19zM432 495l3 -255v-64l1 -32v-16v-8v-4v-1v-2v-1v-15t1 -15q1 -15 6 -30q4 -16 10 -25q2 -4 8 -10q2 -4 9 -7q12 -7 6 -20q-2 -5 -8 -7t-12 1
q-11 5 -16 12q-8 8 -12 16q-8 15 -13 33q-2 9 -3 17.5t-2 16.5t-1 16.5v17.5l1 2v1v-1v1v4v8v16v32l1 64l3 255q0 9 9 9t9 -9zM1 570q-7 0 -10 7q-2 9 7 12l252 90q8 3 12 -6t-6 -13l-252 -90h-3zM220 570q-7 0 -10 7q-2 9 7 12l252 90q8 3 12 -6t-6 -13l-252 -90h-3z" />
    <glyph glyph-name="tcommaaccent" unicode="&#x163;" horiz-adv-x="138" 
d="M40 702l3 -380l1 -95v-48l1 -24v-12v-2v-2v-1v-1v-5q0 -11 1 -22.5t4 -22.5q2 -11 5.5 -21t8.5 -20q12 -20 28 -28q16 -10 38 -10q6 1 10.5 -3.5t4.5 -10.5t-4.5 -10t-10.5 -5q-7 1 -13.5 1.5t-13.5 2.5t-13.5 4.5t-12.5 5.5q-12 7 -21 18q-8 10 -16 22q-11 23 -16 49
q-2 6 -2.5 12t-1.5 13q-1 6 -1 12v13v6v1v-1v1v2v2v12l1 24v48l1 95l3 380q0 8 8 8t8 -8zM119 484h-78q-10 0 -10 10t10 10h78q10 0 10 -10t-10 -10zM80 -261q-10 0 -10 10v174q0 10 10 10t10 -10v-174q0 -10 -10 -10z" />
    <glyph glyph-name="tcommaaccent" unicode="&#x21b;" horiz-adv-x="138" 
d="M40 702l3 -380l1 -95v-48l1 -24v-12v-2v-2v-1v-1v-5q0 -11 1 -22.5t4 -22.5q2 -11 5.5 -21t8.5 -20q12 -20 28 -28q16 -10 38 -10q6 1 10.5 -3.5t4.5 -10.5t-4.5 -10t-10.5 -5q-7 1 -13.5 1.5t-13.5 2.5t-13.5 4.5t-12.5 5.5q-12 7 -21 18q-8 10 -16 22q-11 23 -16 49
q-2 6 -2.5 12t-1.5 13q-1 6 -1 12v13v6v1v-1v1v2v2v12l1 24v48l1 95l3 380q0 8 8 8t8 -8zM119 484h-78q-10 0 -10 10t10 10h78q10 0 10 -10t-10 -10zM80 -261q-10 0 -10 10v174q0 10 10 10t10 -10v-174q0 -10 -10 -10z" />
    <glyph glyph-name="Tcommaaccent" unicode="&#x162;" horiz-adv-x="371" 
d="M194 702l5 -702q0 -6 -4 -10.5t-10 -4.5t-10.5 4.5t-4.5 10.5l6 702q0 9 9 9t9 -9zM367 692h-380q-10 0 -10 10t10 10h380q10 0 10 -10t-10 -10zM190 -261q-10 0 -10 10v174q0 10 10 10t10 -10v-174q0 -10 -10 -10z" />
    <glyph glyph-name="Tcommaaccent" unicode="&#x21a;" horiz-adv-x="371" 
d="M194 702l5 -702q0 -6 -4 -10.5t-10 -4.5t-10.5 4.5t-4.5 10.5l6 702q0 9 9 9t9 -9zM367 692h-380q-10 0 -10 10t10 10h380q10 0 10 -10t-10 -10zM190 -261q-10 0 -10 10v174q0 10 10 10t10 -10v-174q0 -10 -10 -10z" />
    <glyph glyph-name="zdotaccent" unicode="&#x17c;" horiz-adv-x="393" 
d="M20 509l334 2q9 0 9 -9q0 -4 -1 -5h-1l-343 -506l-10 20l370 1q6 1 10.5 -3.5t4.5 -10.5t-4.5 -10t-10.5 -5l-370 2q-13 2 -13 13q0 4 3 7l348 502l8 -14l-334 2q-7 0 -7 7t7 7zM196 606q-10 0 -10 10v54q0 10 10 10t10 -10v-54q0 -10 -10 -10z" />
    <glyph glyph-name="zacute" unicode="&#x17a;" horiz-adv-x="393" 
d="M20 509l334 2q9 0 9 -9q0 -4 -1 -5h-1l-343 -506l-10 20l370 1q6 1 10.5 -3.5t4.5 -10.5t-4.5 -10t-10.5 -5l-370 2q-13 2 -13 13q0 4 3 7l348 502l8 -14l-334 2q-7 0 -7 7t7 7zM70 570q-7 0 -10 7q-2 9 7 12l252 90q8 3 12 -6t-6 -13l-252 -90h-3z" />
    <glyph glyph-name="tcaron" unicode="&#x165;" horiz-adv-x="219" 
d="M40 702l3 -380l1 -95v-48l1 -24v-12v-2v-2v-1v-1v-5q0 -11 1 -22.5t4 -22.5q2 -11 5.5 -21t8.5 -20q12 -20 28 -28q16 -10 38 -10q6 1 10.5 -3.5t4.5 -10.5t-4.5 -10t-10.5 -5q-7 1 -13.5 1.5t-13.5 2.5t-13.5 4.5t-12.5 5.5q-12 7 -21 18q-8 10 -16 22q-11 23 -16 49
q-2 6 -2.5 12t-1.5 13q-1 6 -1 12v13v6v1v-1v1v2v2v12l1 24v48l1 95l3 380q0 8 8 8t8 -8zM119 484h-78q-10 0 -10 10t10 10h78q10 0 10 -10t-10 -10zM169 448q-10 0 -10 10v174q0 10 10 10t10 -10v-174q0 -10 -10 -10z" />
    <glyph glyph-name="scommaaccent" unicode="&#x219;" horiz-adv-x="432" 
d="M382 375v2v1v2q0 4 -1 6q0 4 -2 10q-3 12 -8 20q-5 9 -12.5 17t-15.5 16q-17 14 -38 23q-21 10 -42 14q-43 10 -89 4l-22 -4t-22 -6q-23 -7 -40 -18q-21 -11 -34 -27q-15 -17 -21 -36q-2 -5 -3 -10t-1 -10v-11t1 -11q1 -9 5 -20q5 -12 10 -18q11 -15 33 -25
q9 -5 19.5 -8.5t21.5 -5.5t22.5 -3.5t22.5 -3.5t23 -3t23 -2q12 -2 23.5 -3t23.5 -3t23.5 -4.5t23.5 -6.5q24 -6 45 -20q10 -8 20 -17q5 -5 8.5 -10.5t6.5 -10.5q3 -6 5.5 -12t4.5 -12t3 -12.5t2 -12.5q1 -4 1 -12v-6v-2v-2v-1v-2q0 -7 -1 -13.5t-3 -12.5q-9 -25 -26 -44
q-9 -10 -18.5 -17.5t-20.5 -14.5q-25 -13 -45 -20q-12 -4 -24 -6.5t-24 -4.5q-6 -1 -12 -1t-12 -1h-12h-13q-12 1 -24 2.5t-24 4.5t-24 7t-23 9q-21 9 -42 26q-10 8 -18.5 18t-15.5 21q-5 10 -10 25q-2 6 -2.5 12.5t-1.5 13.5q0 6 4.5 10.5t10.5 4.5q14 0 14 -14v-1
q0 -17 10 -37q10 -17 27 -31q8 -8 17 -13t19 -10q21 -10 41 -14q45 -11 88 -5q22 2 43 9q11 3 20.5 7.5t19.5 9.5q9 6 17.5 12.5t15.5 14.5q15 15 21 35q2 5 2.5 9.5t1.5 9.5v1v1v1v1v1v6q-1 3 -1 10q-2 11 -4.5 21t-7.5 19q-5 10 -12 17q-5 6 -15 13q-18 12 -39 18
q-11 4 -22 6l-22 4t-22.5 3.5t-22.5 3.5q-12 1 -23.5 2t-23.5 3q-11 2 -23 4t-23 4q-12 3 -24 6.5t-23 9.5q-5 2 -10.5 5.5t-10.5 7.5t-9.5 9t-8.5 10t-7.5 11t-5.5 12q-5 12 -6 24q0 4 -0.5 7t-0.5 6v3v3v2v1v3q1 7 2 13.5t3 12.5q7 24 25 43q17 17 39 31q11 6 22 10.5
t22 8.5q12 4 24 6l24 4q11 2 23 2t24 -1q12 0 24 -2l24 -4q26 -7 45 -16q11 -5 21.5 -11.5t20.5 -14.5q19 -16 31 -38q3 -5 5.5 -11t4.5 -12q1 -3 1 -6t1 -6q0 -4 1 -7v-3v-1v-2q0 -8 -8 -8t-8 8zM219 -261q-10 0 -10 10v174q0 10 10 10t10 -10v-174q0 -10 -10 -10z" />
    <glyph glyph-name="Hbar" unicode="&#x126;" horiz-adv-x="371" 
d="M373 475q5 0 9 -3t4 -8t-4 -8.5t-9 -3.5h-402q-5 0 -8.5 3.5t-3.5 8.5q0 11 12 11h402zM345 702l6 -702q0 -6 -4.5 -10.5t-10.5 -4.5t-10 4.5t-4 10.5l6 702q0 9 8 9q9 0 9 -9zM24 702l6 -702q0 -6 -4.5 -10.5t-10.5 -4.5t-10 4.5t-4 10.5l6 702q0 9 8 9q9 0 9 -9z
M279 356h-259q-10 0 -10 10t10 10h259q10 0 10 -10t-10 -10z" />
    <glyph glyph-name="Hcircumflex" unicode="&#x124;" horiz-adv-x="371" 
d="M345 702l6 -702q0 -6 -4.5 -10.5t-10.5 -4.5t-10 4.5t-4 10.5l6 702q0 9 8 9q9 0 9 -9zM24 702l6 -702q0 -6 -4.5 -10.5t-10.5 -4.5t-10 4.5t-4 10.5l6 702q0 9 8 9q9 0 9 -9zM279 356h-259q-10 0 -10 10t10 10h259q10 0 10 -10t-10 -10zM185 887q2 0 6 -2l132 -96
q7 -5 2 -14q-5 -7 -14 -2l-126 92l-126 -92q-8 -6 -14 2q-5 9 2 14l132 96q4 2 6 2z" />
    <glyph glyph-name="Ccircumflex" unicode="&#x108;" horiz-adv-x="536" 
d="M497 83q-32 -36 -72 -60q-40 -25 -88 -33q-46 -9 -94 2q-45 10 -86 37q-20 13 -37.5 29t-32.5 34q-30 37 -49 80q-40 87 -38 182q0 49 10 93q9 47 30 89q20 44 51 79q29 37 71 63q40 25 89 36q12 2 24 3t24 1t24 -1t24 -3q49 -11 89 -36q20 -13 38 -29t34 -34
q4 -5 3.5 -11t-5.5 -10q-11 -9 -20 2q-27 33 -65 58q-36 24 -79 33q-11 2 -21.5 3t-21.5 2q-11 0 -21.5 -1t-21.5 -3q-42 -7 -81 -32q-38 -24 -66 -56q-28 -34 -48 -74q-20 -42 -29 -84q-5 -22 -7.5 -44t-3.5 -44q0 -23 1.5 -45t6.5 -44q9 -45 27 -85q9 -20 20.5 -39.5
t25.5 -36.5t30 -32t35 -28q18 -12 38 -21t42 -14q44 -11 88 -3q22 3 42.5 11t39.5 19q38 22 69 56q5 5 10 1q5 -5 1 -10zM268 887q2 0 6 -2l132 -96q7 -5 2 -14q-5 -7 -14 -2l-126 92l-126 -92q-8 -6 -14 2q-5 9 2 14l132 96q4 2 6 2z" />
    <glyph glyph-name="ccircumflex" unicode="&#x109;" horiz-adv-x="428" 
d="M384 59q-12 -13 -25.5 -24t-28.5 -19q-33 -17 -66 -23q-18 -3 -35 -3t-35 3q-17 3 -33.5 9.5t-32.5 14.5q-29 17 -54 44q-23 24 -40 57q-17 32 -24.5 66t-7.5 69t8 69t25 66q18 32 41 57q24 26 56 44q33 17 68 23q16 3 35 3q10 0 18.5 -1t17.5 -3q35 -6 67 -25
q16 -9 30 -20.5t26 -24.5q9 -11 -1 -21q-11 -9 -21 1q-22 25 -48 41q-29 16 -58 22q-8 2 -15.5 3t-15.5 1h-15.5t-15.5 -2q-30 -4 -60 -20q-27 -15 -50 -38q-22 -22 -38 -51q-32 -58 -32 -124q-2 -33 6 -65t22 -61q14 -30 36 -53q21 -24 49 -41q30 -17 60 -23q8 -2 16 -2.5
t16 -1.5q17 0 32 3q31 4 61 20q14 8 27.5 18t24.5 22q4 6 10 0q5 -5 0 -10zM214 687q2 0 6 -2l132 -96q7 -5 2 -14q-5 -7 -14 -2l-126 92l-126 -92q-8 -6 -14 2q-5 9 2 14l132 96q4 2 6 2z" />
    <glyph glyph-name="cdotaccent" unicode="&#x10b;" horiz-adv-x="428" 
d="M384 59q-12 -13 -25.5 -24t-28.5 -19q-33 -17 -66 -23q-18 -3 -35 -3t-35 3q-17 3 -33.5 9.5t-32.5 14.5q-29 17 -54 44q-23 24 -40 57q-17 32 -24.5 66t-7.5 69t8 69t25 66q18 32 41 57q24 26 56 44q33 17 68 23q16 3 35 3q10 0 18.5 -1t17.5 -3q35 -6 67 -25
q16 -9 30 -20.5t26 -24.5q9 -11 -1 -21q-11 -9 -21 1q-22 25 -48 41q-29 16 -58 22q-8 2 -15.5 3t-15.5 1h-15.5t-15.5 -2q-30 -4 -60 -20q-27 -15 -50 -38q-22 -22 -38 -51q-32 -58 -32 -124q-2 -33 6 -65t22 -61q14 -30 36 -53q21 -24 49 -41q30 -17 60 -23q8 -2 16 -2.5
t16 -1.5q17 0 32 3q31 4 61 20q14 8 27.5 18t24.5 22q4 6 10 0q5 -5 0 -10zM214 606q-10 0 -10 10v54q0 10 10 10t10 -10v-54q0 -10 -10 -10z" />
    <glyph glyph-name="Cdotaccent" unicode="&#x10a;" horiz-adv-x="536" 
d="M497 83q-32 -36 -72 -60q-40 -25 -88 -33q-46 -9 -94 2q-45 10 -86 37q-20 13 -37.5 29t-32.5 34q-30 37 -49 80q-40 87 -38 182q0 49 10 93q9 47 30 89q20 44 51 79q29 37 71 63q40 25 89 36q12 2 24 3t24 1t24 -1t24 -3q49 -11 89 -36q20 -13 38 -29t34 -34
q4 -5 3.5 -11t-5.5 -10q-11 -9 -20 2q-27 33 -65 58q-36 24 -79 33q-11 2 -21.5 3t-21.5 2q-11 0 -21.5 -1t-21.5 -3q-42 -7 -81 -32q-38 -24 -66 -56q-28 -34 -48 -74q-20 -42 -29 -84q-5 -22 -7.5 -44t-3.5 -44q0 -23 1.5 -45t6.5 -44q9 -45 27 -85q9 -20 20.5 -39.5
t25.5 -36.5t30 -32t35 -28q18 -12 38 -21t42 -14q44 -11 88 -3q22 3 42.5 11t39.5 19q38 22 69 56q5 5 10 1q5 -5 1 -10zM268 806q-10 0 -10 10v54q0 10 10 10t10 -10v-54q0 -10 -10 -10z" />
    <glyph glyph-name="Idotaccent" unicode="&#x130;" horiz-adv-x="82" 
d="M37 702l6 -702q0 -6 -4.5 -10.5t-10.5 -4.5t-10 4.5t-4 10.5l6 702q0 9 8 9q9 0 9 -9zM42 806q-10 0 -10 10v54q0 10 10 10t10 -10v-54q0 -10 -10 -10z" />
    <glyph glyph-name="Gbreve" unicode="&#x11e;" 
d="M490 601q-29 35 -67 58q-19 12 -39.5 20.5t-42.5 12.5q-43 9 -87 1q-45 -9 -82 -33q-19 -12 -35.5 -26.5t-31.5 -31.5q-30 -36 -47 -75q-10 -20 -17 -41t-12 -44q-10 -41 -10 -88q0 -46 9 -89q9 -45 27 -85q10 -20 21.5 -39t25.5 -36t30 -32t35 -27q38 -25 79 -34
q41 -10 87 -2q21 3 41.5 11t39.5 19q37 22 66 56l-3 -8l-1 263l14 -14l-166 -1q-6 0 -10 4.5t-4 10.5q0 14 14 14h166q6 0 10 -4.5t4 -9.5l-1 -263v-1q0 -5 -3 -8q-30 -34 -74 -61q-41 -24 -89 -32q-24 -5 -48.5 -3.5t-47.5 6.5q-48 11 -87 38q-41 28 -69 64q-29 36 -49 81
q-20 43 -29 89t-8 93q0 44 11 93q5 23 12.5 45t18.5 43q19 42 51 78q30 36 71 62q43 25 87 34q23 5 47 4.5t47 -5.5t45 -14t42 -22q39 -24 70 -62q4 -6 -1 -10q-6 -6 -10 1zM293 765q-23 0 -42.5 8.5t-34.5 23.5t-23.5 34.5t-8.5 42.5q0 10 10 10t10 -10q0 -37 26 -63
t63 -26t63 26t26 63q0 10 10 10t10 -10q0 -23 -8.5 -42.5t-23.5 -34.5t-35 -23.5t-42 -8.5z" />
    <glyph glyph-name="Jcircumflex" unicode="&#x134;" horiz-adv-x="371" 
d="M17 708h324q9 0 9 -9l-1 -276v-276v1v-1v-1v-3q0 -2 1 -4v-9q-1 -4 -1 -8t-1 -9q-2 -18 -7 -34q-4 -14 -14 -31q-9 -15 -22 -28q-14 -13 -29 -20q-13 -8 -32 -13q-9 -2 -17.5 -3.5t-16.5 -3.5q-9 -1 -17.5 -1h-16.5q-35 0 -68 12q-17 6 -31 16q-14 8 -27 23t-21 29
q-4 8 -7.5 16t-5.5 16q-3 8 -4.5 16.5t-3.5 17.5q-1 4 -1 8t-1 9v9v4v2v2v1q0 6 4.5 10t10.5 4q14 -2 14 -15v-1v-1v-1v-1v-4v-8q0 -10 1 -15q2 -16 6 -29q8 -30 27 -52q5 -6 10.5 -10.5t11.5 -9.5q6 -4 12.5 -7.5t13.5 -5.5q30 -11 59 -11q32 -2 61 6q8 2 15 4.5t13 6.5
q13 6 24 17q6 5 10.5 10.5t8.5 11.5q4 7 7 13.5t6 13.5q4 15 6 30q1 5 1 15v8v3v2v2v1l2 276l3 276l8 -9h-324q-8 0 -8 9t8 9zM185 887q2 0 6 -2l132 -96q7 -5 2 -14q-5 -7 -14 -2l-126 92l-126 -92q-8 -6 -14 2q-5 9 2 14l132 96q4 2 6 2z" />
    <glyph glyph-name="hbar" unicode="&#x127;" horiz-adv-x="433" 
d="M1 0l4 351l2 176l1 44v22v5v2v1v1v3q1 3 1 11l4 22l4 22q2 5 3.5 11t3.5 11q2 2 2.5 5t2.5 6q4 6 8 10q5 5 10 0t0 -10q-3 -3 -5 -7q-2 -3 -4 -9q-2 -5 -3 -10.5t-3 -10.5q-2 -10 -3.5 -20.5t-3.5 -21.5q0 -7 -1 -11v-2v-1v-1v1v-2v-5v-22l1 -44l2 -176l3 -351
q1 -6 -3.5 -10.5t-10.5 -4.5t-10 4.5t-5 10.5zM69 507l92 1h23h12q3 -1 6 -1t6 -1q26 -3 46 -10q11 -4 22 -9l22 -10q20 -11 39 -29q16 -15 31 -36q13 -20 22 -43q7 -21 12 -46q2 -12 3.5 -24t1.5 -24v-11v-12l1 -23v-46l2 -184q1 -6 -3.5 -10.5t-10.5 -4.5t-10 4.5t-5 10.5
l3 184v46l1 23v12v11q-1 23 -4 44.5t-10 42.5q-4 11 -9 20.5t-10 18.5q-12 19 -28 34q-16 16 -35 27t-40 19q-11 4 -21.5 6.5t-21.5 4.5q-3 0 -5.5 0.5t-5.5 0.5t-6 0.5t-5 0.5h-23l-92 1q-6 0 -6 6t6 6zM299 586h-310q-10 0 -10 10t10 10h310q10 0 10 -10t-10 -10z" />
    <glyph glyph-name="hcircumflex" unicode="&#x125;" horiz-adv-x="433" 
d="M1 0l4 351l2 176l1 44v22v5v2v1v1v3q1 3 1 11l4 22l4 22q2 5 3.5 11t3.5 11q2 2 2.5 5t2.5 6q4 6 8 10q5 5 10 0t0 -10q-3 -3 -5 -7q-2 -3 -4 -9q-2 -5 -3 -10.5t-3 -10.5q-2 -10 -3.5 -20.5t-3.5 -21.5q0 -7 -1 -11v-2v-1v-1v1v-2v-5v-22l1 -44l2 -176l3 -351
q1 -6 -3.5 -10.5t-10.5 -4.5t-10 4.5t-5 10.5zM69 507l92 1h23h12q3 -1 6 -1t6 -1q26 -3 46 -10q11 -4 22 -9l22 -10q20 -11 39 -29q16 -15 31 -36q13 -20 22 -43q7 -21 12 -46q2 -12 3.5 -24t1.5 -24v-11v-12l1 -23v-46l2 -184q1 -6 -3.5 -10.5t-10.5 -4.5t-10 4.5t-5 10.5
l3 184v46l1 23v12v11q-1 23 -4 44.5t-10 42.5q-4 11 -9 20.5t-10 18.5q-12 19 -28 34q-16 16 -35 27t-40 19q-11 4 -21.5 6.5t-21.5 4.5q-3 0 -5.5 0.5t-5.5 0.5t-6 0.5t-5 0.5h-23l-92 1q-6 0 -6 6t6 6zM198 856q2 0 6 -2l132 -96q7 -5 2 -14q-5 -7 -14 -2l-126 92
l-126 -92q-8 -6 -14 2q-5 9 2 14l132 96q4 2 6 2z" />
    <glyph glyph-name="Gdotaccent" unicode="&#x120;" 
d="M490 601q-29 35 -67 58q-19 12 -39.5 20.5t-42.5 12.5q-43 9 -87 1q-45 -9 -82 -33q-19 -12 -35.5 -26.5t-31.5 -31.5q-30 -36 -47 -75q-10 -20 -17 -41t-12 -44q-10 -41 -10 -88q0 -46 9 -89q9 -45 27 -85q10 -20 21.5 -39t25.5 -36t30 -32t35 -27q38 -25 79 -34
q41 -10 87 -2q21 3 41.5 11t39.5 19q37 22 66 56l-3 -8l-1 263l14 -14l-166 -1q-6 0 -10 4.5t-4 10.5q0 14 14 14h166q6 0 10 -4.5t4 -9.5l-1 -263v-1q0 -5 -3 -8q-30 -34 -74 -61q-41 -24 -89 -32q-24 -5 -48.5 -3.5t-47.5 6.5q-48 11 -87 38q-41 28 -69 64q-29 36 -49 81
q-20 43 -29 89t-8 93q0 44 11 93q5 23 12.5 45t18.5 43q19 42 51 78q30 36 71 62q43 25 87 34q23 5 47 4.5t47 -5.5t45 -14t42 -22q39 -24 70 -62q4 -6 -1 -10q-6 -6 -10 1zM265 806q-10 0 -10 10v54q0 10 10 10t10 -10v-54q0 -10 -10 -10z" />
    <glyph glyph-name="gdotaccent" unicode="&#x121;" horiz-adv-x="476" 
d="M340 454q-28 19 -56 28q-29 10 -62 10q-17 0 -32.5 -2.5t-30.5 -7.5q-32 -11 -55 -30q-13 -10 -24 -21t-19 -25q-9 -13 -15 -27.5t-10 -29.5q-8 -30 -3 -62q3 -32 18 -60q16 -28 38 -49q23 -21 52 -35q27 -11 60 -16q16 -2 31.5 -0.5t31.5 4.5q31 6 57 23q28 17 48 40
q21 26 31 53q10 29 10 61v-1v6v7q-1 4 -1 12v25q0 13 0.5 25.5t1.5 25.5q3 23 9 50q2 7 4 13t5 13q3 6 7 12.5t10 11.5q4 5 10 5t10 -5q11 -9 0 -20q-6 -6 -11 -16q-2 -5 -3.5 -10.5t-3.5 -10.5q-6 -23 -9 -46q-1 -12 -1.5 -24t-0.5 -24v-24v-12v-6q0 -2 0.5 -3t0.5 -3v-1
q0 -18 -3.5 -35.5t-9.5 -34.5t-15.5 -32t-20.5 -29q-24 -27 -54 -45q-33 -19 -66 -26q-35 -8 -70 -3q-18 2 -35 6.5t-33 11.5q-34 16 -58 40q-27 25 -43 56q-16 33 -20 67q-2 18 -1 35.5t5 34.5q9 35 29 64q19 30 48 51q29 22 62 32q35 11 69 11q33 0 68 -11q33 -10 62 -32
q7 -5 2 -14q-7 -7 -14 -1zM335 72q-8 1 -16 1t-16 1h-33h-32.5t-31.5 -1q-17 -1 -33 -2t-33 -3q-8 -1 -16.5 -2t-16.5 -3q-4 -1 -8 -1.5t-7 -2.5q-10 -2 -17 -6q-10 -3 -17 -9q-5 -3 -9 -9t-5 -12v-4v-1v-1v-1v-1q0 -4 2 -8l5 -5q1 -2 5 -4q2 -2 4.5 -3t4.5 -3l9 -3
q7 -2 17 -4q4 -1 7.5 -1.5t8.5 -1.5l16 -2l16 -2q17 -2 32.5 -2.5t32.5 -2.5q16 -2 31 -3.5t31 -4.5q33 -5 62 -12q8 -2 15 -4.5t15 -5.5q7 -3 13 -6t13 -8q6 -4 11.5 -8.5t10.5 -10.5q10 -12 13 -24q2 -7 3 -14t1 -13q-2 -16 -7 -28q-6 -12 -17 -23t-24 -18q-12 -8 -27 -12
q-14 -6 -30 -9q-15 -4 -30.5 -6.5t-31.5 -4.5q-8 -1 -15.5 -1t-15.5 -1h-16h-8h-8h-1h-5h-5h-10h-21q-20 1 -41 6q-10 2 -19 4.5t-18 7.5t-17 11t-13 14q-2 4 -3.5 8t-3.5 9q-1 5 -1 9.5v9.5q1 19 11 38q4 9 9 18l10 18q12 19 25 34q4 6 -1 9q-6 4 -9 -1q-14 -18 -26 -35
q-6 -9 -11 -18t-10 -20t-8 -20q-2 -8 -4 -22q-1 -5 -0.5 -11t1.5 -12q3 -11 9 -22q5 -9 16 -18q10 -8 19 -12q10 -5 20 -8.5t21 -6.5q20 -4 43 -6q5 0 10.5 -0.5t11.5 -0.5h11h5q2 1 6 1h-1q2 0 4 -0.5t4 -0.5h8h17q8 1 15.5 1t15.5 1q17 2 33 4t33 6q16 3 32 9q8 3 15 6
t15 8q13 6 28 20q14 14 21 29q7 16 9 34v5v3v9q-1 5 -1.5 9t-2.5 9q-2 9 -7 17t-10 15q-13 15 -27 23q-8 5 -15 9t-14 7l-16 6t-16 5q-34 10 -64 14q-17 2 -32.5 4t-31.5 4q-17 2 -32.5 3.5t-31.5 3.5q-8 1 -16 1t-16 2q-5 0 -15 2q-3 1 -6.5 2t-6.5 2q-6 2 -7 2q-2 1 -4 3
l-2 1v1q1 1 1 2q1 0 3 3q6 4 12 5q5 3 12 4.5t15 3.5t15.5 3t15.5 2q16 2 31.5 2.5t32.5 1.5h63q8 0 16 -0.5t16 -0.5t16 -0.5t16 -0.5q6 -1 10 3t5 10q0 6 -4 10.5t-10 4.5zM238 606q-10 0 -10 10v54q0 10 10 10t10 -10v-54q0 -10 -10 -10z" />
    <glyph glyph-name="gcircumflex" unicode="&#x11d;" horiz-adv-x="476" 
d="M340 454q-28 19 -56 28q-29 10 -62 10q-17 0 -32.5 -2.5t-30.5 -7.5q-32 -11 -55 -30q-13 -10 -24 -21t-19 -25q-9 -13 -15 -27.5t-10 -29.5q-8 -30 -3 -62q3 -32 18 -60q16 -28 38 -49q23 -21 52 -35q27 -11 60 -16q16 -2 31.5 -0.5t31.5 4.5q31 6 57 23q28 17 48 40
q21 26 31 53q10 29 10 61v-1v6v7q-1 4 -1 12v25q0 13 0.5 25.5t1.5 25.5q3 23 9 50q2 7 4 13t5 13q3 6 7 12.5t10 11.5q4 5 10 5t10 -5q11 -9 0 -20q-6 -6 -11 -16q-2 -5 -3.5 -10.5t-3.5 -10.5q-6 -23 -9 -46q-1 -12 -1.5 -24t-0.5 -24v-24v-12v-6q0 -2 0.5 -3t0.5 -3v-1
q0 -18 -3.5 -35.5t-9.5 -34.5t-15.5 -32t-20.5 -29q-24 -27 -54 -45q-33 -19 -66 -26q-35 -8 -70 -3q-18 2 -35 6.5t-33 11.5q-34 16 -58 40q-27 25 -43 56q-16 33 -20 67q-2 18 -1 35.5t5 34.5q9 35 29 64q19 30 48 51q29 22 62 32q35 11 69 11q33 0 68 -11q33 -10 62 -32
q7 -5 2 -14q-7 -7 -14 -1zM335 72q-8 1 -16 1t-16 1h-33h-32.5t-31.5 -1q-17 -1 -33 -2t-33 -3q-8 -1 -16.5 -2t-16.5 -3q-4 -1 -8 -1.5t-7 -2.5q-10 -2 -17 -6q-10 -3 -17 -9q-5 -3 -9 -9t-5 -12v-4v-1v-1v-1v-1q0 -4 2 -8l5 -5q1 -2 5 -4q2 -2 4.5 -3t4.5 -3l9 -3
q7 -2 17 -4q4 -1 7.5 -1.5t8.5 -1.5l16 -2l16 -2q17 -2 32.5 -2.5t32.5 -2.5q16 -2 31 -3.5t31 -4.5q33 -5 62 -12q8 -2 15 -4.5t15 -5.5q7 -3 13 -6t13 -8q6 -4 11.5 -8.5t10.5 -10.5q10 -12 13 -24q2 -7 3 -14t1 -13q-2 -16 -7 -28q-6 -12 -17 -23t-24 -18q-12 -8 -27 -12
q-14 -6 -30 -9q-15 -4 -30.5 -6.5t-31.5 -4.5q-8 -1 -15.5 -1t-15.5 -1h-16h-8h-8h-1h-5h-5h-10h-21q-20 1 -41 6q-10 2 -19 4.5t-18 7.5t-17 11t-13 14q-2 4 -3.5 8t-3.5 9q-1 5 -1 9.5v9.5q1 19 11 38q4 9 9 18l10 18q12 19 25 34q4 6 -1 9q-6 4 -9 -1q-14 -18 -26 -35
q-6 -9 -11 -18t-10 -20t-8 -20q-2 -8 -4 -22q-1 -5 -0.5 -11t1.5 -12q3 -11 9 -22q5 -9 16 -18q10 -8 19 -12q10 -5 20 -8.5t21 -6.5q20 -4 43 -6q5 0 10.5 -0.5t11.5 -0.5h11h5q2 1 6 1h-1q2 0 4 -0.5t4 -0.5h8h17q8 1 15.5 1t15.5 1q17 2 33 4t33 6q16 3 32 9q8 3 15 6
t15 8q13 6 28 20q14 14 21 29q7 16 9 34v5v3v9q-1 5 -1.5 9t-2.5 9q-2 9 -7 17t-10 15q-13 15 -27 23q-8 5 -15 9t-14 7l-16 6t-16 5q-34 10 -64 14q-17 2 -32.5 4t-31.5 4q-17 2 -32.5 3.5t-31.5 3.5q-8 1 -16 1t-16 2q-5 0 -15 2q-3 1 -6.5 2t-6.5 2q-6 2 -7 2q-2 1 -4 3
l-2 1v1q1 1 1 2q1 0 3 3q6 4 12 5q5 3 12 4.5t15 3.5t15.5 3t15.5 2q16 2 31.5 2.5t32.5 1.5h63q8 0 16 -0.5t16 -0.5t16 -0.5t16 -0.5q6 -1 10 3t5 10q0 6 -4 10.5t-10 4.5zM238 687q2 0 6 -2l132 -96q7 -5 2 -14q-5 -7 -14 -2l-126 92l-126 -92q-8 -6 -14 2q-5 9 2 14
l132 96q4 2 6 2z" />
    <glyph glyph-name="Gcircumflex" unicode="&#x11c;" 
d="M490 601q-29 35 -67 58q-19 12 -39.5 20.5t-42.5 12.5q-43 9 -87 1q-45 -9 -82 -33q-19 -12 -35.5 -26.5t-31.5 -31.5q-30 -36 -47 -75q-10 -20 -17 -41t-12 -44q-10 -41 -10 -88q0 -46 9 -89q9 -45 27 -85q10 -20 21.5 -39t25.5 -36t30 -32t35 -27q38 -25 79 -34
q41 -10 87 -2q21 3 41.5 11t39.5 19q37 22 66 56l-3 -8l-1 263l14 -14l-166 -1q-6 0 -10 4.5t-4 10.5q0 14 14 14h166q6 0 10 -4.5t4 -9.5l-1 -263v-1q0 -5 -3 -8q-30 -34 -74 -61q-41 -24 -89 -32q-24 -5 -48.5 -3.5t-47.5 6.5q-48 11 -87 38q-41 28 -69 64q-29 36 -49 81
q-20 43 -29 89t-8 93q0 44 11 93q5 23 12.5 45t18.5 43q19 42 51 78q30 36 71 62q43 25 87 34q23 5 47 4.5t47 -5.5t45 -14t42 -22q39 -24 70 -62q4 -6 -1 -10q-6 -6 -10 1zM265 887q2 0 6 -2l132 -96q7 -5 2 -14q-5 -7 -14 -2l-126 92l-126 -92q-8 -6 -14 2q-5 9 2 14
l132 96q4 2 6 2z" />
    <glyph glyph-name="scedilla" unicode="&#x15f;" horiz-adv-x="432" 
d="M382 375v2v1v2q0 4 -1 6q0 4 -2 10q-3 12 -8 20q-5 9 -12.5 17t-15.5 16q-17 14 -38 23q-21 10 -42 14q-43 10 -89 4l-22 -4t-22 -6q-23 -7 -40 -18q-21 -11 -34 -27q-15 -17 -21 -36q-2 -5 -3 -10t-1 -10v-11t1 -11q1 -9 5 -20q5 -12 10 -18q11 -15 33 -25
q9 -5 19.5 -8.5t21.5 -5.5t22.5 -3.5t22.5 -3.5t23 -3t23 -2q12 -2 23.5 -3t23.5 -3t23.5 -4.5t23.5 -6.5q24 -6 45 -20q10 -8 20 -17q5 -5 8.5 -10.5t6.5 -10.5q3 -6 5.5 -12t4.5 -12t3 -12.5t2 -12.5q1 -4 1 -12v-6v-2v-2v-1v-2q0 -7 -1 -13.5t-3 -12.5q-9 -25 -26 -44
q-9 -10 -18.5 -17.5t-20.5 -14.5q-25 -13 -45 -20q-12 -4 -24 -6.5t-24 -4.5q-6 -1 -12 -1t-12 -1h-12h-13q-12 1 -24 2.5t-24 4.5t-24 7t-23 9q-21 9 -42 26q-10 8 -18.5 18t-15.5 21q-5 10 -10 25q-2 6 -2.5 12.5t-1.5 13.5q0 6 4.5 10.5t10.5 4.5q14 0 14 -14v-1
q0 -17 10 -37q10 -17 27 -31q8 -8 17 -13t19 -10q21 -10 41 -14q45 -11 88 -5q22 2 43 9q11 3 20.5 7.5t19.5 9.5q9 6 17.5 12.5t15.5 14.5q15 15 21 35q2 5 2.5 9.5t1.5 9.5v1v1v1v1v1v6q-1 3 -1 10q-2 11 -4.5 21t-7.5 19q-5 10 -12 17q-5 6 -15 13q-18 12 -39 18
q-11 4 -22 6l-22 4t-22.5 3.5t-22.5 3.5q-12 1 -23.5 2t-23.5 3q-11 2 -23 4t-23 4q-12 3 -24 6.5t-23 9.5q-5 2 -10.5 5.5t-10.5 7.5t-9.5 9t-8.5 10t-7.5 11t-5.5 12q-5 12 -6 24q0 4 -0.5 7t-0.5 6v3v3v2v1v3q1 7 2 13.5t3 12.5q7 24 25 43q17 17 39 31q11 6 22 10.5
t22 8.5q12 4 24 6l24 4q11 2 23 2t24 -1q12 0 24 -2l24 -4q26 -7 45 -16q11 -5 21.5 -11.5t20.5 -14.5q19 -16 31 -38q3 -5 5.5 -11t4.5 -12q1 -3 1 -6t1 -6q0 -4 1 -7v-3v-1v-2q0 -8 -8 -8t-8 8zM213 -196q-32 0 -55 14q-27 18 -27 48q0 10 10 10t10 -10q0 -19 18 -31
q17 -11 44 -11q25 0 46.5 11t21.5 31q0 36 -31 52q-6 3 -11.5 4.5t-10.5 3.5l-10 2q-9 0 -9 10v72q0 10 10 10t10 -10v-64q6 -1 14 -3.5t17 -7.5q41 -21 41 -69q0 -29 -29 -47q-24 -15 -59 -15z" />
    </font>
</defs>
</svg>
